<svg viewBox="0 0 25 25" xmlns="http://www.w3.org/2000/svg"><path fill-rule="evenodd" clip-rule="evenodd" d="m11.949 7.433.196.014a8.096 8.096 0 0 0 .038 2.009l-.382-.029-2.3-.17v.26l1.673 5.021a3.78 3.78 0 0 0 4.93 2.337 2.987 2.987 0 0 0-.579 2.196 5.76 5.76 0 0 1-2.787-.313l-1.974 1.382c-.754.528-1.761-.158-1.546-1.053l.644-2.673a5.784 5.784 0 0 1-.586-1.243L7.78 10.68H5a1 1 0 0 1-.768-.36l-2.5-3 1.536-1.28 2.2 2.64H7.5v-.5a1 1 0 0 1 1.074-.997l3.375.25ZM18.5 20.68a2 2 0 1 0 0-4 2 2 0 0 0 0 4ZM17.533 6.843v-2.42a.5.5 0 0 1 .5-.5h1.918a.5.5 0 0 1 .5.5v2.42h2.42a.5.5 0 0 1 .5.5V9.26a.5.5 0 0 1-.5.5h-2.42v2.419a.5.5 0 0 1-.5.5h-1.918a.5.5 0 0 1-.5-.5V9.761h-2.419a.5.5 0 0 1-.5-.5V7.343a.5.5 0 0 1 .5-.5h2.419Z"/><path fill-rule="evenodd" clip-rule="evenodd" d="M20.451 6.843v-2.42a.5.5 0 0 0-.5-.5h-1.918a.5.5 0 0 0-.5.5v2.42h-2.419a.5.5 0 0 0-.5.5V9.26a.5.5 0 0 0 .5.5h2.419v2.419a.5.5 0 0 0 .5.5h1.918a.5.5 0 0 0 .5-.5V9.761h2.42a.5.5 0 0 0 .5-.5V7.343a.5.5 0 0 0-.5-.5h-2.42Z"/></svg>