<svg viewBox="0 0 25 25" xmlns="http://www.w3.org/2000/svg"><path d="M15.456 6.95a5.212 5.212 0 0 0 .145 2.016l-5.644-.418v.261l1.674 5.02a3.78 3.78 0 0 0 4.93 2.338 2.987 2.987 0 0 0-.578 2.196c-.968.13-1.92.01-2.788-.313l-1.974 1.382c-.754.528-1.761-.158-1.545-1.054l.643-2.673a5.784 5.784 0 0 1-.586-1.243l-1.496-4.49h-2.78a1 1 0 0 1-.768-.36l-2.5-3 1.537-1.28 2.2 2.64h2.031v-.5a1 1 0 0 1 1.074-.998l6.425.476ZM21.593 12.656a5.188 5.188 0 0 1-2.193-.035l-.764 1.623a3.78 3.78 0 0 1-.557.858 2.998 2.998 0 0 1 2.26.207c.037-.07.073-.142.106-.213l1.148-2.44ZM18.957 19.972a2 2 0 1 0 0-4 2 2 0 0 0 0 4Z"/><path fill-rule="evenodd" clip-rule="evenodd" d="M19.58 6.593v-1.5a.5.5 0 0 1 .5-.5h1a.5.5 0 0 1 .5.5v1.5h1.5a.5.5 0 0 1 .5.5v1a.5.5 0 0 1-.5.5h-1.5v1.5a.5.5 0 0 1-.5.5h-1a.5.5 0 0 1-.5-.5v-1.5h-1.5a.5.5 0 0 1-.5-.5v-1a.5.5 0 0 1 .5-.5h1.5Z"/><path fill-rule="evenodd" clip-rule="evenodd" d="M21.58 6.593v-1.5a.5.5 0 0 0-.5-.5h-1a.5.5 0 0 0-.5.5v1.5h-1.5a.5.5 0 0 0-.5.5v1a.5.5 0 0 0 .5.5h1.5v1.5a.5.5 0 0 0 .5.5h1a.5.5 0 0 0 .5-.5v-1.5h1.5a.5.5 0 0 0 .5-.5v-1a.5.5 0 0 0-.5-.5h-1.5Z"/></svg>