<svg xmlns="http://www.w3.org/2000/svg" viewBox="0 0 40 40"><path d="M29.9 10.2V10c0-3.6-3-6.6-6.6-6.6-.7 0-1.2.6-1.2 1.2V10H17V4.7c0-.7-.6-1.2-1.2-1.2-3.6 0-6.6 3-6.6 6.6v.2c-3 .6-5.3 3.3-5.3 6.5v4c0 .7.6 1.2 1.2 1.2 1.5 0 2.9-.5 4.1-1.4V30c0 3.6 2.9 6.6 6.6 6.6h7.6c3.6 0 6.6-2.9 6.6-6.6v-9.5c1.2.9 2.6 1.4 4.1 1.4.7 0 1.2-.6 1.2-1.2v-4c0-3.2-2.3-5.9-5.4-6.5zM9.1 15.3c0 2.5-1.9 3.6-2.8 3.9v-2.6c0-1.8 1.2-3.4 2.8-3.9v2.6zm2.5-5.3c0-1.8 1.2-3.4 2.8-3.9v4l-2.8-.1zm15.9 20c0 2.3-1.8 4.1-4.1 4.1h-7.6c-2.3 0-4.1-1.8-4.1-4.1v-1.3c0-2.3 1.8-4.1 4.1-4.1h7.6c2.3 0 4.1 1.8 4.1 4.1V30zm0-6.5c-1.2-.9-2.6-1.4-4.1-1.4h-7.6c-1.5 0-2.9.5-4.1 1.4V12.6h15.8v10.9zm0-13.4h-2.8v-4c1.6.5 2.8 2.1 2.8 4zm5.3 9.1c-.9-.3-2.8-1.4-2.8-3.9v-2.6c1.6.5 2.8 2.1 2.8 3.9v2.6z"/><path d="M15.7 27.4c-.7 0-1.2.6-1.2 1.2V30c.1 1.7 2.4 1.7 2.5 0v-1.3c0-.7-.6-1.3-1.3-1.3zM23.4 27.4c-.7 0-1.2.6-1.2 1.2V30c.1 1.7 2.4 1.7 2.5 0v-1.3c-.1-.7-.6-1.3-1.3-1.3zM16.7 19.2c.7 0 1.2-.6 1.2-1.2v-1.3c-.1-1.7-2.4-1.7-2.5 0V18c0 .7.6 1.2 1.3 1.2zM22.4 19.2c.7 0 1.2-.6 1.2-1.2v-1.3c-.1-1.7-2.4-1.7-2.5 0V18c.1.7.6 1.2 1.3 1.2zM29.3 30.6c.3 1.5.5 2.7.8 3.8.2.8.8 1.2 1.5 1.1.7-.1 1.1-.8 1-1.5 0-.1 0-.3-.1-.4v-.1c-.2-.9-.4-1.8-.5-2.8l-.2-1c.3.1.6.2.9.2.7.2 1.3.3 2 .5.4.1.8.1 1.1-.1.3-.2.5-.4.6-.8.1-.7-.3-1.3-1.1-1.5-.5-.1-1-.3-1.6-.4-.2-.1-.5-.1-.7-.2l.2-.2c.1-.1.2-.2.4-.3.3-.2.6-.4.9-.7.4-.3.9-.7 1.4-1 .5-.3.6-.8.5-1.3-.1-.4-.4-.8-.7-.9-.4-.2-.9-.1-1.3.2-1.2.9-2.6 1.9-3.9 3-.5.4-.9.5-1.4.3M10.2 27.4c-1.9.8-3.9 1.6-5.5 2.4-.5.2-.9.7-1 1.2-.1.5.1 1 .5 1.3.5.4 1 .5 1.7.2.6-.3 1.3-.6 1.9-.8.4-.2.8-.4 1.2-.5.2-.1.3-.1.5-.2.1 0 .2-.1.3-.1"/></svg>