<svg width="18" height="25" viewBox="0 0 18 25" fill="transparent" xmlns="http://www.w3.org/2000/svg">
<path d="M6 3C5 4.33333 2.29999 10.5 5.49999 14.5C8.28094 17.9762 11.515 21.7041 13.2989 23.7148C13.6791 24.1433 14.3402 24.1598 14.7453 23.7547L16.8333 21.6667C17.2077 21.2923 17.2253 20.691 16.8736 20.2953L9.5 12" stroke="#182D3A" stroke-width="1.5" stroke-linecap="round"/>
<path d="M5.95645 3.04503C4.25108 5.91062 7.73289 10.209 9.68696 12C14.3767 7.22404 13.7728 3.64204 12.8845 2.44803C11.8187 0.656979 7.66183 0.179436 5.95645 3.04503Z" stroke="#182D3A" stroke-width="1.5"/>
<path d="M13.5 4C14.3333 5.66667 15.8 11.3 13 14.5" stroke="#182D3A" stroke-width="1.5" stroke-linecap="round"/>
<path d="M5.5 15.5L1.70711 19.2929C1.31658 19.6834 1.31658 20.3166 1.70711 20.7071L4.29289 23.2929C4.68342 23.6834 5.31658 23.6834 5.70711 23.2929L9 20" stroke="#182D3A" stroke-width="1.5" stroke-linecap="round"/>
</svg>
