<svg viewBox="1 0 25 25" fill="currentColor" xmlns="http://www.w3.org/2000/svg">
<path d="M9.98047 23.2146C8.98719 23.062 8.09729 22.6871 7.33301 22.0496C6.64321 21.4738 6.09126 20.7885 5.63825 20.0269C4.74057 18.5187 4.19918 16.8849 3.80287 15.1989C3.5822 14.259 3.37209 13.3153 3.28371 12.355C3.18978 11.3307 3.39877 10.3451 3.87124 9.42456C4.63163 7.94216 5.82446 6.93295 7.47363 6.45332C8.35909 6.19605 9.2601 6.15792 10.1811 6.34107C10.2039 6.246 10.145 6.18424 10.1139 6.11818C9.707 5.26956 9.62918 4.3769 9.72534 3.459C9.78648 2.87302 9.926 2.30531 10.1372 1.75371C10.3179 1.2816 10.7453 1.10919 11.2039 1.34551C12.4606 1.99325 13.4945 2.86174 14.0937 4.14326C14.1904 4.35058 14.2693 4.56918 14.3266 4.78939C14.3766 4.98328 14.4344 4.95213 14.5422 4.83558C15.1348 4.1959 15.8307 3.68028 16.5989 3.25436C16.8551 3.11257 17.1202 2.9842 17.3904 2.86926C17.7967 2.69632 18.1941 2.83704 18.3614 3.19636C18.5232 3.5444 18.3686 3.91768 17.9701 4.09653C16.9557 4.55092 16.068 5.1659 15.3532 6.00216C15.0914 6.30885 14.858 6.63433 14.6779 7.03124C14.9269 6.91254 15.1403 6.80298 15.3599 6.70684C17.4454 5.79377 19.9767 6.22559 21.6075 7.78211C22.8932 9.00884 23.5152 10.5063 23.4279 12.2465C23.3784 13.2374 23.1333 14.208 22.9093 15.1763C22.553 16.7157 22.0689 18.212 21.3063 19.6133C20.6821 20.76 19.8978 21.7773 18.75 22.4916C18.1763 22.8488 17.5488 23.0706 16.8773 23.1802C16.8267 23.1883 16.7773 23.2028 16.7273 23.2146H15.4844C14.9463 23.12 14.3838 23.0561 13.9297 22.7521C13.5151 22.4745 13.1938 22.4745 12.7791 22.7521C12.325 23.0561 11.7625 23.12 11.2239 23.2146H9.98103H9.98047ZM15.7423 21.8767C17.0969 21.8793 17.9162 21.512 18.6204 20.8809C19.5315 20.065 20.1006 19.0333 20.5681 17.9435C21.2084 16.4503 21.5736 14.8847 21.8665 13.2997C22.0022 12.565 22.1167 11.834 21.9477 11.0906C21.6203 9.65282 20.8093 8.56144 19.4047 7.96311C17.9173 7.32933 16.4771 7.4808 15.1381 8.38849C14.6184 8.74083 14.062 8.97769 13.4144 8.99112C12.6913 9.00669 12.0821 8.73761 11.5051 8.34499C10.4257 7.6097 9.23009 7.4099 7.95888 7.73055C6.014 8.22145 4.72501 9.93373 4.66998 11.8646C4.65386 12.4409 4.78837 12.9995 4.89232 13.5608C5.17524 15.0893 5.54765 16.5959 6.17686 18.031C6.64099 19.0907 7.21962 20.0768 8.09006 20.8905C9.50245 22.2118 11.8175 22.1538 12.8731 21.035C13.1504 20.7412 13.5495 20.7547 13.8452 21.0393C14.4794 21.6495 15.2526 21.8777 15.7434 21.8756L15.7423 21.8767ZM13.0815 6.12355C13.1126 4.67177 12.3584 3.77696 11.3706 3.03576C11.2645 2.95627 11.2183 2.98635 11.1961 3.10398C10.8654 4.84794 11.2945 6.04244 12.7875 7.14672C12.9114 7.23803 12.9598 7.21493 12.9859 7.07045C13.0443 6.74604 13.0859 6.42056 13.0815 6.12355Z" />
</svg>
