<svg  viewBox="0 0 33 32" fill="none" xmlns="http://www.w3.org/2000/svg">
<g id="box">
<path id="Vector" d="M4.86 9.28L16.5 16.0133L28.14 9.28M16.5 29.44V16M28.5 21.3333V10.6667C28.4995 10.199 28.3761 9.73974 28.1421 9.33488C27.908 8.93002 27.5717 8.59382 27.1667 8.36L17.8333 3.02666C17.4279 2.79262 16.9681 2.6694 16.5 2.6694C16.0319 2.6694 15.5721 2.79262 15.1667 3.02666L5.83333 8.36C5.42835 8.59382 5.09197 8.93002 4.85795 9.33488C4.62392 9.73974 4.50048 10.199 4.5 10.6667V21.3333C4.50048 21.801 4.62392 22.2603 4.85795 22.6651C5.09197 23.07 5.42835 23.4062 5.83333 23.64L15.1667 28.9733C15.5721 29.2074 16.0319 29.3306 16.5 29.3306C16.9681 29.3306 17.4279 29.2074 17.8333 28.9733L27.1667 23.64C27.5717 23.4062 27.908 23.07 28.1421 22.6651C28.3761 22.2603 28.4995 21.801 28.5 21.3333Z" stroke="currentColor" stroke-width="1.5" stroke-linecap="round" stroke-linejoin="round"/>
</g>
</svg>
