<svg viewBox="0 0 40 40" fill="none" stroke="currentColor" xmlns="http://www.w3.org/2000/svg">
    <path d="M30.2693 16.5853H28.1796C27.5591 14.1821 26.2769 12.0011 24.4788 10.2901C22.6807 8.57922 20.4388 7.40695 18.0077 6.90655C15.5766 6.40615 13.054 6.59767 10.7263 7.45936C8.39868 8.32106 6.35939 9.81836 4.8402 11.7811C3.32101 13.7439 2.38282 16.0935 2.13225 18.5628C1.88167 21.0322 2.32876 23.5223 3.4227 25.7502C4.51664 27.9782 6.21357 29.8546 8.32067 31.1663C10.4278 32.478 12.8606 33.1724 15.3426 33.1705H30.2693C32.4687 33.1705 34.5779 32.2969 36.1331 30.7417C37.6883 29.1865 38.562 27.0773 38.562 24.8779C38.562 22.6786 37.6883 20.5693 36.1331 19.0141C34.5779 17.459 32.4687 16.5853 30.2693 16.5853Z"
           stroke-width="1.4216" stroke-linecap="round" stroke-linejoin="round"/>
</svg>
