<svg width="18" height="18" viewBox="0 0 18 18" fill="none" xmlns="http://www.w3.org/2000/svg">
    <path
        d="M4.14326 14.1399L0.210938 17.2293V0.899765C0.210938 0.665665 0.303933 0.441153 0.469467 0.275619C0.635001 0.110086 0.859513 0.0170898 1.09361 0.0170898H16.9818C17.2159 0.0170898 17.4404 0.110086 17.6059 0.275619C17.7714 0.441153 17.8644 0.665665 17.8644 0.899765V13.2572C17.8644 13.4913 17.7714 13.7158 17.6059 13.8814C17.4404 14.0469 17.2159 14.1399 16.9818 14.1399H4.14326ZM4.62431 6.19582V7.96117H6.38966V6.19582H4.62431ZM8.15502 6.19582V7.96117H9.92037V6.19582H8.15502ZM11.6857 6.19582V7.96117H13.4511V6.19582H11.6857Z"
        fill="currentColor" />
</svg>