<svg width="42" height="30" viewBox="0 0 42 30" fill="none" xmlns="http://www.w3.org/2000/svg">
    <path
        d="M31.9999 11.333H29.6899C29.004 8.6765 27.5867 6.26565 25.5991 4.3744C23.6114 2.48315 21.1332 1.18733 18.4459 0.634181C15.7586 0.0810363 12.97 0.292748 10.3971 1.24526C7.8241 2.19777 5.56988 3.85289 3.89057 6.02254C2.21126 8.19219 1.17419 10.7894 0.897207 13.519C0.620222 16.2486 1.11443 19.0012 2.32367 21.4639C3.53291 23.9267 5.40869 26.0009 7.73788 27.4509C10.0671 28.9008 12.7563 29.6684 15.4999 29.6663H31.9999C34.431 29.6663 36.7626 28.7006 38.4817 26.9815C40.2008 25.2624 41.1665 22.9308 41.1665 20.4997C41.1665 18.0685 40.2008 15.7369 38.4817 14.0179C36.7626 12.2988 34.431 11.333 31.9999 11.333Z"
        fill="currentColor" />
</svg>