<svg viewBox="0 0 32 32" fill="currentColor" xmlns="http://www.w3.org/2000/svg">
    <path fill-rule="evenodd" clip-rule="evenodd"
        d="M13.9933 10.418H4.89555C3.4827 10.418 2.77627 10.418 2.33735 10.8569C1.89844 11.2958 1.89844 12.0022 1.89844 13.4151V14.9726C1.89844 16.3855 1.89844 17.0919 2.33735 17.5308C2.77627 17.9698 3.4827 17.9698 4.89555 17.9698H6.42951V17.9814H13.9933V10.418ZM6.42951 20.9785V27.0555C6.42951 28.4684 6.42951 29.1748 6.86843 29.6137C7.30735 30.0526 8.01377 30.0526 9.42663 30.0526H13.9933V20.9785H6.42951ZM16.9904 30.0526H21.5567C22.9695 30.0526 23.676 30.0526 24.1149 29.6137C24.5538 29.1748 24.5538 28.4684 24.5538 27.0555V20.9785H16.9904V30.0526ZM24.5538 17.9814V17.9698H26.0878C27.5006 17.9698 28.207 17.9698 28.646 17.5308C29.0849 17.0919 29.0849 16.3855 29.0849 14.9726V13.4151C29.0849 12.0022 29.0849 11.2958 28.646 10.8569C28.207 10.418 27.5006 10.418 26.0878 10.418H16.9904V17.9814H24.5538Z"
        fill="currentColor" />
    <path
        d="M26.0645 5.33191V5.05686C26.0645 3.23616 24.2807 1.95053 22.5535 2.52628C20.3927 3.24653 18.4294 4.45995 16.8189 6.07046L15.4919 7.39739V8.90775H21.047C21.3692 8.90775 21.6892 8.85581 21.9948 8.75394L24.105 8.05055C25.2752 7.66049 26.0645 6.56539 26.0645 5.33191Z"
        fill="currentColor" />
    <path
        d="M4.91895 5.33191V5.05686C4.91895 3.23616 6.70266 1.95053 8.42993 2.52628C10.5907 3.24653 12.554 4.45995 14.1645 6.07046L15.4915 7.39739V8.90775H9.93638C9.61425 8.90775 9.29422 8.85581 8.98861 8.75394L6.87843 8.05055C5.70825 7.66049 4.91895 6.56539 4.91895 5.33191Z"
        fill="currentColor" />
</svg>
