<svg viewBox="0 0 32 32" fill="none" xmlns="http://www.w3.org/2000/svg">
    <path
        d="M2.6665 12.4443C2.6665 11.5015 2.6665 11.0301 2.9594 10.7372C3.25229 10.4443 3.72369 10.4443 4.6665 10.4443H28.6665C29.6093 10.4443 30.0807 10.4443 30.3736 10.7372C30.6665 11.0301 30.6665 11.5015 30.6665 12.4443V16.2221C30.6665 17.1649 30.6665 17.6363 30.3736 17.9292C30.0807 18.2221 29.6093 18.2221 28.6665 18.2221H27.9998C27.057 18.2221 26.5856 18.2221 26.2927 18.515C25.9998 18.8079 25.9998 19.2793 25.9998 20.2221V27.111C25.9998 28.0538 25.9998 28.5252 25.7069 28.8181C25.4141 29.111 24.9426 29.111 23.9998 29.111H9.33317C8.39036 29.111 7.91896 29.111 7.62606 28.8181C7.33317 28.5252 7.33317 28.0538 7.33317 27.111V20.2221C7.33317 19.2793 7.33317 18.8079 7.04028 18.515C6.74738 18.2221 6.27598 18.2221 5.33317 18.2221H4.6665C3.72369 18.2221 3.25229 18.2221 2.9594 17.9292C2.6665 17.6363 2.6665 17.1649 2.6665 16.2221V12.4443Z"
        stroke="currentColor" stroke-width="1.5" />
    <path d="M5.77783 18.2222H27.5556" stroke="currentColor" stroke-width="1.5" stroke-linecap="round" />
    <path d="M16.6665 8.88867L16.6665 29.1109" stroke="currentColor" stroke-width="1.5" stroke-linecap="round" />
    <path
        d="M16.6667 8.88873L14.614 6.83601C13.4065 5.62849 11.9344 4.71869 10.3143 4.17867L8.41029 3.54399C7.11523 3.1123 5.77783 4.07624 5.77783 5.44136V7.44721C5.77783 8.30807 6.32869 9.07235 7.14538 9.34457L10.4445 10.4443"
        stroke="currentColor" stroke-width="1.5" stroke-linecap="round" />
    <path
        d="M16.6663 8.88873L18.719 6.83601C19.9265 5.62849 21.3986 4.71869 23.0187 4.17867L24.9227 3.54399C26.2178 3.1123 27.5552 4.07624 27.5552 5.44136V7.44721C27.5552 8.30807 27.0043 9.07235 26.1876 9.34457L22.8885 10.4443"
        stroke="currentColor" stroke-width="1.5" stroke-linecap="round" />
</svg>
