<svg width="26" height="26" viewBox="0 0 26 26" fill="none" xmlns="http://www.w3.org/2000/svg">
    <path
        d="M24.6654 12.9997C24.6654 19.443 19.442 24.6663 12.9987 24.6663M24.6654 12.9997C24.6654 6.55635 19.442 1.33301 12.9987 1.33301M24.6654 12.9997H1.33203M12.9987 24.6663C6.55538 24.6663 1.33203 19.443 1.33203 12.9997M12.9987 24.6663C15.9169 21.4716 17.5752 17.3256 17.6654 12.9997C17.5752 8.67371 15.9169 4.52775 12.9987 1.33301M12.9987 24.6663C10.0805 21.4716 8.42215 17.3256 8.33203 12.9997C8.42215 8.67371 10.0805 4.52775 12.9987 1.33301M1.33203 12.9997C1.33203 6.55635 6.55538 1.33301 12.9987 1.33301"
        stroke="currentColor" stroke-width="1.5" stroke-linecap="round" stroke-linejoin="round" />
</svg>