<svg viewBox="0 0 21 20" fill="none" xmlns="http://www.w3.org/2000/svg">
    <g id="logout-svgrepo-com 1">
        <g id="Group">
            <g id="Sign_Out">
                <path id="Vector"
                    d="M9.76366 18.7504H1.63869V1.25045H9.76366C10.1087 1.25045 10.3886 0.970431 10.3886 0.62547C10.3886 0.280509 10.1086 0.000488281 9.76366 0.000488281H1.01365C0.668693 0.000488281 0.388672 0.280457 0.388672 0.62547V19.3754C0.388672 19.7204 0.668693 20.0004 1.01365 20.0004H9.76361C10.1086 20.0004 10.3886 19.7204 10.3886 19.3754C10.3886 19.0304 10.1086 18.7504 9.76366 18.7504Z"
                    fill="currentColor" />
                <path id="Vector_2"
                    d="M20.2073 9.56416L15.8949 5.18981C15.6505 4.94293 15.2549 4.94355 15.0111 5.18981C14.7667 5.43606 14.7667 5.83604 15.0111 6.08229L18.2611 9.37916H5.39055C5.04553 9.37916 4.76556 9.66167 4.76556 10.0104C4.76556 10.3592 5.04558 10.6417 5.39055 10.6417H18.2611L15.0111 13.9386C14.7667 14.1854 14.7667 14.5848 15.0111 14.831C15.2555 15.0779 15.6511 15.0779 15.8949 14.831L20.2067 10.4567C20.448 10.2136 20.4505 9.80667 20.2073 9.56416Z"
                    fill="currentColor" />
            </g>
        </g>
    </g>
</svg>