<svg viewBox="0 0 34 34" fill="none" xmlns="http://www.w3.org/2000/svg">
    <g id="Group">
        <path id="Vector"
            d="M8.5 11.3334V9.91675C8.5 7.66241 9.39553 5.5004 10.9896 3.90634C12.5837 2.31228 14.7457 1.41675 17 1.41675C19.2543 1.41675 21.4163 2.31228 23.0104 3.90634C24.6045 5.5004 25.5 7.66241 25.5 9.91675V11.3334H28.3333C28.7091 11.3334 29.0694 11.4827 29.3351 11.7483C29.6007 12.014 29.75 12.3744 29.75 12.7501V29.7501C29.75 30.1258 29.6007 30.4861 29.3351 30.7518C29.0694 31.0175 28.7091 31.1667 28.3333 31.1667H5.66667C5.29094 31.1667 4.93061 31.0175 4.66493 30.7518C4.39926 30.4861 4.25 30.1258 4.25 29.7501V12.7501C4.25 12.3744 4.39926 12.014 4.66493 11.7483C4.93061 11.4827 5.29094 11.3334 5.66667 11.3334H8.5ZM26.9167 14.1667H7.08333V28.3334H26.9167V14.1667ZM15.5833 22.2871C15.0432 21.9752 14.621 21.4938 14.3823 20.9176C14.1437 20.3414 14.1018 19.7025 14.2632 19.1C14.4246 18.4976 14.7804 17.9652 15.2752 17.5855C15.77 17.2058 16.3763 17 17 17C17.6237 17 18.23 17.2058 18.7248 17.5855C19.2196 17.9652 19.5754 18.4976 19.7368 19.1C19.8982 19.7025 19.8563 20.3414 19.6177 20.9176C19.379 21.4938 18.9568 21.9752 18.4167 22.2871V25.5001H15.5833V22.2871ZM11.3333 11.3334H22.6667V9.91675C22.6667 8.41385 22.0696 6.97252 21.0069 5.90981C19.9442 4.8471 18.5029 4.25008 17 4.25008C15.4971 4.25008 14.0558 4.8471 12.9931 5.90981C11.9304 6.97252 11.3333 8.41385 11.3333 9.91675V11.3334Z"
            fill="currentColor" />
    </g>
</svg>