<svg  viewBox="0 -2 26 26" fill="currentColor" xmlns="http://www.w3.org/2000/svg">
<g clip-path="url(#clip0_960_29917)">
<path d="M25.6037 12.7991C25.4974 12.9643 25.347 13.0628 25.1671 13.1346C24.2783 13.4901 23.3944 13.859 22.504 14.2095C22.3135 14.2846 22.2497 14.3889 22.2506 14.5934C22.2563 16.7407 22.2547 18.8888 22.253 21.0362C22.253 21.168 22.2506 21.3016 22.2293 21.4309C22.1811 21.7289 22.0094 21.8757 21.7158 21.8874C21.6512 21.8899 21.5866 21.8891 21.5212 21.8891C14.828 21.8891 8.1356 21.8891 1.44237 21.8891C1.37778 21.8891 1.31318 21.8899 1.24777 21.8874C0.91172 21.8741 0.734292 21.688 0.72448 21.3391C0.722845 21.2815 0.72448 21.2231 0.72448 21.1655C0.72448 16.9861 0.72775 12.8057 0.718756 8.62626C0.717939 8.23234 0.794797 7.97446 1.30174 7.76749C7.56079 5.21541 13.8215 2.6725 20.083 0.127924C20.5409 -0.0581831 20.778 0.0478061 20.9595 0.511822C22.4656 4.37 23.9709 8.229 25.4778 12.0863C25.5138 12.1773 25.562 12.2633 25.6045 12.3517V12.7974L25.6037 12.7991ZM11.5231 8.94756C8.38416 8.94756 5.24441 8.94756 2.10548 8.94756C1.7588 8.94756 1.75798 8.94756 1.75798 9.30475C1.75798 13.0377 1.75798 16.7699 1.75798 20.5029C1.75798 20.8601 1.7588 20.8601 2.10466 20.8601C8.36699 20.8601 14.6293 20.8601 20.8916 20.8601C21.1091 20.8601 21.2182 20.7455 21.2187 20.5162C21.2187 16.7749 21.2187 13.0344 21.2187 9.29307C21.2187 9.06217 21.102 8.94673 20.8687 8.94673C17.7535 8.94673 14.6391 8.94673 11.5239 8.94673L11.5231 8.94756ZM3.90102 7.8376C3.90102 7.85429 3.90266 7.87098 3.90348 7.88767C4.50036 7.88767 5.09805 7.89017 5.69493 7.88684C6.1291 7.88433 6.55509 7.93858 6.95574 7.63229C7.22392 7.42699 7.59105 7.35522 7.91401 7.22336C10.8592 6.02493 13.8043 4.8265 16.7495 3.62891C17.2605 3.4211 17.3701 3.4453 17.7274 3.83755C18.3161 4.4835 19.0405 4.80898 19.9056 4.80731C20.4779 4.80647 20.5466 4.85154 20.7641 5.40402C21.056 6.14761 21.3454 6.89204 21.6373 7.6348C21.6758 7.73244 21.6938 7.8618 21.805 7.89435C22.2146 8.01369 22.2571 8.33333 22.2563 8.69386C22.2522 10.0976 22.2538 11.5022 22.2555 12.9059C22.2555 13.1754 22.2669 13.1813 22.5138 13.0811C23.0625 12.8583 23.607 12.6238 24.1606 12.416C24.3854 12.3317 24.4353 12.2457 24.3405 12.0046C22.9766 8.53362 21.6243 5.05851 20.2686 1.58423C20.1792 1.35445 20.02 1.28629 19.7911 1.37977C15.7037 3.04138 11.6155 4.70215 7.52809 6.36293C6.31879 6.85448 5.11032 7.34604 3.90102 7.8376ZM9.18381 7.83593C9.18627 7.85429 9.18872 7.87265 9.19035 7.89017C9.76352 7.89017 10.3367 7.89017 10.9107 7.89017C14.0422 7.89017 17.173 7.89017 20.3046 7.89017C20.6112 7.89017 20.6218 7.87265 20.5098 7.58556C20.316 7.08649 20.1165 6.58993 19.9285 6.08919C19.8729 5.93981 19.7952 5.87221 19.6317 5.85885C18.7159 5.78374 17.9032 5.44658 17.2261 4.80564C17.0822 4.66877 16.9678 4.66543 16.7977 4.7347C15.3505 5.33141 13.9 5.91978 12.4503 6.50981C11.362 6.95296 10.2729 7.39444 9.18381 7.83593Z" />
<path d="M11.5038 19.9007C9.56186 19.9007 7.61995 19.9007 5.67805 19.9007C5.19973 19.9007 5.10325 19.8223 4.93236 19.3616C4.61266 18.5003 4.02723 17.9086 3.18179 17.5898C2.76724 17.4329 2.67649 17.3161 2.67567 16.8613C2.67321 15.5568 2.67321 14.2516 2.67567 12.9472C2.67649 12.4823 2.75498 12.3747 3.17443 12.2144C4.0444 11.8814 4.647 11.2747 4.9528 10.3759C5.05501 10.0754 5.22099 9.89685 5.54887 9.90269C5.72629 9.90603 5.90372 9.88016 6.08115 9.88016C9.64934 9.87849 13.2175 9.87849 16.7857 9.88016C17.004 9.88016 17.2215 9.90603 17.4398 9.90436C17.7473 9.90186 17.9133 10.0654 18.004 10.3483C18.2485 11.1053 18.7211 11.6703 19.412 12.0408C19.569 12.1251 19.7382 12.1844 19.9042 12.2486C20.1511 12.3446 20.2828 12.5165 20.2828 12.7919C20.282 14.1957 20.2828 15.5994 20.2828 17.004C20.2828 17.2752 20.1577 17.4605 19.905 17.5464C18.9402 17.8761 18.3016 18.5337 17.977 19.5185C17.8797 19.8139 17.7432 19.9007 17.4276 19.9016C15.453 19.9024 13.4792 19.9016 11.5046 19.9016L11.5038 19.9007ZM11.4629 18.8458C13.2592 18.8458 15.0556 18.8433 16.8528 18.8492C17.0482 18.8492 17.1578 18.7899 17.2452 18.6038C17.6369 17.7684 18.2542 17.1567 19.0743 16.7644C19.2182 16.6952 19.2804 16.6126 19.2795 16.4465C19.2738 15.4141 19.2738 14.3818 19.2795 13.3494C19.2795 13.1959 19.2248 13.1107 19.089 13.0456C18.2387 12.6342 17.6091 11.9916 17.206 11.1237C17.1414 10.9843 17.058 10.9317 16.9076 10.9317C13.2903 10.935 9.67306 10.935 6.0558 10.9317C5.90536 10.9317 5.82441 10.9843 5.75982 11.1245C5.37225 11.9699 4.76802 12.6058 3.9422 13.0098C3.77213 13.0932 3.70753 13.1959 3.70917 13.3895C3.71734 14.3809 3.71898 15.3716 3.70917 16.363C3.70672 16.5808 3.7664 16.7002 3.96754 16.8003C4.74921 17.1892 5.33873 17.7901 5.71812 18.5888C5.81623 18.7949 5.93561 18.8517 6.14738 18.8509C7.91921 18.8433 9.69186 18.8467 11.4637 18.8467L11.4629 18.8458Z" />
<path d="M11.4927 11.8906C13.1181 11.8923 14.4452 13.2493 14.4419 14.9059C14.4394 16.55 13.0944 17.917 11.4796 17.917C9.87046 17.917 8.51726 16.5408 8.51563 14.9042C8.51481 13.2368 9.84675 11.889 11.4918 11.8915L11.4927 11.8906ZM11.5017 12.9488C10.4256 12.9413 9.56057 13.8001 9.54913 14.8892C9.53768 15.9574 10.4036 16.8479 11.4575 16.8538C12.5245 16.8596 13.392 16.0033 13.4019 14.9343C13.4125 13.8293 12.5769 12.9564 11.5017 12.9488Z" />
</g>
<defs>
<clipPath id="clip0_960_29917">
<rect width="24.8841" height="21.848" transform="translate(0.720703 0.0410156)"/>
</clipPath>
</defs>
</svg>
