<svg width="24" height="20" viewBox="0 0 24 20" fill="none" xmlns="http://www.w3.org/2000/svg">
    <path
        d="M23.3516 15.7219V1.72812C23.3516 1.39359 22.9995 1.17602 22.7003 1.32562L17.5081 3.92172C17.4074 3.97207 17.2915 3.98284 17.1833 3.95191L7.01987 1.04809C6.91162 1.01716 6.7957 1.02793 6.695 1.07828L1.10032 3.87562C0.947864 3.95185 0.851562 4.10767 0.851562 4.27812V18.2719C0.851562 18.6064 1.2036 18.824 1.50281 18.6744L6.695 16.0783C6.7957 16.0279 6.91162 16.0172 7.01987 16.0481L17.1833 18.9519C17.2915 18.9828 17.4074 18.9721 17.5081 18.9217L23.1028 16.1244C23.2553 16.0482 23.3516 15.8923 23.3516 15.7219Z"
        stroke="currentColor" />
    <path d="M17.3516 19V4" stroke="currentColor" />
    <path d="M6.85156 16V1" stroke="currentColor" />
</svg>