<svg viewBox="0 0 32 32" fill="none" xmlns="http://www.w3.org/2000/svg">
    <path fill-rule="evenodd" clip-rule="evenodd"
        d="M21.385 2.9852C21.0153 2.94827 20.6787 3.18448 20.0055 3.6569L14.6018 7.449C13.2639 8.38784 12.595 8.85727 11.8506 9.18055C11.1061 9.50383 10.3065 9.67218 8.70712 10.0089L8.70711 10.0089L6.37977 10.4989C5.53451 10.6768 5.11188 10.7658 4.89262 11.0138C4.74416 11.1818 4.65643 11.3947 4.64352 11.6185C4.62444 11.949 4.86177 12.3099 5.33642 13.0316L5.52044 13.3113C7.62575 16.5124 8.67841 18.1129 9.8904 19.5802C10.9458 20.8579 12.0907 22.0591 13.3163 23.1746C14.7237 24.4556 16.2719 25.5838 19.3682 27.8403L19.3683 27.8403C20.0522 28.3387 20.3941 28.5879 20.7081 28.5945C20.9768 28.6002 21.2364 28.4975 21.4285 28.3096C21.653 28.0899 21.732 27.6743 21.89 26.8429L22.4307 23.9968C22.7146 22.5028 22.8565 21.7558 23.1342 21.0528C23.4119 20.3498 23.8187 19.7074 24.6324 18.4226L24.6324 18.4226L28.4993 12.317C28.9 11.6844 29.1003 11.368 29.0668 11.0259C29.0333 10.6838 28.7754 10.4124 28.2596 9.86943L22.6043 3.91651C22.0379 3.32026 21.7547 3.02213 21.385 2.9852ZM11.1763 22.551C11.4692 22.2581 11.4692 21.7832 11.1763 21.4903C10.8834 21.1974 10.4086 21.1974 10.1157 21.4903L2.80317 28.8028C2.51027 29.0957 2.51027 29.5706 2.80317 29.8635C3.09606 30.1564 3.57093 30.1564 3.86383 29.8635L11.1763 22.551Z"
        fill="currentColor" />
</svg>
