<svg viewBox="0 0 32 32" fill="none" xmlns="http://www.w3.org/2000/svg">
    <path
        d="M20.0053 3.65691C20.6785 3.18449 21.0151 2.94829 21.3848 2.98522C21.7545 3.02215 22.0377 3.32027 22.6042 3.91653L28.2595 9.86944C28.7753 10.4124 29.0331 10.6838 29.0666 11.0259C29.1001 11.368 28.8998 11.6844 28.4991 12.317L24.6323 18.4226C23.8186 19.7074 23.4117 20.3498 23.134 21.0528C22.8564 21.7558 22.7144 22.5028 22.4306 23.9969L21.8898 26.8429C21.7319 27.6743 21.6529 28.09 21.4284 28.3096C21.2363 28.4975 20.9766 28.6002 20.708 28.5945C20.394 28.5879 20.052 28.3387 19.3681 27.8403V27.8403C16.2717 25.5838 14.7235 24.4556 13.3161 23.1746C12.0905 22.0591 10.9457 20.8579 9.89024 19.5802C8.67825 18.113 7.62559 16.5124 5.52027 13.3114L5.33626 13.0316C4.8616 12.3099 4.62428 11.949 4.64335 11.6185C4.65627 11.3947 4.744 11.1818 4.89245 11.0138C5.11172 10.7658 5.53435 10.6768 6.37961 10.4989L8.70695 10.0089C10.3063 9.67219 11.106 9.50384 11.8504 9.18056C12.5948 8.85728 13.2637 8.38786 14.6016 7.44901L20.0053 3.65691Z"
        stroke="currentColor" stroke-width="1.5" />
    <path d="M3.3335 29.333L10.646 22.0205" stroke="currentColor" stroke-width="1.5" stroke-linecap="round" />
</svg>
