<svg width="17" height="18" viewBox="0 0 17 18" fill="none" xmlns="http://www.w3.org/2000/svg">
    <path
        d="M0 9.83342H10V8.16675H0V0.538422C1.23962e-05 0.466017 0.0188919 0.394865 0.0547779 0.33198C0.0906638 0.269094 0.142317 0.216645 0.204647 0.179802C0.266977 0.14296 0.337832 0.122995 0.410228 0.121876C0.482623 0.120757 0.554061 0.138523 0.6175 0.173422L16.0025 8.63509C16.0678 8.67106 16.1223 8.7239 16.1602 8.7881C16.1982 8.8523 16.2182 8.92551 16.2182 9.00009C16.2182 9.07466 16.1982 9.14787 16.1602 9.21207C16.1223 9.27628 16.0678 9.32912 16.0025 9.36509L0.6175 17.8268C0.554061 17.8617 0.482623 17.8794 0.410228 17.8783C0.337832 17.8772 0.266977 17.8572 0.204647 17.8204C0.142317 17.7835 0.0906638 17.7311 0.0547779 17.6682C0.0188919 17.6053 1.23962e-05 17.5342 0 17.4618V9.83342Z"
        fill="currentColor" />
</svg>