<svg viewBox="0 0 32 32" fill="none" xmlns="http://www.w3.org/2000/svg">
    <path
        d="M13.7404 9.52177C14.6979 7.17392 15.1767 6 16 6C16.8233 6 17.3021 7.17393 18.2596 9.52178L18.3042 9.63111C18.8452 10.9575 19.1156 11.6207 19.6669 12.0238C20.2182 12.4269 20.9418 12.4907 22.3891 12.6182L22.6507 12.6412C25.0194 12.8499 26.2037 12.9542 26.4571 13.6953C26.7105 14.4364 25.831 15.2234 24.0719 16.7974L23.4849 17.3228C22.5944 18.1196 22.1492 18.518 21.9416 19.0401C21.9029 19.1375 21.8707 19.2373 21.8453 19.3389C21.7089 19.8832 21.8393 20.4612 22.1 21.6171L22.1812 21.9769C22.6604 24.1013 22.9 25.1635 22.4817 25.6216C22.3253 25.7928 22.1222 25.9161 21.8964 25.9767C21.2924 26.1388 20.4348 25.4515 18.7197 24.0769C17.5935 23.1743 17.0304 22.723 16.3839 22.6215C16.1296 22.5815 15.8704 22.5815 15.6161 22.6215C14.9696 22.723 14.4065 23.1743 13.2803 24.0769C11.5652 25.4515 10.7076 26.1388 10.1036 25.9767C9.87784 25.9161 9.67466 25.7928 9.51833 25.6216C9.09997 25.1635 9.33958 24.1013 9.8188 21.9769L9.89997 21.6171C10.1607 20.4612 10.2911 19.8832 10.1547 19.3389C10.1293 19.2373 10.0971 19.1375 10.0584 19.0401C9.85084 18.518 9.40561 18.1196 8.51514 17.3228L7.92805 16.7974C6.16899 15.2234 5.28946 14.4364 5.54287 13.6953C5.79629 12.9542 6.98062 12.8499 9.34928 12.6412L9.61092 12.6182C11.0582 12.4907 11.7818 12.4269 12.3331 12.0238C12.8844 11.6207 13.1548 10.9575 13.6958 9.6311L13.7404 9.52177Z"
        stroke="currentColor" stroke-width="1.5" />
</svg>
