<svg viewBox="0 0 32 32" fill="none" xmlns="http://www.w3.org/2000/svg">
    <path
        d="M13.6066 12.4V12.6933C14.567 13.0632 15.3673 13.759 15.868 14.6594C16.3686 15.5597 16.5378 16.6075 16.3461 17.62C16.1544 18.6325 15.6138 19.5455 14.8188 20.1997C14.0237 20.854 13.0246 21.208 11.9956 21.2H6.28417C5.26748 21.1747 4.29106 20.7969 3.52144 20.1311C2.75182 19.4653 2.23668 18.5527 2.06389 17.549C1.89109 16.5452 2.07134 15.5126 2.5739 14.6271C3.07645 13.7416 3.87017 13.0582 4.81969 12.6933V12.4C4.81969 11.233 5.28257 10.1139 6.1065 9.28873C6.93043 8.46357 8.04792 8 9.21313 8C10.3783 8 11.4958 8.46357 12.3198 9.28873C13.1437 10.1139 13.6066 11.233 13.6066 12.4ZM9.21313 21.2V30V21.2Z"
        fill="currentColor" />
    <path
        d="M9.21313 21.2V30M13.6066 12.4V12.6933C14.567 13.0632 15.3673 13.759 15.868 14.6594C16.3686 15.5597 16.5378 16.6075 16.3461 17.62C16.1544 18.6325 15.6138 19.5455 14.8188 20.1997C14.0237 20.854 13.0246 21.208 11.9956 21.2H6.28417C5.26748 21.1747 4.29106 20.7969 3.52144 20.1311C2.75182 19.4653 2.23668 18.5527 2.06389 17.549C1.89109 16.5452 2.07134 15.5126 2.5739 14.6271C3.07645 13.7416 3.87017 13.0582 4.81969 12.6933V12.4C4.81969 11.233 5.28257 10.1139 6.1065 9.28873C6.93043 8.46357 8.04792 8 9.21313 8C10.3783 8 11.4958 8.46357 12.3198 9.28873C13.1437 10.1139 13.6066 11.233 13.6066 12.4Z"
        stroke="currentColor" stroke-width="1.5" stroke-linecap="round" stroke-linejoin="round" />
    <path
        d="M19.4798 4.01347C18.3824 4.09483 17.3409 4.54228 16.5398 5.28943L14.0819 6.93984C13.9001 7.06195 13.7807 7.25744 13.7551 7.47498C13.7296 7.69252 13.8004 7.91036 13.949 8.07129C14.6653 8.84712 15.75 10.2199 15.75 11.7812C15.75 12.0915 15.9411 12.3698 16.2306 12.4812C17.074 12.8058 18.75 14.3975 18.75 17.4062C18.75 18.9315 18.2018 20.008 17.5522 20.7179C16.8786 21.454 16.1195 21.7742 15.7488 21.8176C15.3709 21.8618 15.0859 22.182 15.0859 22.5625V25.2763C15.0859 25.6905 15.4217 26.0263 15.8359 26.0263H19.0938V29.125C19.0938 29.5392 19.4296 29.875 19.8438 29.875C20.258 29.875 20.5938 29.5392 20.5938 29.125V26.0263H25.1876L25.1905 26.0263C26.4759 26.0214 27.7294 25.6243 28.7697 24.8882C29.8104 24.1518 30.5856 23.1128 30.977 21.9176L30.9786 21.9128C31.3673 20.6979 31.3377 19.3943 30.8945 18.1973C30.5459 17.2558 29.9572 16.4226 29.1915 15.7695C30.2582 14.1387 30.119 12.0816 29.3371 10.4547C29.3265 10.4327 29.3148 10.4111 29.3021 10.3902C28.3548 8.83075 26.4667 7.71446 24.5237 7.76903C24.3493 6.85018 23.8884 5.99999 23.1973 5.33629C22.3029 4.47742 21.0961 4 19.8438 4C19.7351 4 19.6267 4.0036 19.5188 4.01074L19.5 4L19.4798 4.01347Z"
        fill="currentColor" />
</svg>
