<svg width="29" height="42" viewBox="0 0 29 42" fill="none" xmlns="http://www.w3.org/2000/svg">
    <path
        d="M22.4674 9.462V9.98485C24.2083 10.6442 25.659 11.8844 26.5664 13.4893C27.4739 15.0941 27.7806 16.9617 27.4331 18.7665C27.0855 20.5712 26.1058 22.1986 24.6647 23.3647C23.2236 24.5309 21.4126 25.1619 19.5475 25.1477H9.19506C7.35224 25.1026 5.5824 24.4292 4.18741 23.2424C2.79242 22.0556 1.85869 20.4289 1.54549 18.6398C1.23228 16.8507 1.559 15.0101 2.46992 13.4317C3.38083 11.8534 4.81951 10.6352 6.54058 9.98485V9.462C6.54058 7.38194 7.37959 5.38708 8.87302 3.91626C10.3665 2.44544 12.392 1.61914 14.504 1.61914C16.616 1.61914 18.6416 2.44544 20.135 3.91626C21.6284 5.38708 22.4674 7.38194 22.4674 9.462ZM14.504 25.1477V40.8334V25.1477Z"
        fill="currentColor" />
    <path
        d="M14.504 25.1477V40.8334M22.4674 9.462V9.98485C24.2083 10.6442 25.659 11.8844 26.5664 13.4893C27.4739 15.0941 27.7806 16.9617 27.4331 18.7665C27.0855 20.5712 26.1058 22.1986 24.6647 23.3647C23.2236 24.5309 21.4126 25.1619 19.5475 25.1477H9.19506C7.35224 25.1026 5.5824 24.4292 4.18741 23.2424C2.79242 22.0556 1.85869 20.4289 1.54549 18.6398C1.23228 16.8508 1.559 15.0101 2.46992 13.4317C3.38083 11.8534 4.81951 10.6352 6.54058 9.98485V9.462C6.54058 7.38194 7.37959 5.38708 8.87302 3.91626C10.3665 2.44544 12.392 1.61914 14.504 1.61914C16.616 1.61914 18.6416 2.44544 20.135 3.91626C21.6284 5.38708 22.4674 7.38194 22.4674 9.462Z"
        stroke="currentColor" stroke-width="2.17857" stroke-linecap="round" stroke-linejoin="round" />
</svg>