<svg viewBox="0 0 32 32" fill="none" xmlns="http://www.w3.org/2000/svg">
    <path
        d="M9.21313 21.2V30M13.6066 12.4V12.6933C14.567 13.0632 15.3673 13.759 15.868 14.6594C16.3686 15.5597 16.5378 16.6075 16.3461 17.62C16.1544 18.6325 15.6138 19.5455 14.8188 20.1997C14.0237 20.854 13.0246 21.208 11.9956 21.2H6.28417C5.26748 21.1747 4.29106 20.7969 3.52144 20.1311C2.75182 19.4653 2.23668 18.5527 2.06389 17.549C1.89109 16.5452 2.07134 15.5126 2.5739 14.6271C3.07645 13.7416 3.87017 13.0582 4.81969 12.6933V12.4C4.81969 11.233 5.28257 10.1139 6.1065 9.28873C6.93043 8.46357 8.04792 8 9.21313 8C10.3783 8 11.4958 8.46357 12.3198 9.28873C13.1437 10.1139 13.6066 11.233 13.6066 12.4Z"
        stroke="currentColor" stroke-width="1.5" stroke-linecap="round" stroke-linejoin="round" />
    <path
        d="M15.3359 25.8947H24.6876C25.8212 25.8902 26.9239 25.5165 27.8365 24.8277C28.7491 24.139 29.4242 23.1708 29.7642 22.0632C30.1019 20.9378 30.0762 19.7309 29.6912 18.6216C29.3061 17.5123 28.5822 16.5597 27.6267 15.9053C28.9627 14.4 28.9627 12.2105 28.1611 10.4316C27.2259 8.78947 25.222 7.69474 23.3517 8.10526C23.3517 7.01648 22.9294 5.97229 22.1778 5.2024C21.4262 4.43252 20.4068 4 19.3438 4C18.2808 4 17.2614 4.43252 16.5098 5.2024M19.3438 25.8947V30"
        stroke="currentColor" stroke-width="1.5" stroke-linecap="round" stroke-linejoin="round" />
</svg>
