<svg viewBox="0 0 40 40" fill="none" xmlns="http://www.w3.org/2000/svg" stroke="currentColor">
    <path d="M20.0025 24V37.5M26.8563 10.5V10.95C28.3546 11.5175 29.6031 12.5849 30.3841 13.9661C31.1651 15.3473 31.4291 16.9547 31.13 18.508C30.8308 20.0612 29.9876 21.4618 28.7473 22.4655C27.5071 23.4692 25.9484 24.0122 24.3432 24H15.4333C13.8473 23.9611 12.3241 23.3816 11.1234 22.3602C9.92284 21.3387 9.11923 19.9387 8.84967 18.399C8.5801 16.8592 8.86129 15.275 9.64528 13.9166C10.4293 12.5582 11.6675 11.5097 13.1487 10.95V10.5C13.1487 8.70979 13.8708 6.9929 15.1561 5.72703C16.4415 4.46116 18.1848 3.75 20.0025 3.75C21.8202 3.75 23.5635 4.46116 24.8488 5.72703C26.1342 6.9929 26.8563 8.70979 26.8563 10.5Z"
          stroke-width="1.75781" stroke-linecap="round" stroke-linejoin="round"/>
</svg>
