<svg width="29" height="31" viewBox="0 0 29 31" fill="none" xmlns="http://www.w3.org/2000/svg">
    <path
        d="M24.4584 10.4627V10.4652C25.5083 11.8488 26.266 13.4492 26.643 15.1816C26.8226 16.0073 26.92 16.8642 26.92 17.7397C26.92 19.5617 26.5114 21.2916 25.7752 22.8522C23.7437 27.1638 19.2203 30.1603 13.9594 30.1603C6.79978 30.1603 1 24.6032 1 17.7384C1 16.5379 1.17709 15.3796 1.51104 14.2811C3.06819 9.10516 8.05207 5.32031 13.9594 5.32031H14.0239"
        stroke="currentColor" stroke-width="1.5" stroke-linecap="round" stroke-linejoin="round" />
    <path
        d="M2.08008 14.0825L2.12925 14.2969C3.22574 18.5718 5.41627 18.5718 6.51276 18.0383C7.89935 17.3607 6.76353 14.972 8.15012 14.2969C9.24661 13.7634 11.9854 14.8303 11.4371 12.1594C11.1347 10.6786 9.79486 9.49348 10.8889 8.96005C11.9854 8.42415 13.6301 10.0282 14.7242 8.42415C14.9331 8.12601 15.0266 7.80201 15.0401 7.4854V7.48047"
        stroke="currentColor" stroke-width="1.5" stroke-linecap="round" stroke-linejoin="round" />
    <path
        d="M9.89239 20.518C9.89239 20.518 11.5541 21.0289 12.1055 22.0543C12.6594 23.0773 14.3584 22.0448 14.8725 23.0773C15.4264 24.1877 14.5223 24.6514 13.4406 24.8697C12.6569 25.0254 12.1167 25.6095 12.0111 26.4909C11.9552 26.957 11.2834 27.075 10.9977 26.6845C10.794 26.406 10.599 26.0603 10.4463 25.6367C9.89239 24.1003 8.17479 23.993 7.67926 23.0785C7.12784 22.0555 7.67926 20.0082 9.89239 20.5203V20.518Z"
        stroke="currentColor" stroke-width="1.5" stroke-linecap="round" stroke-linejoin="round" />
    <path
        d="M17.7308 9.63965C17.9239 10.3404 18.1535 10.9466 17.1808 11.967C16.3505 12.8468 14.7571 13.5808 15.0822 15.2969C15.6074 18.0693 17.1808 16.9593 18.7565 17.5156C20.3252 18.0693 20.2392 19.6882 19.807 20.843C19.3465 22.0438 19.4796 22.9338 19.8718 23.421C20.3794 24.0514 21.8326 23.4453 22.4226 22.5079C22.5027 22.3801 22.5722 22.2471 22.6299 22.1115C23.3447 20.4389 22.6075 18.0425 22.9479 16.9593C23.3659 15.6473 24.7509 14.6831 25.8391 14.3327"
        stroke="currentColor" stroke-width="1.5" stroke-linecap="round" stroke-linejoin="round" />
    <path
        d="M24.2835 9.73374L26.8748 7.26186C28.3763 5.82974 28.3763 3.50622 26.8748 2.07409C26.1254 1.35803 25.1394 1.00123 24.1534 1.00123C23.1675 1.00123 22.1865 1.35803 21.4345 2.07409L20.9828 2.50692L20.5286 2.07409C19.0271 0.641969 16.5935 0.641969 15.0883 2.07409C14.3363 2.79015 13.9609 3.7306 13.9609 4.66736C13.9609 5.46435 14.2325 6.26134 14.7767 6.92222C14.8693 7.03993 14.9732 7.15396 15.087 7.26063L17.8272 9.87475L20.9816 12.88L24.2823 9.73129L24.2835 9.73374Z"
        stroke="currentColor" stroke-width="1.5" stroke-linecap="round" stroke-linejoin="round" />
</svg>