<svg viewBox="0 0 44 44" stroke="currentColor" fill="none" xmlns="http://www.w3.org/2000/svg">
<path d="M36.0885 11L33.3997 13.0167C32.765 13.4927 31.993 13.75 31.1997 13.75H25.0427C23.9472 13.75 22.9457 14.3689 22.4558 15.3488V15.3488C21.8512 16.5579 22.1649 18.0246 23.2112 18.8807L26.8779 21.8806C29.7634 24.2416 31.2567 27.9034 30.845 31.6089L30.8084 31.9379C30.6625 33.251 30.3398 34.5385 29.8491 35.7653L28.7552 38.5" stroke-width="1.83333"/>
<path d="M4.92188 19.2493L10.8584 18.2599C13.3401 17.8463 15.4916 19.9978 15.078 22.4795L14.8314 23.9591C14.3898 26.6083 15.7277 29.2356 18.1299 30.4367V30.4367C20.0534 31.3984 21.0508 33.5671 20.5292 35.6534L19.5885 39.416" stroke-width="1.83333"/>
<circle cx="22.3411" cy="21.9993" r="17.4167" stroke-width="1.83333"/>
</svg>
