<svg viewBox="0 0 40 40" fill="none" xmlns="http://www.w3.org/2000/svg"><path fill-rule="evenodd" clip-rule="evenodd" d="M19.447 13.106A1 1 0 0 1 20 14v16a1 1 0 0 1-1 1h-4a1 1 0 0 1-1-1V17a1 1 0 0 1 .4-.8l4-3a1 1 0 0 1 1.047-.094ZM16 17.5V29h2V16l-2 1.5Z" fill="#000"/><path fill-rule="evenodd" clip-rule="evenodd" d="M18.034 13.74a1 1 0 0 1 1.226-.706l13 3.5a1 1 0 0 1 .74.966V30a1 1 0 1 1-2 0V18.266l-12.26-3.3a1 1 0 0 1-.706-1.226ZM11.918 8.091A1 1 0 0 1 12.5 9v20.5a1 1 0 0 1-1 1H8a1 1 0 0 1-1-1V12a1 1 0 0 1 .35-.76l3.5-3a1 1 0 0 1 1.068-.149ZM9 12.46V28.5h1.5V11.174L9 12.46Z" fill="#000"/><path fill-rule="evenodd" clip-rule="evenodd" d="M22 13.71 11.171 9.946l.658-1.89L24 12.29v2.427h-2V13.71Z" fill="#000"/><path d="M22.21 18.25c0 .503.353.937.845 1.04l4.373.907a.84.84 0 0 0 .422-1.623l-4.263-1.335a1.06 1.06 0 0 0-1.377 1.012ZM22.21 22.163c0 .536.413.982.948 1.023l4.418.337a.801.801 0 0 0 .203-1.587l-4.361-.784a1.026 1.026 0 0 0-1.208 1.01ZM22.21 25.828c0 .522.423.944.944.944h4.468a.816.816 0 0 0 .046-1.631l-4.46-.255a.944.944 0 0 0-.998.942ZM27.493 28.602h-4.338a.945.945 0 1 0 0 1.89h4.338a.945.945 0 0 0 0-1.89Z" fill="#000"/></svg>