<svg width="40" height="40" fill="none" xmlns="http://www.w3.org/2000/svg"><path d="m30.64 20.877 1.813-1.813c1.631-1.54 1.45-2.991 1.178-3.444-.09-.544-.906-1.813-3.081-2.085l-16.495-1.45c-1.541-.09-2.447.363-2.81.907l-2.084-.272c-.272-.272-.544-.544-.907-.635l-3.081-.997c-.906-.272-1.813.09-2.085.997s.09 1.813.997 2.085l3.082.997c.09 0 .362.09.543.09.363 0 .816-.09.998-.362l1.812.272c.09.634.363 1.45.907 2.084.271.363 2.446 3.444 4.35 5.166l.09 4.894c0 .816.544 1.45 1.27 1.541l1.45.363h.724c.544-.091.997-.544 1.27-1.179l.905-2.99h.635c.816 0 1.45-.091 1.813-.272.271 0 .543-.091.815-.091v.09a4.255 4.255 0 0 0 4.26 4.26 4.255 4.255 0 0 0 4.26-4.26c.09-1.812-1.088-3.353-2.629-3.896Zm-11.872 5.89-.635-.09-.09-2.719c.362.272.906.363 1.45.634l-.725 2.175Zm4.803-4.078c-.906.272-1.813.272-2.538 0-1.812-.362-2.447-.906-3.444-1.813-1.903-1.45-4.35-4.984-4.35-4.984v-.09c-.362-.545-.544-.998-.363-1.18.182-.18.273-.271.816-.271h.272l16.495 1.45c.816 0 1.178.272 1.178.544.09.272 0 .634-.634 1.269 0 0-1.813 1.903-3.444 3.262-.635.544-1.903 1.27-2.538 1.541-.544 0-.906.09-1.45.272Zm5.529 4.26a2.051 2.051 0 0 1-2.085-2.085c0-1.178.906-2.084 2.085-2.084a2.05 2.05 0 0 1 2.084 2.084c0 .997-.906 2.085-2.084 2.085Z" fill="#000"/></svg>