<svg class="tds-svg-icon--fill" viewBox="0 0 24 24" xmlns="http://www.w3.org/2000/svg"><path d="M18 6.5c0 .313-.057.612-.162.888.353.224.646.534.85.9l2.886.215a1 1 0 0 1 .831 1.423l-2.917 6.198a5.696 5.696 0 0 1-.105.213 3 3 0 0 0-4.357 3.055 5.76 5.76 0 0 1-2.788-.314l-1.974 1.382c-.755.528-1.761-.158-1.546-1.053l.644-2.674a5.785 5.785 0 0 1-.586-1.242L7.28 11H4.5a1 1 0 0 1-.768-.36l-2.5-3 1.536-1.28L4.968 9H7v-.5a1 1 0 0 1 1.074-.997l2.072.153a2.501 2.501 0 0 1 2.893-1.598A2.5 2.5 0 0 1 18 6.5ZM18 21a2 2 0 1 0 0-4 2 2 0 0 0 0 4Z"/></svg>