<svg viewBox="0 0 32 32" fill="currentColor" xmlns="http://www.w3.org/2000/svg">
    <path clip-rule="evenodd"
        d="m1.643 8.854 3.333 4c.253.304.628.48 1.024.48h3.706l1.996 5.987a7.71 7.71 0 0 0 .78 1.657l-.857 3.564c-.288 1.194 1.055 2.109 2.06 1.405l2.633-1.843a7.68 7.68 0 0 0 3.716.418 3.983 3.983 0 0 1 .77-2.928 5.04 5.04 0 0 1-6.572-3.116L12 11.784v-.348l14.635 1.084-3.064 6.51a5.032 5.032 0 0 1-.742 1.144A4 4 0 0 1 24 20c.665 0 1.292.162 1.843.45.05-.094.096-.189.141-.285l3.89-8.264a1.333 1.333 0 0 0-1.109-1.897l-18-1.334A1.333 1.333 0 0 0 9.334 10v.667h-2.71l-2.933-3.52-2.048 1.707ZM24 26.667a2.667 2.667 0 1 0 0-5.334 2.667 2.667 0 0 0 0 5.334Z" />
</svg>