<svg class="tds-svg-icon--fill" viewBox="0 0 24 24" xmlns="http://www.w3.org/2000/svg"><path d="m1.232 6.64 2.5 3A1 1 0 0 0 4.5 10h2.78l1.496 4.49c.148.445.346.861.586 1.244l-.644 2.673c-.215.895.792 1.581 1.546 1.053l1.974-1.382a5.76 5.76 0 0 0 2.787.313 2.986 2.986 0 0 1 .578-2.196 3.78 3.78 0 0 1-4.93-2.337L9 8.838v-.261l10.976.813-2.297 4.882a3.778 3.778 0 0 1-.557.859 3.002 3.002 0 0 1 2.26.206c.037-.07.072-.141.106-.213l2.917-6.198a1 1 0 0 0-.831-1.423l-13.5-1A1 1 0 0 0 7 7.5V8H4.97l-2.2-2.64-1.537 1.28ZM18 20a2 2 0 1 0 0-4 2 2 0 0 0 0 4Z"/></svg>