<svg class="tds-svg-icon--fill" viewBox="0 0 24 24" xmlns="http://www.w3.org/2000/svg"><path d="M17.838 7.388a2.5 2.5 0 1 0-4.799-1.33 2.501 2.501 0 0 0-2.893 1.598l-2.072-.153A1 1 0 0 0 7 8.5V9H4.97l-2.2-2.64-1.537 1.28 2.5 3A1 1 0 0 0 4.5 11h2.78l1.496 4.49c.148.445.346.86.586 1.243l-.644 2.674c-.216.895.791 1.581 1.546 1.053l1.974-1.382a5.76 5.76 0 0 0 2.787.313 2.987 2.987 0 0 1 .578-2.196 3.78 3.78 0 0 1-4.93-2.337L9 9.838v-.261l1.291.095c.022.04.044.08.067.118l-.023-.114 9.641.714-2.297 4.882a3.778 3.778 0 0 1-.557.859 3.001 3.001 0 0 1 2.26.206c.037-.07.072-.141.106-.213l2.917-6.198a1 1 0 0 0-.831-1.423l-2.886-.214a2.512 2.512 0 0 0-.85-.901ZM18 21a2 2 0 1 0 0-4 2 2 0 0 0 0 4Z"/></svg>