<svg class="tds-svg-icon--fill" viewBox="0 0 40 40" xmlns="http://www.w3.org/2000/svg"><path fill-rule="evenodd" clip-rule="evenodd" d="m11.211 23.76-1.792.259a2.278 2.278 0 0 0-1.967 2.271 2.352 2.352 0 0 0 2.376 2.384h.004l19.632.045h.002c1.686-.002 3.081-1.404 3.081-3.055 0-1.359-.903-2.521-2.178-2.933l-1.449-.467v-1.746c0-2.969-2.432-5.427-5.427-5.427a5.303 5.303 0 0 0-4.854 3.141l-.913 2.061-1.987-1.064a2.961 2.961 0 0 0-1.445-.379c-1.687 0-3.083 1.403-3.083 3.055v1.855Zm-1.383 7.005 19.636.045c2.83 0 5.174-2.327 5.174-5.146 0-2.327-1.548-4.251-3.627-4.923v-.223c0-4.117-3.361-7.518-7.518-7.518a7.4 7.4 0 0 0-6.766 4.385 5.547 5.547 0 0 0-.78-.345 4.933 4.933 0 0 0-1.653-.281c-2.83 0-5.174 2.327-5.174 5.146v.045a4.369 4.369 0 0 0-3.759 4.34 4.443 4.443 0 0 0 4.467 4.475Z"/></svg>