<svg class="tds-svg-icon--fill" viewBox="0 0 24 24" xmlns="http://www.w3.org/2000/svg"><path d="M9.702 6.905a5.798 5.798 0 0 1 4.553-2.202c3.362 0 5.985 2.843 5.801 6.125 1.328.86 2.178 2.33 2.182 3.951v.003c0 2.626-2.153 4.741-4.776 4.741H6.742A4.747 4.747 0 0 1 2 14.785c0-1.643.873-3.134 2.234-3.989a4.712 4.712 0 0 1 1.99-3.122 4.71 4.71 0 0 1 3.478-.77Zm4.553-.202a3.8 3.8 0 0 0-3.264 1.848l-.41.683-.757-.246c-.876-.284-1.747-.16-2.466.334a2.716 2.716 0 0 0-1.186 2.141l-.026.605-.547.258C4.619 12.786 4 13.75 4 14.786c0 .184.017.36.052.525l.002.01a2.747 2.747 0 0 0 2.687 2.202h10.721c1.537 0 2.776-1.237 2.776-2.74-.003-1.059-.648-2.037-1.66-2.487l-.718-.32.141-.774a3.814 3.814 0 0 0-3.746-4.5Z"/></svg>