<svg class="tds-svg-icon--fill" viewBox="0 0 40 40" xmlns="http://www.w3.org/2000/svg"><path fill-rule="evenodd" clip-rule="evenodd" d="m10.85 21.76-1.792.26a2.278 2.278 0 0 0-1.967 2.27 2.352 2.352 0 0 0 2.376 2.384h.004l19.631.044h.003c1.686 0 3.08-1.403 3.08-3.054 0-1.359-.902-2.52-2.177-2.933l-1.449-.467v-1.746c0-2.969-2.432-5.427-5.427-5.427a5.303 5.303 0 0 0-4.854 3.141l-.913 2.06-1.987-1.063a2.96 2.96 0 0 0-1.445-.379c-1.687 0-3.083 1.403-3.083 3.055v1.855Zm-1.383 7.005 19.636.045c2.83 0 5.174-2.327 5.174-5.146 0-2.327-1.548-4.251-3.627-4.923v-.223C30.65 14.4 27.29 11 23.132 11a7.399 7.399 0 0 0-6.766 4.385 5.54 5.54 0 0 0-.78-.345 4.933 4.933 0 0 0-1.653-.281c-2.83 0-5.174 2.327-5.174 5.146v.045A4.37 4.37 0 0 0 5 24.29a4.443 4.443 0 0 0 4.467 4.475Z"/></svg>