<svg xmlns="http://www.w3.org/2000/svg" viewBox="0 0 24 24" fill="currentColor">
    <path d="M17.0133 9.27248C16.9598 8.7228 16.4708 8.32056 15.9211 8.37407C15.3714 8.42758 14.9692 8.91656 15.0227 9.46625C15.0694 9.94562 14.9789 10.2307 14.8641 10.4231C14.7403 10.6305 14.5307 10.8253 14.1912 11.0249C13.8435 11.2293 13.4314 11.3991 12.9376 11.5989L12.8906 11.6179C12.4362 11.8016 11.9067 12.0157 11.4332 12.2905C11.3459 12.3411 11.2236 12.4073 11.0768 12.4867C10.5691 12.7615 9.76937 13.1942 9.12204 13.686C8.69366 14.0115 8.24325 14.4238 7.93616 14.9249C7.61516 15.4487 7.42676 16.1175 7.64725 16.8512C7.8062 17.3801 8.36383 17.6801 8.89274 17.5211C9.42166 17.3622 9.72158 16.8045 9.56263 16.2756C9.54694 16.2234 9.53476 16.144 9.64144 15.9699C9.76202 15.7731 9.99075 15.5378 10.332 15.2785C10.8419 14.8911 11.4088 14.5838 11.9054 14.3147C12.0952 14.2118 12.2748 14.1145 12.437 14.0204C12.7809 13.8208 13.1903 13.6541 13.6876 13.4529L13.7023 13.447C14.1673 13.2589 14.7134 13.038 15.2048 12.749C15.7097 12.4522 16.2242 12.0465 16.5813 11.4484C16.9474 10.8352 17.0948 10.1097 17.0133 9.27248Z" />
    <path fill-rule="evenodd" clip-rule="evenodd" d="M19.4053 5.69074C16.0321 2.36365 10.1984 3.36391 6.4147 7.20008C2.63097 11.0362 1.7111 16.8831 5.0843 20.2102C8.45749 23.5373 14.2911 22.537 18.0749 18.7008C21.8586 14.8647 22.7785 9.01782 19.4053 5.69074ZM7.83861 8.60452C11.1885 5.20823 15.7207 4.86569 18.0008 7.11465C20.281 9.36361 20.0008 13.9001 16.651 17.2964C13.3011 20.6927 8.76888 21.0352 6.48875 18.7863C4.20861 16.5373 4.48874 12.0008 7.83861 8.60452Z" />
</svg>