<svg class="tds-svg-icon--fill" viewBox="0 0 40 40" xmlns="http://www.w3.org/2000/svg"><path d="M30.011 17.461h-2.165c-.27 0-.675-.134-.81-.535-.135-.267 0-.668.135-.801l1.488-1.47c.27-.268.27-.535.27-.802 0-.268-.135-.534-.27-.802l-1.895-1.87c-.405-.402-1.217-.402-1.624 0l-1.486 1.469c-.137.134-.407.267-.542.267-.272 0-.406-.133-.541-.267-.136-.133-.271-.267-.271-.535V9.977c0-.668-.542-1.202-1.218-1.202h-2.706c-.676 0-1.217.534-1.217 1.202v2.138c0 .535-.406.802-.813.802-.135 0-.406 0-.54-.267l-1.218-1.469c-.406-.402-1.217-.402-1.624 0l-1.894 1.87c-.27.268-.27.534-.27.802 0 .267.135.534.27.802l1.488 1.47c.271.267.271.534.135.801-.135.268-.404.535-.811.535H9.717c-.675 0-1.217.534-1.217 1.203v2.672c0 .668.542 1.202 1.217 1.202h2.165c.27 0 .676.134.811.536.136.266 0 .668-.135.8l-1.488 1.47c-.27.268-.27.536-.27.802 0 .268.135.536.27.802l1.894 1.871c.407.401 1.218.401 1.624 0l1.488-1.469c.135-.134.406-.268.542-.268.405 0 .811.268.811.802v2.138c0 .668.541 1.202 1.217 1.202h2.707c.677 0 1.218-.534 1.218-1.202v-2.138c0-.534.405-.802.811-.802.135 0 .407 0 .542.268l1.488 1.469c.406.401 1.217.401 1.624 0l1.893-1.871c.271-.266.271-.534.271-.802 0-.266-.135-.534-.271-.802l-1.487-1.47c-.271-.266-.271-.534-.136-.8.136-.268.405-.536.812-.536h2.165c.675 0 1.217-.534 1.217-1.202v-2.672c-.27-.669-.811-1.203-1.489-1.203ZM23.924 20c0 2.138-1.759 4.008-4.059 4.008-2.165 0-4.059-1.736-4.059-4.008 0-2.138 1.758-4.009 4.059-4.009 2.3 0 4.059 1.737 4.059 4.009Z"/></svg>