<svg width="24" height="25" viewBox="0 0 24 25" fill="none" xmlns="http://www.w3.org/2000/svg">
<g clip-path="url(#clip0_511_11216)">
<path d="M19 22.6323H5C4.20435 22.6323 3.44129 22.3163 2.87868 21.7536C2.31607 21.191 2 20.428 2 19.6323V3.63232C2 3.36711 2.10536 3.11275 2.29289 2.92522C2.48043 2.73768 2.73478 2.63232 3 2.63232H17C17.2652 2.63232 17.5196 2.73768 17.7071 2.92522C17.8946 3.11275 18 3.36711 18 3.63232V15.6323H22V19.6323C22 20.428 21.6839 21.191 21.1213 21.7536C20.5587 22.3163 19.7956 22.6323 19 22.6323ZM18 17.6323V19.6323C18 19.8975 18.1054 20.1519 18.2929 20.3394C18.4804 20.527 18.7348 20.6323 19 20.6323C19.2652 20.6323 19.5196 20.527 19.7071 20.3394C19.8946 20.1519 20 19.8975 20 19.6323V17.6323H18ZM16 20.6323V4.63232H4V19.6323C4 19.8975 4.10536 20.1519 4.29289 20.3394C4.48043 20.527 4.73478 20.6323 5 20.6323H16ZM6 7.63232H14V9.63232H6V7.63232ZM6 11.6323H14V13.6323H6V11.6323ZM6 15.6323H11V17.6323H6V15.6323Z" fill="#02437D"/>
</g>
<defs>
<clipPath id="clip0_511_11216">
<rect width="24" height="24" fill="currentColor" transform="translate(0 0.632324)"/>
</clipPath>
</defs>
</svg>
