<svg class="tds-svg-icon--fill" viewBox="0 0 40 40" xmlns="http://www.w3.org/2000/svg"><path fill-rule="evenodd" clip-rule="evenodd" d="M10.483 11.483c-.331 0-.632.077-.891.211A3.855 3.855 0 0 0 7 15.337v11.327a3.855 3.855 0 0 0 3.854 3.854h18.292A3.855 3.855 0 0 0 33 26.664V15.337a3.856 3.856 0 0 0-3.751-3.854H10.483Zm19.898 3.496-9.153 7.911a2.571 2.571 0 0 1-3.428-.059l-8.225-7.635a1.623 1.623 0 0 0-.007.141v11.327c0 .71.575 1.286 1.286 1.286h18.292c.709 0 1.286-.576 1.286-1.286V15.337c0-.124-.019-.245-.051-.358Zm-18.263-.928 7.429 6.895 7.978-6.895H12.118Z"/></svg>