<svg class="tds-svg-icon--fill" viewBox="0 0 40 40" style="fill-rule:evenodd;clip-rule:evenodd;stroke-linejoin:round;stroke-miterlimit:2" xmlns="http://www.w3.org/2000/svg"><path d="m18.459 29.58-2.287-.664a.451.451 0 0 1-.308-.559l5.118-17.631a.45.45 0 0 1 .559-.307l2.287.663c.24.068.375.319.308.559l-5.118 17.631a.45.45 0 0 1-.559.308Zm-4.275-4.207 1.631-1.74a.449.449 0 0 0-.03-.645l-3.397-2.989 3.397-2.988a.446.446 0 0 0 .03-.645l-1.631-1.74a.45.45 0 0 0-.637-.019l-5.404 5.062a.447.447 0 0 0 0 .656l5.404 5.066a.447.447 0 0 0 .637-.018Zm12.269.022 5.404-5.066a.447.447 0 0 0 0-.656l-5.404-5.07a.454.454 0 0 0-.637.019l-1.631 1.74a.449.449 0 0 0 .03.645l3.397 2.992-3.397 2.989a.446.446 0 0 0-.03.645l1.631 1.74a.45.45 0 0 0 .637.022Z"/></svg>