<svg viewBox="0 0 40 41" xmlns="http://www.w3.org/2000/svg" xml:space="preserve" style="fill-rule:evenodd;clip-rule:evenodd;stroke-linejoin:round;stroke-miterlimit:2"><path d="m34.174 24.233 2.79-12.278a1.417 1.417 0 0 0-1.381-1.73H12.398l-.541-2.645a1.417 1.417 0 0 0-1.388-1.133H4.417C3.634 6.447 3 7.08 3 7.864v.944c0 .782.634 1.417 1.417 1.417h4.125l4.146 20.272a3.306 3.306 0 1 0 3.958.506H29.02a3.306 3.306 0 1 0 3.754-.614l.326-1.434a1.417 1.417 0 0 0-1.382-1.73H15.875l-.386-1.89h17.303c.662 0 1.235-.457 1.382-1.102Z" fill="#fff"/></svg>