<svg viewBox="0 0 40 40" xmlns="http://www.w3.org/2000/svg" xml:space="preserve" style="fill-rule:evenodd;clip-rule:evenodd;stroke-linejoin:round;stroke-miterlimit:2"><path d="M20 6.778c-9.389 0-17 7.61-17 17 0 3.116.841 6.036 2.306 8.547.33.568.962.897 1.62.897h26.149c.657 0 1.288-.33 1.62-.897A16.912 16.912 0 0 0 37 23.778c0-9.39-7.611-17-17-17Zm0 3.778c.868 0 1.569.598 1.79 1.396-.066.133-.156.25-.204.393l-.544 1.634c-.303.206-.648.354-1.041.354A1.89 1.89 0 0 1 20 10.556Zm-11.333 17a1.89 1.89 0 1 1 0-3.779 1.89 1.89 0 0 1 0 3.779ZM11.5 18.11a1.89 1.89 0 1 1 0-3.778 1.89 1.89 0 0 1 0 3.778Zm14.566-4.274-3.62 10.861a3.754 3.754 0 0 1 1.332 2.858c0 .691-.2 1.33-.524 1.888h-6.508a3.738 3.738 0 0 1-.524-1.888c0-2.004 1.564-3.627 3.536-3.754l3.62-10.862a1.417 1.417 0 0 1 2.688.897Zm.866 3.376.916-2.747c.205-.077.42-.132.652-.132a1.89 1.89 0 0 1 0 3.778c-.672 0-1.233-.371-1.568-.899Zm4.401 10.343a1.89 1.89 0 1 1 0-3.779 1.89 1.89 0 0 1 0 3.779Z" fill="#fff"/></svg>