<svg viewBox="0 0 40 41" xmlns="http://www.w3.org/2000/svg" xml:space="preserve" style="fill-rule:evenodd;clip-rule:evenodd;stroke-linejoin:round;stroke-miterlimit:2"><path d="m17.431 36.638-3.812-1.106a.751.751 0 0 1-.512-.931l8.53-29.386a.751.751 0 0 1 .932-.512l3.812 1.106c.4.113.625.531.512.931l-8.53 29.385a.749.749 0 0 1-.932.513Zm-7.124-7.012 2.719-2.9a.75.75 0 0 0-.05-1.075l-5.663-4.98 5.663-4.981a.745.745 0 0 0 .05-1.075l-2.719-2.9a.75.75 0 0 0-1.062-.031L.239 20.12a.745.745 0 0 0 0 1.094l9.006 8.443a.745.745 0 0 0 1.062-.031Zm20.448.037 9.006-8.443a.745.745 0 0 0 0-1.093l-9.006-8.45a.757.757 0 0 0-1.062.032l-2.719 2.9a.75.75 0 0 0 .05 1.074l5.662 4.987-5.662 4.981a.745.745 0 0 0-.05 1.075l2.719 2.9a.75.75 0 0 0 1.062.037Z" fill="#fff"/></svg>