<svg viewBox="0 0 40 40" xmlns="http://www.w3.org/2000/svg" xml:space="preserve" style="fill-rule:evenodd;clip-rule:evenodd;stroke-linejoin:round;stroke-miterlimit:2"><path d="M20 20a8.57 8.57 0 0 0 8.571-8.571A8.57 8.57 0 0 0 20 2.857a8.57 8.57 0 0 0-8.571 8.572A8.57 8.57 0 0 0 20 20Zm-8.036 11.25c0 .89.717 1.607 1.607 1.607.891 0 1.608-.716 1.608-1.607 0-.89-.717-1.607-1.608-1.607-.89 0-1.607.716-1.607 1.607Zm14.465-9.067v3.281a5.365 5.365 0 0 1 4.285 5.25v2.793c0 .509-.361.95-.864 1.051l-2.156.429a.533.533 0 0 1-.63-.422l-.207-1.052a.53.53 0 0 1 .422-.63l1.292-.26v-1.909c0-4.205-6.428-4.36-6.428.128v1.787l1.292.262c.288.06.476.341.422.63l-.207 1.05a.543.543 0 0 1-.63.422l-2.09-.28a1.07 1.07 0 0 1-.923-1.066v-2.933c0-2.585 1.841-4.747 4.285-5.25v-3.026c-.147.046-.294.073-.442.127a11.612 11.612 0 0 1-3.843.656c-1.346 0-2.639-.234-3.844-.656a7.4 7.4 0 0 0-1.513-.348v5.464a3.736 3.736 0 0 1 2.678 3.576c0 2.069-1.68 3.75-3.75 3.75-2.07 0-3.75-1.681-3.75-3.75a3.736 3.736 0 0 1 2.679-3.576v-5.384C8.247 23.013 5 26.683 5 31.143v3c0 1.654 1.346 3 3 3h24c1.654 0 3-1.346 3-3v-3c0-4.822-3.804-8.726-8.571-8.96Z" fill="#fff"/></svg>