<svg viewBox="0 0 40 40" xmlns="http://www.w3.org/2000/svg" xml:space="preserve" style="fill-rule:evenodd;clip-rule:evenodd;stroke-linejoin:round;stroke-miterlimit:2"><path d="M13.25 14.938A3.942 3.942 0 0 1 17.188 11h9.562V5.937c0-.931-.756-1.687-1.688-1.687h-5.667A4.502 4.502 0 0 0 15.5 2a4.502 4.502 0 0 0-3.895 2.25H5.937c-.931 0-1.687.756-1.687 1.688v23.625c0 .931.756 1.687 1.688 1.687h7.312V14.937ZM15.5 4.812a1.687 1.687 0 1 1 0 3.375 1.687 1.687 0 0 1 0-3.374ZM28.438 22.25h7.312v14.063c0 .931-.756 1.687-1.688 1.687H17.189a1.687 1.687 0 0 1-1.688-1.688V14.939c0-.932.756-1.688 1.688-1.688h9.562v7.313c0 .928.76 1.687 1.688 1.687Zm7.312-2.676V20H29v-6.75h.426c.447 0 .877.178 1.193.494l4.637 4.637c.316.316.494.746.494 1.193Z" fill="#fff"/></svg>