<svg class="tds-svg-icon--fill" viewBox="0 0 40 40" style="fill-rule:evenodd;clip-rule:evenodd;stroke-linejoin:round;stroke-miterlimit:2" xmlns="http://www.w3.org/2000/svg"><path d="M30.39 11.444a.62.62 0 0 0-.228.045l-6.495 2.4-6.57-2.319a2.474 2.474 0 0 0-.773-.126c-.255 0-.51.041-.756.12l-5.8 2.017A1.225 1.225 0 0 0 9 14.716v13.228a.612.612 0 0 0 .838.567l6.495-2.4 6.57 2.319a2.452 2.452 0 0 0 1.529.006l5.8-2.017c.463-.186.768-.636.768-1.135V12.056a.612.612 0 0 0-.61-.612Zm-12.834 2.232 4.888 1.726v10.922l-4.888-1.726V13.676Zm-6.723 12.513V15.152l4.889-1.701v10.931l-.024.009-4.865 1.798Zm18.334-1.341-4.889 1.7v-10.93l.024-.01 4.865-1.797v11.037Z"/></svg>