<svg class="tds-svg-icon--fill" viewBox="0 0 40 40" style="fill-rule:evenodd;clip-rule:evenodd;stroke-linejoin:round;stroke-miterlimit:2" xmlns="http://www.w3.org/2000/svg"><path d="M15.875 16.907a2.409 2.409 0 0 1 2.407-2.407h5.843v-3.093c0-.57-.462-1.032-1.031-1.032H19.63A2.75 2.75 0 0 0 17.25 9a2.75 2.75 0 0 0-2.38 1.375h-3.463c-.57 0-1.032.462-1.032 1.032v14.437c0 .569.462 1.031 1.032 1.031h4.468v-9.968Zm1.375-6.188a1.031 1.031 0 1 1 .002 2.062 1.031 1.031 0 0 1-.002-2.062Zm7.907 10.656h4.468v8.594c0 .569-.462 1.031-1.031 1.031H18.282c-.57 0-1.032-.462-1.032-1.031V16.907c0-.57.462-1.032 1.032-1.032h5.843v4.469c0 .567.464 1.031 1.032 1.031Zm4.468-1.635V20H25.5v-4.125h.26c.274 0 .536.109.729.302l2.834 2.834c.193.193.302.456.302.729Z"/></svg>