<svg viewBox="0 0 41 41" xmlns="http://www.w3.org/2000/svg" xml:space="preserve" style="fill-rule:evenodd;clip-rule:evenodd;stroke-linejoin:round;stroke-miterlimit:2"><path d="M26.833 20.085v1.895a.815.815 0 0 1-.812.813H14.646a.815.815 0 0 1-.813-.813v-1.895c0-.447.366-.813.813-.813H26.02c.447 0 .812.366.812.813Zm-.812 4.875H14.646a.815.815 0 0 0-.813.812v1.896c0 .447.366.812.813.812H26.02a.815.815 0 0 0 .812-.812v-1.896a.815.815 0 0 0-.812-.812Zm7.312-12.736V34.71a3.25 3.25 0 0 1-3.25 3.25h-19.5a3.25 3.25 0 0 1-3.25-3.25V6.543a3.25 3.25 0 0 1 3.25-3.25h13.82c.86 0 1.685.345 2.295.955l5.68 5.68c.61.603.955 1.436.955 2.296Zm-8.666-5.417v5.153h5.152l-5.152-5.153Zm5.416 27.903v-19.5h-7.041c-.9 0-1.625-.725-1.625-1.625V6.543H10.583V34.71h19.5Z" fill="#fff"/></svg>