<svg class="tds-svg-icon--fill" viewBox="0 0 40 40" style="fill-rule:evenodd;clip-rule:evenodd;stroke-linejoin:round;stroke-miterlimit:2" xmlns="http://www.w3.org/2000/svg"><path d="m29.171 21.73 1.806-7.944a.917.917 0 0 0-.894-1.12H15.081l-.35-1.711a.916.916 0 0 0-.898-.733H9.917a.916.916 0 0 0-.917.917v.61c0 .507.41.917.917.917h2.669l2.683 13.118a2.138 2.138 0 1 0 2.561.327h8.007a2.138 2.138 0 1 0 3.635 1.528 2.14 2.14 0 0 0-1.206-1.926l.211-.927a.917.917 0 0 0-.894-1.12H17.331l-.25-1.222h11.196a.916.916 0 0 0 .894-.714Z"/></svg>