<svg viewBox="0 0 40 41" xmlns="http://www.w3.org/2000/svg" xml:space="preserve" style="fill-rule:evenodd;clip-rule:evenodd;stroke-linejoin:round;stroke-miterlimit:2"><path d="M37.541 6.737c-.126 0-.257.024-.384.075L26.19 10.864 15.098 6.95a4.143 4.143 0 0 0-2.582-.01l-9.791 3.406a2.067 2.067 0 0 0-1.297 1.916v22.332a1.033 1.033 0 0 0 1.415.958L13.81 31.5l11.09 3.915c.838.28 1.744.283 2.583.01l9.791-3.406a2.067 2.067 0 0 0 1.297-1.916V7.77c0-.592-.485-1.033-1.03-1.033Zm-21.668 3.767 8.254 2.915v18.44l-8.254-2.914v-18.44ZM4.523 31.631V12.997l8.255-2.872v18.456l-.041.014-8.213 3.036Zm30.953-2.265-8.254 2.872V13.783l.041-.016 8.213-3.035v18.634Z" fill="#fff"/></svg>