<svg class="tds-svg-icon--fill" viewBox="0 0 40 40" xmlns="http://www.w3.org/2000/svg"><path d="M28.436 24.5H16.625v-.563a.563.563 0 0 0-.56-.562h-1.129a.563.563 0 0 0-.561.562v.563h-2.81a.563.563 0 0 0-.565.559v1.131c0 .308.253.56.565.56h2.81v.559c0 .312.252.565.561.565h1.129c.308 0 .56-.253.56-.565v-.559h11.811a.563.563 0 0 0 .564-.56v-1.131a.563.563 0 0 0-.564-.559Zm0-5.626h-2.811v-.565a.561.561 0 0 0-.559-.559h-1.132a.561.561 0 0 0-.559.559v.565h-11.81a.567.567 0 0 0-.565.566v1.121c0 .31.253.564.565.564h11.81v.562c0 .311.252.563.559.563h1.132a.562.562 0 0 0 .559-.563v-.562h2.811a.565.565 0 0 0 .564-.564V19.44a.566.566 0 0 0-.564-.566Zm0-5.624h-7.311v-.56a.563.563 0 0 0-.56-.565h-1.129a.564.564 0 0 0-.561.565v.56h-7.31a.563.563 0 0 0-.565.559v1.131c0 .308.253.56.565.56h7.31v.559c0 .313.252.566.561.566h1.129c.308 0 .56-.253.56-.566V15.5h7.311a.563.563 0 0 0 .564-.56v-1.131a.563.563 0 0 0-.564-.559Z"/></svg>