<svg viewBox="0 0 40 40" xmlns="http://www.w3.org/2000/svg" xml:space="preserve" style="fill-rule:evenodd;clip-rule:evenodd;stroke-linejoin:round;stroke-miterlimit:2"><path d="M37.5 29.333H6V7.167C6 6.522 5.478 6 4.833 6H2.5c-.645 0-1.167.522-1.167 1.167v24.5A2.334 2.334 0 0 0 3.667 34H37.5c.645 0 1.167-.522 1.167-1.167V30.5c0-.645-.522-1.167-1.167-1.167Zm-2.333-21h-8.609c-1.559 0-2.34 1.885-1.237 2.988l2.362 2.362-5.35 5.35-5.35-5.349a2.332 2.332 0 0 0-3.299 0l-5.009 5.009a1.167 1.167 0 0 0 0 1.65l1.65 1.65a1.167 1.167 0 0 0 1.65 0l3.358-3.36 5.35 5.35a2.332 2.332 0 0 0 3.3 0l7-7 2.362 2.362c1.103 1.103 2.988.322 2.988-1.237V9.5c0-.645-.522-1.167-1.166-1.167Z" fill="#fff"/></svg>