<svg class="tds-svg-icon--fill" viewBox="0 0 40 40" style="fill-rule:evenodd;clip-rule:evenodd;stroke-linejoin:round;stroke-miterlimit:2" xmlns="http://www.w3.org/2000/svg"><path d="M20 11.445c-6.075 0-11 4.925-11 11 0 2.016.544 3.906 1.492 5.53.214.368.623.581 1.048.581h16.92c.425 0 .834-.213 1.048-.581A10.936 10.936 0 0 0 31 22.445c0-6.075-4.925-11-11-11Zm0 2.445c.562 0 1.015.387 1.158.903-.042.086-.101.162-.132.254l-.352 1.057c-.196.134-.419.23-.673.23A1.221 1.221 0 1 1 20 13.89Zm-7.333 11a1.223 1.223 0 1 1 .001-2.445 1.223 1.223 0 0 1-.001 2.445Zm1.833-6.112a1.222 1.222 0 1 1 0-2.444 1.222 1.222 0 0 1 0 2.444Zm9.425-2.765-2.342 7.027c.523.449.862 1.106.862 1.85 0 .447-.13.861-.339 1.221h-4.212a2.424 2.424 0 0 1-.339-1.221 2.437 2.437 0 0 1 2.288-2.429l2.343-7.029a.917.917 0 0 1 1.739.581Zm.56 2.184.593-1.777c.133-.05.273-.086.422-.086a1.223 1.223 0 0 1 0 2.445c-.435-.001-.798-.24-1.015-.582Zm2.848 6.693a1.223 1.223 0 1 1 .001-2.445 1.223 1.223 0 0 1-.001 2.445Z"/></svg>