<svg class="tds-svg-icon--fill" viewBox="0 0 40 40" style="fill-rule:evenodd;clip-rule:evenodd;stroke-linejoin:round;stroke-miterlimit:2" xmlns="http://www.w3.org/2000/svg"><path d="M20.002 20a5.5 5.5 0 1 0 0-11 5.5 5.5 0 0 0 0 11Zm-5.159 7.218c0 .572.46 1.032 1.032 1.032a1.03 1.03 0 0 0 1.032-1.032c0-.572-.46-1.031-1.032-1.031-.572 0-1.032.459-1.032 1.031Zm9.282-5.816v2.103a3.447 3.447 0 0 1 2.75 3.372v1.79a.693.693 0 0 1-.554.676l-1.384.273a.34.34 0 0 1-.402-.269l-.133-.677a.334.334 0 0 1 .269-.402l.831-.169v-1.222c0-2.7-4.127-2.801-4.127.079v1.146l.83.17a.347.347 0 0 1 .27.402l-.133.676a.347.347 0 0 1-.403.269l-1.34-.179a.683.683 0 0 1-.593-.683v-1.88a3.446 3.446 0 0 1 2.749-3.372v-1.941c-.097.028-.19.046-.284.083a7.487 7.487 0 0 1-2.465.42 7.47 7.47 0 0 1-2.466-.42 4.75 4.75 0 0 0-.975-.223v3.504a2.4 2.4 0 0 1 1.722 2.294 2.409 2.409 0 0 1-2.409 2.409 2.408 2.408 0 0 1-2.404-2.409c0-1.085.726-1.995 1.718-2.294v-3.454c-2.732.46-4.817 2.815-4.817 5.676v1.927c0 1.06.863 1.923 1.927 1.923h15.4c1.06 0 1.923-.863 1.923-1.923V27.15c0-3.096-2.441-5.597-5.5-5.748Z"/></svg>