<svg class="tds-svg-icon--fill" viewBox="0 0 40 40" xmlns="http://www.w3.org/2000/svg"><path d="M13.164 25.778h-2.923a11.264 11.264 0 0 0 4.072 4.034c.111.065.223.128.335.189a23.473 23.473 0 0 1-1.484-4.223Zm-.505-2.667a25.138 25.138 0 0 1-.215-3.287c0-1.059.05-2.036.139-2.935H9.087A11.37 11.37 0 0 0 8.666 20c0 1.081.14 2.118.421 3.111Zm.336-8.889c.377-1.747.898-3.089 1.409-4.087l-.091.053a11.264 11.264 0 0 0-4.072 4.034Zm2.761 0h8.633c-.786-3.279-2.101-4.935-2.536-5.412A11.753 11.753 0 0 0 20 8.666c-.692 0-1.365.058-2.021.172-.675 1.057-1.607 2.848-2.223 5.384Zm11.332 0h2.671a11.273 11.273 0 0 0-3.974-3.977 20.106 20.106 0 0 1 1.303 3.977Zm.429 2.667c.096.912.151 1.89.151 2.935a25.93 25.93 0 0 1-.204 3.287h3.449c.281-.993.421-2.03.421-3.111 0-1.081-.14-2.118-.421-3.111Zm-.548 8.889a20.339 20.339 0 0 1-1.516 4.168 11.264 11.264 0 0 0 4.306-4.168Zm-2.767 0h-8.311c.689 2.512 1.695 4.338 2.429 5.438a11.76 11.76 0 0 0 1.68.118c.672 0 1.328-.054 1.965-.162a23.092 23.092 0 0 0 2.237-5.394Zm.799-5.954c0-1.064-.056-2.041-.155-2.935h-9.567a25.12 25.12 0 0 0-.168 2.935c0 1.174.085 2.271.229 3.287h9.42c.152-1.034.241-2.131.241-3.287ZM36 20c0 2.903-.716 5.58-2.145 8.031a15.916 15.916 0 0 1-5.824 5.824C25.58 35.284 22.903 36 20 36c-2.903 0-5.58-.716-8.031-2.145a15.916 15.916 0 0 1-5.824-5.824C4.716 25.58 4 22.903 4 20c0-2.903.716-5.58 2.145-8.031a15.916 15.916 0 0 1 5.824-5.824C14.42 4.716 17.097 4 20 4c2.903 0 5.58.716 8.031 2.145a15.916 15.916 0 0 1 5.824 5.824C35.284 14.42 36 17.097 36 20Z"/></svg>