<svg class="tds-svg-icon--fill" viewBox="0 0 40 40" xmlns="http://www.w3.org/2000/svg"><path d="M31.279 12.782c.377 0 .697.131.96.394.262.263.394.583.394.959v17.143c0 .378-.132.698-.394.961a1.31 1.31 0 0 1-.96.394H17.744c-.376 0-.695-.132-.958-.394a1.305 1.305 0 0 1-.396-.961v-4.06H8.722c-.378 0-.697-.131-.96-.393a1.31 1.31 0 0 1-.395-.96V16.39c0-.375.095-.789.283-1.24.186-.451.413-.807.676-1.071l5.753-5.753c.264-.263.62-.49 1.071-.676.451-.188.865-.283 1.24-.283h5.867c.375 0 .694.132.957.395.264.263.396.582.396.96v4.624c.639-.377 1.24-.564 1.803-.564h5.866Zm-7.669 3.002L19.394 20h4.216v-4.216Zm-9.023-5.415-4.218 4.218h4.218v-4.218Zm2.763 9.124 4.454-4.455V9.171H16.39v5.867c0 .374-.131.694-.394.958a1.308 1.308 0 0 1-.958.394H9.171v9.023h7.219v-3.609c0-.376.095-.789.283-1.24.188-.45.414-.808.677-1.071Zm13.479 11.336V14.587h-5.416v5.864c0 .376-.13.697-.394.96a1.307 1.307 0 0 1-.959.393h-5.864v9.025h12.633Z"/></svg>