<svg class="tds-svg-icon--fill" viewBox="0 0 40 40" xmlns="http://www.w3.org/2000/svg"><path d="M22.667 12.667V22a.648.648 0 0 1-.188.479.648.648 0 0 1-.479.188h-6.667a.651.651 0 0 1-.479-.188.647.647 0 0 1-.187-.479v-1.334c0-.194.062-.353.187-.478a.651.651 0 0 1 .479-.188H20v-7.333c0-.195.063-.354.188-.48a.647.647 0 0 1 .478-.188H22c.194 0 .355.063.479.188a.652.652 0 0 1 .188.48ZM31.334 20c0-2.055-.507-3.951-1.522-5.687a11.271 11.271 0 0 0-4.125-4.125C23.951 9.173 22.055 8.666 20 8.666s-3.951.507-5.687 1.522a11.271 11.271 0 0 0-4.125 4.125C9.173 16.049 8.666 17.945 8.666 20s.507 3.951 1.522 5.687a11.271 11.271 0 0 0 4.125 4.125c1.736 1.015 3.632 1.522 5.687 1.522s3.951-.507 5.687-1.522a11.271 11.271 0 0 0 4.125-4.125c1.015-1.736 1.522-3.632 1.522-5.687ZM36 20c0 2.903-.716 5.58-2.145 8.031a15.916 15.916 0 0 1-5.824 5.824C25.58 35.284 22.903 36 20 36c-2.903 0-5.58-.716-8.031-2.145a15.916 15.916 0 0 1-5.824-5.824C4.716 25.58 4 22.903 4 20c0-2.903.716-5.58 2.145-8.031a15.916 15.916 0 0 1 5.824-5.824C14.42 4.716 17.097 4 20 4c2.903 0 5.58.716 8.031 2.145a15.916 15.916 0 0 1 5.824 5.824C35.284 14.42 36 17.097 36 20Z"/></svg>