<svg class="tds-svg-icon--fill" viewBox="0 0 40 40" xmlns="http://www.w3.org/2000/svg"><path d="M5.857 35.429h5.786v-5.786H5.857v5.786Zm7.073 0h6.426v-5.786H12.93v5.786Zm-7.073-7.07h5.786V21.93H5.857v6.429Zm7.073 0h6.426V21.93H12.93v6.429Zm-7.073-7.717h5.786v-5.786H5.857v5.786Zm14.788 14.787h6.426v-5.786h-6.426v5.786ZM12.93 20.642h6.426v-5.786H12.93v5.786Zm15.428 14.787h5.786v-5.786h-5.786v5.786Zm-7.713-7.07h6.426V21.93h-6.426v6.429Zm-7.074-17.358V5.214a.632.632 0 0 0-.189-.453.626.626 0 0 0-.452-.19h-1.287a.618.618 0 0 0-.451.19.62.62 0 0 0-.193.453v5.787c0 .174.064.324.193.45a.617.617 0 0 0 .451.193h1.287a.626.626 0 0 0 .452-.193.618.618 0 0 0 .189-.45Zm14.787 17.358h5.786V21.93h-5.786v6.429Zm-7.713-7.717h6.426v-5.786h-6.426v5.786Zm7.713 0h5.786v-5.786h-5.786v5.786Zm.643-9.641V5.214a.622.622 0 0 0-.191-.453.622.622 0 0 0-.452-.19h-1.287a.626.626 0 0 0-.452.19.632.632 0 0 0-.189.453v5.787c0 .174.064.324.189.45.128.127.28.193.452.193h1.287a.62.62 0 0 0 .452-.193.609.609 0 0 0 .191-.45Zm7.714-1.288v25.716c0 .696-.253 1.299-.763 1.808-.509.51-1.112.763-1.808.763H5.857c-.696 0-1.299-.253-1.808-.763-.51-.509-.763-1.112-.763-1.808V9.713c0-.695.253-1.298.763-1.807.509-.508 1.112-.764 1.808-.764h2.571V5.214c0-.885.316-1.64.945-2.269A3.095 3.095 0 0 1 11.643 2h1.287c.882 0 1.639.316 2.271.945.628.629.941 1.384.941 2.269v1.928h7.717V5.214c0-.885.313-1.64.941-2.269.633-.629 1.388-.945 2.271-.945h1.287c.885 0 1.641.316 2.269.945.63.629.946 1.384.946 2.269v1.928h2.571c.696 0 1.299.256 1.808.764.51.509.763 1.112.763 1.807Z"/></svg>