<svg class="tds-svg-icon--fill" viewBox="0 0 24 24" xmlns="http://www.w3.org/2000/svg"><path d="M16.126 8.083c-.698.36-1.515.564-2.33.676-.407.057-.828.092-1.254.11l1.722 3.503-1.794.882-1.395-2.836-1.143 2.944-1.864-.724 1.506-3.88c-1.281-.137-2.476-.37-3.318-.617-.242.255-.51.499-.768.733-.223.202-.437.397-.62.586-.507.506-.825 1.2-.92 1.912l-.936 8.735c-.057.487.093.974.412 1.33.319.357.787.563 1.256.563h.019l14.152-.206a1.739 1.739 0 0 0 1.274-.619c.319-.375.45-.88.356-1.368-.058-.318-.12-.64-.183-.963a88.781 88.781 0 0 1-.229-1.212c-.356-1.874-.748-3.959-.748-3.959-.337-1.799-1.108-3.688-2.532-5.019-.154-.146-.316-.28-.478-.415a24.44 24.44 0 0 1-.185-.156ZM15.079 6.37c-.4.182-.922.322-1.556.41-.836.115-1.786.129-2.74.073A20.38 20.38 0 0 1 7.18 6.32c.081-.865-.213-1.768-.489-2.616-.09-.275-.177-.544-.25-.804a.685.685 0 0 1 .113-.6.712.712 0 0 1 .544-.281c.019 0 .056 0 .075.018l1.05.525a1.41 1.41 0 0 0 1.068.075l.787-.262c.656-.225 1.406-.15 2.025.169l.524.3a1.23 1.23 0 0 0 1.219-.038l1.312-.787C15.177 2 15.214 2 15.252 2a.72.72 0 0 1 .562.281.7.7 0 0 1 .094.637c-.085.235-.169.474-.253.713l-.253.712c-.222.622-.398 1.35-.323 2.026Z"/></svg>