<svg class="tds-svg-icon--fill" viewBox="0 0 24 24" xmlns="http://www.w3.org/2000/svg"><path d="M13.931 8.7c-.202.062-.407.112-.611.152-.241.047-.487.081-.735.105l1.68 3.415-1.795.882-1.395-2.836-1.143 2.944-1.864-.724 1.485-3.824c-.38-.064-.75-.143-1.097-.23-.344.53-.763.96-1.086 1.272-.186.179-.378.354-.541.502l-.082.074c-.192.175-.333.307-.445.422l-.01.01-.01.01a1.34 1.34 0 0 0-.348.74l-.899 8.38 13.41-.195-.104-.538c-.082-.427-.169-.876-.239-1.265l-.506-2.675-.24-1.278v-.001c-.291-1.55-.925-2.985-1.933-3.926l-.007-.007-.007-.006a6.575 6.575 0 0 0-.342-.298l-.18-.15a7.068 7.068 0 0 1-.796-.763 3.67 3.67 0 0 1-.16-.191ZM7.068 6.88l-.542.958c-.302.366-.68.71-1.038 1.036-.223.202-.437.397-.62.586-.507.506-.825 1.2-.92 1.912l-.936 8.735c-.057.487.093.974.412 1.33.319.357.787.563 1.256.563h.019l14.152-.206a1.739 1.739 0 0 0 1.274-.619c.319-.375.45-.88.356-1.368-.058-.318-.12-.64-.183-.963-.078-.402-.156-.807-.229-1.212-.356-1.874-.748-3.959-.748-3.959-.337-1.799-1.108-3.688-2.532-5.019-.154-.146-.316-.28-.478-.415-.253-.21-.505-.42-.722-.672a2.055 2.055 0 0 1-.394-.675c-.28-.806-.075-1.762.207-2.549l.063-.176.068-.193.122-.343.174-.493.079-.22a.699.699 0 0 0-.094-.637.72.72 0 0 0-.562-.281c-.038 0-.075 0-.094.019l-1.312.787-.027.015c-.37.21-.825.224-1.192.022l-.524-.3c-.619-.318-1.369-.393-2.025-.168l-.787.262a1.432 1.432 0 0 1-1.068-.075l-1.05-.525c-.019-.018-.056-.018-.075-.018a.712.712 0 0 0-.544.28.676.676 0 0 0-.112.6c.034.124.072.25.112.377l.137.428.093.286.033.106c.29.92.533 1.885.251 2.783Zm2.082-.186c.515.12 1.103.221 1.713.272.736.06 1.454.044 2.073-.077.066-.013.13-.027.191-.042a5.45 5.45 0 0 1 .032-1.86 3.161 3.161 0 0 1-1.495-.391l-.015-.008-.488-.28a.629.629 0 0 0-.434-.041l-.008.003-.81.27-.016.004c-.272.086-.555.14-.843.158.117.571.197 1.259.1 1.992Z"/></svg>