<svg width="40" height="40" fill="none" xmlns="http://www.w3.org/2000/svg"><path fill-rule="evenodd" clip-rule="evenodd" d="M11.44 15.909a7.5 7.5 0 0 1-.247-1.903c0-2.114.902-3.55 1.06-3.802a.809.809 0 0 0 .022-.037.214.214 0 0 1 .193-.111c.4-.078.836-.07 1.283-.003-.135-.548-.312-1.092-.484-1.621l-.148-.458-.003-.01a26.525 26.525 0 0 1-.205-.68.964.964 0 0 1 .16-.856c.188-.24.482-.401.776-.401.027 0 .08 0 .107.026l1.498.75c.481.24 1.016.267 1.525.106l1.123-.374c.936-.321 2.006-.214 2.888.24l.75.429c.534.294 1.203.267 1.738-.054l1.872-1.123c.027-.027.08-.027.134-.027.32 0 .615.16.802.401a.997.997 0 0 1 .134.91 101.034 101.034 0 0 0-.222.623l-.14.393c-.12.34-.24.682-.36 1.016-.109.305-.21.627-.291.957.802-.254 1.613-.38 2.32-.244.078 0 .155.037.194.111.038.038 1.081 1.566 1.081 3.839 0 .983-.195 1.82-.42 2.458 1.464 1.79 2.304 4.036 2.708 6.193 0 0 .56 2.974 1.068 5.649.103.577.215 1.155.326 1.727.09.462.178.922.262 1.375a2.339 2.339 0 0 1-.508 1.953 2.481 2.481 0 0 1-1.819.883l-20.193.294h-.027a2.434 2.434 0 0 1-1.792-.803 2.432 2.432 0 0 1-.588-1.899l1.337-12.463c.134-1.016.588-2.006 1.31-2.728.232-.238.498-.483.776-.736Zm.906 2.013a8.393 8.393 0 0 0-.182.18l-.01.011-.01.01c-.363.363-.63.906-.714 1.502l-.329 3.064 2.641-4.733c-.115 0-.231.01-.347.019-.116.01-.232.019-.348.019-.193 0-.386 0-.58-.038a.228.228 0 0 1-.121-.034Zm-1.287 5.16-.964 8.986-.001.008a.345.345 0 0 0 .07.265.346.346 0 0 0 .233.105h.012l20.145-.293a.39.39 0 0 0 .288-.146.248.248 0 0 0 .048-.204l-.001-.008-.002-.008c-.073-.397-.16-.85-.25-1.317-.117-.6-.237-1.223-.338-1.784-.254-1.336-.52-2.745-.723-3.82l-.343-1.824c-.347-1.848-1.03-3.641-2.109-5.048a8.077 8.077 0 0 1-.866-.075l2.626 4.882c.039.112 0 .298-.116.373-.038.037-.077.037-.116.037l-1.97.187-1.274 1.49c-.078.075-.155.112-.232.112h-.039a.26.26 0 0 1-.231-.15l-5.09-7.005-4.799 7.006c-.077.112-.232.186-.386.112-.039 0-.077-.038-.116-.075l-1.275-1.49-1.97-.187c-.038 0-.077 0-.115-.037a.45.45 0 0 1-.096-.091ZM23.134 11.31a9.1 9.1 0 0 1 .351-1.925 3.8 3.8 0 0 1-2.755-.348l-.015-.008-.717-.41c-.41-.2-.874-.224-1.22-.105l-.008.003-1.148.383-.016.005a4.172 4.172 0 0 1-1.96.14c.08.28.155.572.219.869.059.274.11.564.148.866a18.268 18.268 0 0 1 2.79 1.624h2.588c.225-.16.885-.619 1.743-1.094Zm3.318 5.11-2.958-.356 3.132 5.822-.74.07-.634.74-4.153-5.718a1.584 1.584 0 0 0-1.304-.643c-.519.006-1 .26-1.286.678L14.64 22.66l-.603-.706-.71-.067 3.038-5.442h-2.622c-.18 0-.35.014-.458.023a6.06 6.06 0 0 1-.526-2.462c0-1.094.29-1.94.546-2.485.187.017.403.054.65.116a8.854 8.854 0 0 1 1.63.622 17.017 17.017 0 0 1 2.291 1.363l.414.293h3.613l.414-.293a17.017 17.017 0 0 1 2.292-1.363 8.855 8.855 0 0 1 1.63-.622c.25-.063.47-.1.658-.116a6.058 6.058 0 0 1 .537 2.485 5.83 5.83 0 0 1-.535 2.463c-.119-.01-.264-.027-.447-.05Zm-12.777-5.576a1.33 1.33 0 0 1-.075.128l.021-.036c.025-.041.044-.072.054-.092Zm12.843 6.326c.023-.045.048-.088.075-.128l-.021.036a2.124 2.124 0 0 0-.054.092Z" fill="#000"/></svg>