<svg class="tds-svg-icon--fill" viewBox="0 0 24 24" xmlns="http://www.w3.org/2000/svg"><path d="M14.596 5.705c-1.759 0-3.144 1.2-3.442 2.667l-.26 1.277-1.297.083c-1.125.073-1.897.949-1.897 1.876 0 .805.568 1.559 1.463 1.802l1.256.341v1.305c0 .061-.003.116-.004.137v.011c.007.648.579 1.301 1.451 1.301.465 0 .863-.197 1.124-.486l1.261-1.398 1.261 1.398c.261.289.659.486 1.125.486.767 0 1.32-.524 1.426-1.092l.231-1.231 1.24-.147c1.052-.126 1.766-.968 1.766-1.86 0-.885-.695-1.718-1.744-1.86l-1.363-.185-.104-1.376c-.124-1.639-1.58-3.049-3.493-3.049ZM15.35 22h-1.7v-4.321a3.23 3.23 0 0 1-1.899.53 3.25 3.25 0 0 1-1.401-.261V22h-1.7v-4.321a3.23 3.23 0 0 1-1.784.532c-1.742 0-3.151-1.353-3.151-3.018l.002-.069.001-.068C2.149 14.63 1 13.25 1 11.608c0-1.9 1.543-3.452 3.488-3.577C4.955 5.736 7.065 4 9.596 4c.892 0 1.796.216 2.532.597A5.346 5.346 0 0 1 14.596 4c2.745 0 4.993 2.041 5.188 4.625 1.819.246 3.216 1.739 3.216 3.55 0 1.825-1.428 3.334-3.266 3.553-.264 1.411-1.551 2.483-3.097 2.483a3.25 3.25 0 0 1-1.287-.263Zm-6.635-6.807.002-.069.001-.068C7.149 14.63 6 13.25 6 11.608c0-1.9 1.543-3.452 3.488-3.577a4.893 4.893 0 0 1 1.09-2.211 4.211 4.211 0 0 0-.982-.115c-1.759 0-3.144 1.2-3.442 2.667l-.26 1.277-1.297.083c-1.125.073-1.897.949-1.897 1.876 0 .805.568 1.559 1.463 1.802l1.255.341v1.305c0 .061-.002.116-.003.137v.011c.007.648.579 1.301 1.451 1.301.465 0 .863-.197 1.124-.486l.725-.805v-.021Z"/></svg>