<svg class="tds-svg-icon--fill" viewBox="0 0 24 24" xmlns="http://www.w3.org/2000/svg"><path d="M9.85 21h-1.7v-4.321a3.229 3.229 0 0 1-1.784.531c-1.742 0-3.151-1.352-3.151-3.018l.002-.068.001-.068C1.649 13.63.5 12.25.5 10.608c0-1.9 1.543-3.452 3.488-3.577C4.455 4.736 6.565 3 9.096 3c.508 0 .998.07 1.462.2-.812.68-1.383 1.433-1.736 2.521-.995.292-1.854.767-2.586 1.607C5.503 8.168 5 9.397 5 10.608c0 1.027.362 2.085.907 2.86.546.776 1.027 1.262 1.915 1.642h.001c.226.949.655 1.769 1.446 2.453.176.152.371.294.581.422V21Z"/><path d="m16.503 18.669.097.011v.001Zm-7.731-4.765c-.707-.273-1.214-.696-1.638-1.299a3.268 3.268 0 0 1-.634-1.997c0-.927.292-1.636.866-2.294.574-.659 1.255-1.079 2.16-1.226l.452-.073.128-.443c.311-1.081.94-1.899 1.849-2.56C12.866 3.35 13.879 3 15.096 3c1.324 0 2.418.414 3.366 1.187.946.77 1.564 1.717 1.759 2.943l.076.477.468.114c.831.204 1.445.629 1.96 1.269.516.64.775 1.311.775 2.184 0 .891-.271 1.577-.807 2.225-.537.647-1.174 1.071-2.031 1.253l-.412.088-.124.398c-.202.649-.572 1.095-1.128 1.487a3.046 3.046 0 0 1-1.862.585c-.156 0-.286-.008-.439-.029l-.847-.115V21h-1.7v-4.161l-.943.262a2.954 2.954 0 0 1-.841.109c-.856 0-1.514-.261-2.115-.781-.6-.519-.959-1.1-1.018-1.913L9.2 14.07Z"/></svg>