<svg class="tds-svg-icon--fill" viewBox="0 0 40 40" xmlns="http://www.w3.org/2000/svg"><path d="M31.877 14.183H28.44a3.725 3.725 0 0 0 .847-2.359c0-2.168-1.894-3.931-4.221-3.931-1.402 0-2.437.467-3.254 1.473-.685.84-1.184 2.012-1.812 3.496-.628-1.484-1.128-2.656-1.812-3.496-.817-1.006-1.852-1.473-3.254-1.473-2.327 0-4.222 1.763-4.222 3.931 0 .885.315 1.703.848 2.359H8.123c-1.397 0-2.533 1.06-2.533 2.36v1.573c0 1.026.706 1.9 1.689 2.224v9.923c0 1.3 1.137 2.359 2.533 2.359h20.376c1.396 0 2.533.061 2.533-1.24V20.34c.982-.324 1.689-1.198 1.689-2.224v-1.573c0-1.3-1.136-2.36-2.533-2.36Zm-10.326-.695c1.292-3.055 1.784-4.022 3.515-4.022 1.397 0 2.533 1.058 2.533 2.358 0 1.301-1.136 2.359-2.533 2.359h-3.812l.297-.695Zm-6.617-4.022c1.731 0 2.222.967 3.515 4.022l.296.695h-3.811c-1.397 0-2.534-1.058-2.534-2.359 0-1.3 1.137-2.358 2.534-2.358Zm1.688 21.583h-6.81c-.466 0-.845-.353-.845-.786v-9.787h7.655v10.573Zm0-12.146H8.123c-.465 0-.844-.353-.844-.787v-1.573c0-.433.379-.786.844-.786h8.499v3.146Zm5.067 12.146h-3.378V15.757h3.378v15.292Zm9.344-.786c0 .433-.379.786-.845.786h-6.812V20.476h7.657v9.787Zm1.688-12.147c0 .434-.38.787-.844.787h-8.501v-3.146h8.501c.464 0 .844.353.844.786v1.573Z"/></svg>