<svg class="tds-svg-icon--fill" viewBox="0 0 36 36" xmlns="http://www.w3.org/2000/svg"><path fill-rule="evenodd" clip-rule="evenodd" d="M19.699 25.517c1.343 0 2.158-1.342 2.158-2.876 0-1.774-1.343-3.069-3.548-2.925-2.685 0-4.651 1.822-4.651 4.363 0 1.87 1.343 3.212 3.548 3.212.45 0 .988-.088 1.453-.241a.422.422 0 0 0 .263-.523.496.496 0 0 0-.61-.332 4.095 4.095 0 0 1-1.058.137c-1.582 0-2.493-.958-2.493-2.397 0-1.918 1.438-3.356 3.452-3.356 1.726 0 2.589.815 2.589 2.158 0 .671-.24 1.774-.767 1.774-.192 0-.288-.096-.288-.288l.001-.013c.01-.071.028-.139.046-.208.013-.051.026-.102.036-.153l.295-1.531a.657.657 0 0 0-.645-.78h-.417a.156.156 0 0 0-.154.129c-.026.141-.225.184-.334.09-.23-.199-.537-.315-.937-.315-1.199 0-2.062 1.055-2.062 2.349 0 1.055.767 1.726 1.63 1.726.048 0 .094-.001.14-.004.407-.022 1.08-.012 1.655-.003.266.004.51.007.698.007Zm-1.869-2.972c.431 0 .719.288.719.767 0 .575-.336 1.103-.911 1.103-.432 0-.719-.24-.719-.767 0-.672.383-1.103.911-1.103Z"/><path fill-rule="evenodd" clip-rule="evenodd" d="M16.89 6.392a1.61 1.61 0 0 1 2.158 0l.008.007 10.625 10.127a.837.837 0 0 1 .263.55.202.202 0 0 1 .064.147v12.8h-24V17.295a.83.83 0 0 1 .25-.769L16.89 6.392Zm12.204 11.599H6.908v11.132h22.2V17.991h-.014ZM18.439 7.055l10.458 9.968H7.041l10.458-9.968a.71.71 0 0 1 .94 0Z"/></svg>