<svg class="tds-svg-icon--fill" viewBox="0 0 36 36" xmlns="http://www.w3.org/2000/svg"><path fill-rule="evenodd" clip-rule="evenodd" d="M20.942 14.792h1.2c.488 0 .885.377.885.84v.561a.845.845 0 0 1-.59.792v3.934c0 .443-.364.443-.823.442h-7.181c-.488 0-.885-.377-.885-.841v-3.535a.845.845 0 0 1-.59-.792v-.561c0-.463.397-.84.885-.84h1.2a1.355 1.355 0 0 1-.296-.841c0-.773.662-1.401 1.475-1.401.49 0 .852.167 1.137.525.239.299.414.717.633 1.246.22-.529.395-.947.634-1.246.285-.358.647-.525 1.137-.525.813 0 1.475.628 1.475 1.401 0 .315-.111.606-.296.841Zm-1.179-1.682c-.605 0-.777.345-1.229 1.434l-.103.248h1.332c.488 0 .885-.378.885-.841 0-.464-.397-.841-.885-.841Zm-2.312 1.434c-.452-1.089-.624-1.434-1.229-1.434-.488 0-.885.377-.885.841 0 .463.397.841.885.841h1.332l-.103-.248ZM14.433 20.8h2.379v-3.767h-2.674v3.487c0 .155.132.28.295.28Zm-.59-4.327h2.969v-1.121h-2.969a.288.288 0 0 0-.295.28v.561c0 .154.132.28.295.28Zm3.559-1.121V20.8h1.18v-5.448h-1.18Zm4.15 5.448a.288.288 0 0 0 .295-.28v-3.487h-2.674V20.8h2.379Zm.59-4.327a.288.288 0 0 0 .295-.28v-.561a.288.288 0 0 0-.295-.28h-2.969v1.121h2.969Z"/><path d="M11.595 24.621a.5.5 0 0 1 .5-.5h11.849a.5.5 0 0 1 0 1H12.095a.5.5 0 0 1-.5-.5ZM12.095 25.863a.5.5 0 0 0 0 1h11.849a.5.5 0 1 0 0-1H12.095Z"/><path fill-rule="evenodd" clip-rule="evenodd" d="M23.254 5.128a1.617 1.617 0 0 0-1.068-.137L9.409 7.808h-.037c-1.002 0-1.958.706-1.958 1.739v19.759c0 1.033.956 1.739 1.958 1.739h17.256c1.001 0 1.958-.705 1.958-1.739V9.547c0-1.034-.957-1.739-1.958-1.739H24.37V6.461c0-.659-.539-1.045-1.116-1.333Zm.116 2.68h-9.315l8.345-1.84a.624.624 0 0 1 .407.054c.271.135.421.243.499.325.064.067.064.097.064.113v1.348Zm-13.998 1c-.608 0-.958.404-.958.739v19.759c0 .335.35.739.958.739h17.256c.608 0 .958-.404.958-.739V9.547c0-.335-.35-.739-.958-.739H9.372Z"/></svg>