<svg class="tds-svg-icon--fill" viewBox="0 0 40 40" xmlns="http://www.w3.org/2000/svg"><path fill-rule="evenodd" clip-rule="evenodd" d="M28.44 14.183h3.437c1.397 0 2.533 1.06 2.533 2.36v1.573c0 1.026-.707 1.9-1.689 2.224H21.766v-4.602h-3.52v4.602H7.28c-.983-.324-1.689-1.198-1.689-2.224v-1.573c0-1.3 1.136-2.36 2.533-2.36h3.437a3.726 3.726 0 0 1-.848-2.359c0-2.168 1.895-3.931 4.222-3.931 1.402 0 2.437.467 3.254 1.473.684.84 1.184 2.012 1.812 3.496.628-1.484 1.127-2.656 1.812-3.496.817-1.006 1.852-1.473 3.254-1.473 2.327 0 4.221 1.763 4.221 3.931 0 .885-.314 1.703-.847 2.359Zm-6.889-.695c1.292-3.055 1.784-4.022 3.515-4.022 1.397 0 2.533 1.058 2.533 2.358 0 1.301-1.136 2.359-2.533 2.359h-3.812c.098-.226.191-.446.28-.655l.017-.04Zm-6.617-4.022c1.731 0 2.222.967 3.515 4.022l.041.097v.001l.255.597h-3.811c-1.397 0-2.534-1.058-2.534-2.359 0-1.3 1.137-2.358 2.534-2.358Z"/><path d="M18.247 21.196H7.279v9.067c0 1.3 1.137 2.359 2.533 2.359h8.435V21.196ZM21.766 32.622h8.602c1.312.003 2.353.005 2.353-1.24V21.196H21.766v11.426Z"/></svg>