<svg width="34" height="34" fill="none" xmlns="http://www.w3.org/2000/svg"><path d="M21.25 2.833a5.667 5.667 0 0 1 4.907 8.502l6.426-.002v2.834H29.75v14.166a1.417 1.417 0 0 1-1.417 1.417H5.667a1.417 1.417 0 0 1-1.417-1.417V14.167H1.417v-2.834l6.426.002A5.667 5.667 0 0 1 17 4.753a5.643 5.643 0 0 1 4.25-1.92Zm-5.667 11.334h-8.5v12.75h8.5v-12.75Zm11.334 0h-8.5v12.75h8.5v-12.75Zm-14.167-8.5a2.833 2.833 0 0 0-.213 5.66l.213.006h2.833V8.5a2.833 2.833 0 0 0-2.404-2.8l-.218-.026-.211-.007Zm8.5 0a2.833 2.833 0 0 0-2.826 2.62l-.007.213v2.833h2.833a2.833 2.833 0 0 0 2.826-2.62l.007-.213a2.833 2.833 0 0 0-2.833-2.833Z" fill="#182D3A"/></svg>