<svg width="39" height="41" viewBox="0 0 39 41" fill="none" xmlns="http://www.w3.org/2000/svg">
<g id="Group 238889">
<path id="Subtract" fill-rule="evenodd" clip-rule="evenodd" d="M17.7324 13.2344H5.02417C3.02726 13.2344 2.02881 13.2344 1.40845 13.8547C0.788086 14.4751 0.788086 15.4735 0.788086 17.4705V19.5885C0.788086 21.5854 0.788086 22.5839 1.40845 23.2042C2.02881 23.8246 3.02726 23.8246 5.02417 23.8246H7.14221V23.8246H17.7324V13.2344ZM7.14221 28.0607V36.5328C7.14221 38.5297 7.14221 39.5282 7.76257 40.1485C8.38293 40.7689 9.38138 40.7689 11.3783 40.7689H17.7324V28.0607H7.14221ZM21.9685 40.7689H28.3226C30.3195 40.7689 31.318 40.7689 31.9383 40.1485C32.5587 39.5282 32.5587 38.5297 32.5587 36.5328V28.0607H21.9685V40.7689ZM32.5587 23.8246V23.8246H34.6767C36.6736 23.8246 37.6721 23.8246 38.2925 23.2042C38.9128 22.5839 38.9128 21.5854 38.9128 19.5885V17.4705C38.9128 15.4735 38.9128 14.4751 38.2925 13.8547C37.6721 13.2344 36.6737 13.2344 34.6767 13.2344H21.9685V23.8246H32.5587Z" fill="currentCOlor"/>
<path id="Vector 209" d="M34.6768 6.10202V5.7163C34.6768 3.16306 32.1754 1.36016 29.7532 2.16757C26.7231 3.17759 23.9698 4.87923 21.7113 7.13772L19.8505 8.99853V11.1166H27.6352C28.0905 11.1166 28.5428 11.0432 28.9748 10.8992L31.9289 9.91449C33.5699 9.36749 34.6768 7.83179 34.6768 6.10202Z" fill="currentColor"/>
<path id="Vector 210" d="M5.02344 6.10202V5.7163C5.02344 3.16306 7.52483 1.36016 9.94704 2.16757C12.9771 3.17759 15.7304 4.87923 17.9889 7.13772L19.8497 8.99853V11.1166H12.065C11.6097 11.1166 11.1574 11.0432 10.7254 10.8992L7.77131 9.91449C6.13031 9.36749 5.02344 7.83179 5.02344 6.10202Z" fill="currentColor"/>
</g>
</svg>
