<svg width="24" height="25" fill="none" xmlns="http://www.w3.org/2000/svg"><g clip-path="url(#a)"><path d="M6 2.805a7 7 0 0 1 6.197 3.74 6.49 6.49 0 0 1 5.303-2.74H21v2.5a6.5 6.5 0 0 1-6.5 6.5H13v1a5 5 0 0 1 5 5v2a2 2 0 0 1-2 2H8a2 2 0 0 1-2-2v-2a5 5 0 0 1 5-5v-2H9a7 7 0 0 1-7-7v-2h4Zm10 17a4 4 0 0 0-8 0v1h8v-1Zm3-14h-1.5a4.5 4.5 0 0 0-4.5 4.5v.5h1.5a4.5 4.5 0 0 0 4.5-4.5v-.5Zm-13-1H4a5 5 0 0 0 5 5h2a5 5 0 0 0-5-5Z" fill="#182D3A"/></g><defs><clipPath id="a"><path fill="#fff" transform="translate(0 .805)" d="M0 0h24v24H0z"/></clipPath></defs></svg>