<svg class="tds-svg-icon--fill" viewBox="0 0 40 40" xmlns="http://www.w3.org/2000/svg" xml:space="preserve" style="fill-rule:evenodd;clip-rule:evenodd;stroke-linejoin:round;stroke-miterlimit:2"><path d="M36 20c0-8.836-7.164-16-16-16-8.837 0-16 7.164-16 16s7.163 16 16 16c8.836 0 16-7.164 16-16Zm-2.91 0c0 7.23-5.86 13.091-13.09 13.091-7.23 0-13.091-5.86-13.091-13.09 0-7.231 5.862-13.092 13.09-13.092 7.231 0 13.092 5.86 13.092 13.091Zm-15.204 0-3.646-3.646a1.453 1.453 0 0 1 0-2.057 1.453 1.453 0 0 1 2.056 0l3.647 3.646 3.647-3.646a1.453 1.453 0 0 1 2.056 0c.57.567.57 1.49 0 2.057L22 20l3.646 3.647c.57.567.57 1.49 0 2.056a1.453 1.453 0 0 1-2.056 0l-3.647-3.646-3.647 3.646a1.453 1.453 0 0 1-2.056 0 1.453 1.453 0 0 1 0-2.056L17.886 20Z"/></svg>