<svg xmlns="http://www.w3.org/2000/svg" viewBox="0 0 35 36" fill="currentColor">
    <path d="M4.10155 22.5666C3.67805 22.2533 3.2073 22.083 2.6263 22.083C2.3078 22.083 1.74197 22.2312 1.17847 22.4604C1.17555 22.5293 1.16797 22.5969 1.16797 22.6663C1.16797 24.5359 2.26989 26.1442 3.85714 26.8885C3.6308 26.3017 3.5013 25.6664 3.5013 24.9997C3.5013 24.1212 3.72005 23.294 4.10155 22.5666Z"/>
    <path d="M32.9624 28.8531C33.138 28.6932 33.25 28.4646 33.25 28.2085C33.25 27.7255 32.858 27.3335 32.375 27.3335C32.1557 27.3335 31.9579 27.4169 31.8045 27.5499C30.1502 28.9242 27.8897 29.6668 25.375 29.6668C24.892 29.6668 24.5 30.0588 24.5 30.5418C24.5 31.0248 24.892 31.4168 25.375 31.4168C28.546 31.4168 31.206 30.354 32.9624 28.8531Z"/>
    <path d="M17.4987 3.41634C18.143 3.41634 18.6654 2.89401 18.6654 2.24967C18.6654 1.60534 18.143 1.08301 17.4987 1.08301C16.8544 1.08301 16.332 1.60534 16.332 2.24967C16.332 2.89401 16.8544 3.41634 17.4987 3.41634Z"/>
    <path d="M2.91667 13.3333C3.561 13.3333 4.08333 12.811 4.08333 12.1667C4.08333 11.5223 3.561 11 2.91667 11C2.27233 11 1.75 11.5223 1.75 12.1667C1.75 12.811 2.27233 13.3333 2.91667 13.3333Z"/>
    <path d="M6.41667 8.08333C7.061 8.08333 7.58333 7.561 7.58333 6.91667C7.58333 6.27233 7.061 5.75 6.41667 5.75C5.77233 5.75 5.25 6.27233 5.25 6.91667C5.25 7.561 5.77233 8.08333 6.41667 8.08333Z"/>
    <path d="M11.6667 4.58333C12.311 4.58333 12.8333 4.061 12.8333 3.41667C12.8333 2.77233 12.311 2.25 11.6667 2.25C11.0223 2.25 10.5 2.77233 10.5 3.41667C10.5 4.061 11.0223 4.58333 11.6667 4.58333Z"/>
    <path d="M32.0846 13.3333C32.729 13.3333 33.2513 12.811 33.2513 12.1667C33.2513 11.5223 32.729 11 32.0846 11C31.4403 11 30.918 11.5223 30.918 12.1667C30.918 12.811 31.4403 13.3333 32.0846 13.3333Z"/>
    <path d="M28.5846 8.08333C29.229 8.08333 29.7513 7.561 29.7513 6.91667C29.7513 6.27233 29.229 5.75 28.5846 5.75C27.9403 5.75 27.418 6.27233 27.418 6.91667C27.418 7.561 27.9403 8.08333 28.5846 8.08333Z"/>
    <path d="M23.3346 4.58333C23.979 4.58333 24.5013 4.061 24.5013 3.41667C24.5013 2.77233 23.979 2.25 23.3346 2.25C22.6903 2.25 22.168 2.77233 22.168 3.41667C22.168 4.061 22.6903 4.58333 23.3346 4.58333Z"/>
    <path d="M33.0215 16.023C31.387 17.549 30.19 17.9836 28.583 17.9836C27.2524 17.9836 26.4672 17.416 25.3746 17.416C22.6365 17.416 20.4163 19.6362 20.4163 22.3743C20.4163 22.6934 20.4495 23.0049 20.5067 23.3076C21.2195 22.9611 22.0327 22.6666 22.7496 22.6666C24.4996 22.6666 25.083 23.2499 25.083 23.2499C22.843 23.2499 20.2897 24.6102 18.6663 26.1666C18.6663 17.9999 18.5397 13.7241 17.4996 12.1666C19.1335 13.8005 19.7495 14.4182 19.8248 16.3917C20.8946 15.5371 21.583 14.2257 21.583 12.7499C21.583 8.2069 16.0565 8.6374 15.7636 4.89648C13.666 6.0544 12.2496 8.2209 12.2496 10.7082C12.2496 13.5304 14.0714 15.9384 16.6474 16.9283C16.8702 19.1479 16.9081 21.5553 16.9145 24.3711C15.458 18.5832 10.9214 15.6666 6.99963 15.6666C2.64679 15.6666 1.30512 18.2362 0.703125 21.3926C1.36521 21.1202 2.09146 20.9166 2.62463 20.9166C7.05446 20.9166 6.99963 27.9166 11.083 27.9166C11.5963 27.9166 12.1155 27.8145 12.6142 27.6336C12.1458 25.1545 11.083 22.6666 11.083 22.6666C15.2141 25.6176 16.333 29.2343 16.333 34.3332V35.4999H18.083V34.3332C18.083 28.4999 20.1065 26.7499 22.1663 26.7499C23.8014 26.7499 23.9367 27.3332 25.6663 27.3332C30.0156 27.3332 33.2496 23.4156 33.2496 18.5832C33.2496 17.8366 33.1429 16.8776 33.0215 16.023Z"/>
</svg>