<svg class="tds-svg-icon--fill" viewBox="0 0 40 40" xmlns="http://www.w3.org/2000/svg"><path d="M24.5 27.638v1.908a.946.946 0 0 1-.267.671.843.843 0 0 1-.633.284h-7.2a.845.845 0 0 1-.633-.284.946.946 0 0 1-.267-.671v-1.908c0-.259.089-.483.267-.671a.845.845 0 0 1 .633-.284h.9v-5.728h-.9a.845.845 0 0 1-.633-.284A.945.945 0 0 1 15.5 20v-1.91c0-.257.089-.48.267-.669a.845.845 0 0 1 .633-.284h5.4c.245 0 .455.095.634.284a.943.943 0 0 1 .266.669v8.593h.9c.244 0 .454.095.633.284a.943.943 0 0 1 .267.671Zm-1.8-17.184v2.865a.941.941 0 0 1-.266.67.84.84 0 0 1-.634.284h-3.6a.841.841 0 0 1-.633-.284.942.942 0 0 1-.267-.67v-2.865c0-.257.089-.481.267-.67A.845.845 0 0 1 18.2 9.5h3.6c.245 0 .455.095.634.284a.945.945 0 0 1 .266.67Z"/></svg>