<svg width="30" height="30" fill="none" xmlns="http://www.w3.org/2000/svg"><path d="M18 20.09v1.274a.63.63 0 0 1-.178.447.561.561 0 0 1-.422.189h-4.8a.561.561 0 0 1-.422-.189.63.63 0 0 1-.178-.447V20.09a.63.63 0 0 1 .178-.448.561.561 0 0 1 .422-.189h.6v-3.818h-.6a.561.561 0 0 1-.422-.189A.63.63 0 0 1 12 15v-1.273a.63.63 0 0 1 .178-.447.561.561 0 0 1 .422-.19h3.6c.163 0 .303.064.422.19a.63.63 0 0 1 .178.447v5.727h.6c.163 0 .303.063.422.19a.63.63 0 0 1 .178.447ZM16.8 8.637v1.91a.63.63 0 0 1-.178.447.561.561 0 0 1-.422.189h-2.4a.561.561 0 0 1-.422-.19.63.63 0 0 1-.178-.447V8.636a.63.63 0 0 1 .178-.447A.561.561 0 0 1 13.8 8h2.4c.163 0 .303.063.422.189a.63.63 0 0 1 .178.447Z" fill="#1C4402"/></svg>