<svg class="tds-svg-icon--fill" viewBox="0 0 30 30" xmlns="http://www.w3.org/2000/svg"><path fill-rule="evenodd" clip-rule="evenodd" d="M29.38 15c0 8.008-6.438 14.5-14.38 14.5C7.058 29.5.62 23.008.62 15S7.058.5 15 .5C22.942.5 29.38 6.992 29.38 15Zm-6.858-5.488c.2.521.34 1.122.378 1.996.038.877.041 1.157.041 3.391 0 2.233-.009 2.513-.047 3.391-.038.874-.178 1.472-.378 1.995a4.183 4.183 0 0 1-2.377 2.408c-.514.202-1.107.344-1.97.382-.867.039-1.143.048-3.348.048-2.206 0-2.482-.009-3.348-.048-.864-.038-1.454-.18-1.971-.382a4.004 4.004 0 0 1-1.438-.948 4.072 4.072 0 0 1-.939-1.46c-.2-.52-.34-1.121-.378-1.995-.038-.878-.047-1.158-.047-3.391 0-2.234.009-2.514.05-3.394.038-.875.178-1.472.378-1.996a4.052 4.052 0 0 1 .936-1.456 3.961 3.961 0 0 1 1.441-.952c.514-.202 1.108-.343 1.971-.382.866-.039 1.142-.048 3.348-.048 2.205 0 2.481.009 3.351.051.863.039 1.453.18 1.971.383.539.205 1.031.53 1.437.948.416.411.733.906.939 1.459Zm-1.364 10.24c.111-.289.244-.723.279-1.527.038-.868.048-1.125.048-3.32s-.01-2.455-.048-3.323c-.035-.801-.168-1.238-.279-1.527a2.555 2.555 0 0 0-.606-.945 2.51 2.51 0 0 0-.933-.614c-.286-.112-.714-.247-1.508-.282-.853-.039-1.11-.049-3.281-.049-2.167 0-2.424.01-3.281.049-.791.035-1.222.17-1.508.282a2.534 2.534 0 0 0-.933.614 2.502 2.502 0 0 0-.609.945c-.111.289-.244.723-.279 1.527-.038.864-.048 1.128-.048 3.323 0 2.195.01 2.456.048 3.324.035.8.168 1.237.279 1.526.13.357.336.678.606.945.26.273.581.482.933.614.286.112.714.247 1.507.283.854.038 1.114.048 3.282.048 2.167 0 2.424-.01 3.281-.048.79-.036 1.222-.171 1.508-.283a2.714 2.714 0 0 0 1.542-1.562Zm-6.337-8.782c-2.355 0-4.266 1.935-4.266 4.32 0 2.385 1.911 4.319 4.266 4.319 2.354 0 4.265-1.934 4.265-4.319s-1.911-4.32-4.265-4.32Zm0 7.122c-1.528 0-2.767-1.255-2.767-2.802 0-1.548 1.239-2.803 2.767-2.803 1.527 0 2.766 1.255 2.766 2.803 0 1.547-1.239 2.802-2.766 2.802Zm4.265-6.616c.55 0 .996-.452.996-1.009 0-.557-.446-1.008-.996-1.008s-.996.451-.996 1.008c0 .557.446 1.009.996 1.009Z"/></svg>