<svg class="tds-svg-icon--fill" viewBox="0 0 30 31" xmlns="http://www.w3.org/2000/svg"><path d="M21.52 14.816h-1.673c0 7.707.001 6.221.001 6.623a1.319 1.319 0 0 0 2.635 0v-5.66a.964.964 0 0 0-.963-.963ZM12.923 11.833a.9.9 0 0 0 .383.292l.013-1.354a.742.742 0 0 0-.377.26.663.663 0 0 0-.019.801ZM13.855 14.94a.816.816 0 0 0 .489-.267.769.769 0 0 0 .192-.507.684.684 0 0 0-.152-.453c-.104-.127-.275-.23-.515-.297l-.014 1.523Z"/><path fill-rule="evenodd" clip-rule="evenodd" d="M19.15 21.256c-.001-.351-.003-1.436-.003-11.645 0-1.023-.883-1.855-1.968-1.855H9.486c-1.086 0-1.97.832-1.97 1.855v10.098c0 1.68 1.452 3.047 3.235 3.047h8.865a2.104 2.104 0 0 1-.467-1.317v-.183Zm-5.27-8.939c.635.179 1.066.405 1.294.675.23.276.34.621.337 1.043-.005.474-.153.868-.447 1.188-.293.32-.697.513-1.217.581l-.007.729-.575-.007.007-.712c-.458-.058-.828-.23-1.113-.516-.282-.285-.462-.687-.537-1.2L12.66 14c.04.21.12.393.234.543.116.154.246.266.387.332l.016-1.635c-.52-.154-.897-.379-1.137-.677-.241-.302-.357-.66-.353-1.084.004-.426.144-.785.42-1.073.277-.287.644-.45 1.101-.488l.004-.385.574.007-.003.385c.42.054.755.202 1.002.436.248.237.403.553.468.942l-1.004.118c-.06-.306-.215-.518-.474-.631l-.015 1.527Zm-3.814 7.716a.5.5 0 0 1 .5-.5h6a.5.5 0 1 1 0 1h-6a.5.5 0 0 1-.5-.5Zm.5-2.5a.5.5 0 1 0 0 1h6a.5.5 0 1 0 0-1h-6Z"/></svg>