<svg class="tds-svg-icon--fill" viewBox="0 0 24 24" xmlns="http://www.w3.org/2000/svg"><path d="M19.033 3.362C20.043 3.247 21 3.984 21 5c0 9.627-5.373 14-12 14H5.243a15.729 15.729 0 0 0-.22 2c-.026.552-.47 1-1.023 1a.967.967 0 0 1-.978-1c.043-.975.152-1.883.324-2.732C3.116 16.974 3 15.218 3 13 3 7.477 7.477 3 13 3c1.642 0 3.284.674 6.033.362ZM13 5a8 8 0 0 0-8 8c0 .362.003.711.01 1.046 1.1-1.736 2.65-3.152 4.636-4.4A.968.968 0 0 1 11 10c.274.48.105 1.088-.361 1.383-2.38 1.51-3.993 3.245-4.863 5.617H9c6.015 0 9.871-3.973 9.997-11.612-1.372.133-2.647.048-4.22-.188C13.627 5.027 13.401 5 13 5Z"/></svg>