<svg class="tds-svg-icon--fill" viewBox="0 0 24 24" xmlns="http://www.w3.org/2000/svg"><path d="M14.6 8H21a2 2 0 0 1 2 2v2.104c0 .261-.051.52-.15.762l-3.096 7.514a.994.994 0 0 1-.368.45.992.992 0 0 1-.556.17H2a.997.997 0 0 1-1-1V10a.997.997 0 0 1 1-1h3.482a.995.995 0 0 0 .817-.423L11.752.851a.504.504 0 0 1 .632-.159l1.814.908a2.5 2.5 0 0 1 1.305 2.853L14.6 8ZM7 10.588V19h11.16L21 12.104V10h-6.4a2 2 0 0 1-1.938-2.493l.903-3.548a.5.5 0 0 0-.261-.571l-.661-.33-4.71 6.672c-.25.354-.57.644-.933.858ZM5 11H3v8h2v-8Z"/></svg>