<svg class="tds-svg-icon--fill" viewBox="0 0 30 30" xmlns="http://www.w3.org/2000/svg"><path fill-rule="evenodd" clip-rule="evenodd" d="M29.5 15c0 8.008-6.492 14.5-14.5 14.5S.5 23.008.5 15 6.992.5 15 .5 29.5 6.992 29.5 15ZM7.75 8.526c0-1.029.745-1.811 1.885-1.811 1.139 0 1.839.782 1.861 1.811 0 1.006-.722 1.811-1.884 1.811h-.021c-1.117 0-1.841-.805-1.841-1.811ZM23.285 22.25v-6.012c0-3.219-1.642-4.717-3.834-4.717-1.769 0-2.559 1.019-3.001 1.731v-1.485h-3.331c.044.983 0 10.482 0 10.482h3.33v-5.854c0-.314.023-.626.111-.85.241-.627.788-1.274 1.708-1.274 1.206 0 1.687.962 1.687 2.37v5.609h3.33Zm-6.835-8.998v.035h-.022a.174.174 0 0 1 .011-.018l.011-.017ZM7.948 22.25h3.329V11.767H7.948V22.25Z"/></svg>