<svg width="24" height="25" fill="none" xmlns="http://www.w3.org/2000/svg"><g clip-path="url(#a)"><g clip-path="url(#b)" fill="#182D3A"><path d="M4 2.649a3 3 0 0 0-3 3v2h2v12a3 3 0 0 0 3 3h14a3 3 0 0 0 3-3v-2H7v2a1 1 0 0 1-.883.993L6 20.649a1 1 0 0 1-.993-.883L5 19.649v-15h13a1 1 0 0 1 .993.883l.007.117v10h2v-10a3 3 0 0 0-3-3H4Z"/><path d="m11.694 8.283.306.305.306-.304a2.162 2.162 0 0 1 1.53-.634 2.175 2.175 0 0 1 1.531.628A2.14 2.14 0 0 1 16 9.798a2.13 2.13 0 0 1-.64 1.518L12 14.649l-3.36-3.335A2.142 2.142 0 0 1 8 9.796a2.129 2.129 0 0 1 .633-1.52 2.161 2.161 0 0 1 1.532-.627 2.174 2.174 0 0 1 1.53.634Z"/></g></g><defs><clipPath id="a"><path fill="#fff" transform="translate(0 .649)" d="M0 0h24v24H0z"/></clipPath><clipPath id="b"><path fill="#fff" transform="matrix(-1 0 0 1 24 .649)" d="M0 0h24v24H0z"/></clipPath></defs></svg>