<svg width="40" height="40" fill="none" xmlns="http://www.w3.org/2000/svg"><path d="M28.352 25.9c-.851-.968-2.444-2.425-2.444-7.197 0-3.625-2.399-6.526-5.634-7.238v-.972c0-.825-.63-1.493-1.409-1.493-.777 0-1.408.668-1.408 1.493v.972c-3.235.712-5.635 3.613-5.635 7.238 0 4.772-1.592 6.23-2.443 7.198-.264.3-.381.66-.379 1.012.005.765.572 1.493 1.414 1.493h16.903c.842 0 1.41-.727 1.414-1.492a1.505 1.505 0 0 0-.38-1.013Zm-16.378.267c.935-1.305 1.957-3.467 1.961-7.437l-.002-.027c0-2.886 2.208-5.225 4.932-5.225 2.725 0 4.933 2.34 4.933 5.225 0 .01-.003.018-.003.027.005 3.97 1.027 6.133 1.962 7.437H11.974Zm6.891 6.718c1.556 0 2.818-1.337 2.818-2.986h-5.635c0 1.65 1.262 2.986 2.817 2.986Z" fill="#000"/></svg>