<svg viewBox="0 0 15 15" fill="none" xmlns="http://www.w3.org/2000/svg">
<g id="Group 238887">
<path id="Rectangle 1" d="M8.62773 2.24041C9.30093 1.76799 9.63752 1.53178 10.0072 1.56871C10.3769 1.60564 10.6601 1.90377 11.2266 2.50002L12.6761 4.02586C13.1919 4.56879 13.4498 4.84026 13.4833 5.18236C13.5168 5.52446 13.3165 5.84079 12.9158 6.47346L11.8264 8.19352C11.5983 8.55373 11.4842 8.73383 11.3806 8.91826C11.0261 9.54949 10.759 10.2259 10.5864 10.929C10.536 11.1345 10.4962 11.3439 10.4166 11.7628L10.2609 12.5827C10.1578 13.1251 9.52499 13.3754 9.0788 13.0502C6.52372 11.1882 4.3249 8.88124 2.58763 6.23978L2.50137 6.10862C2.20047 5.65112 2.4546 5.03423 2.99044 4.92142L3.62723 4.78736C3.97949 4.7132 4.15561 4.67612 4.32834 4.63163C5.1441 4.42153 5.92156 4.0839 6.63198 3.63122C6.7824 3.53538 6.92973 3.43199 7.2244 3.22521L8.62773 2.24041Z" fill="currentColor" stroke="currentColor" stroke-width="2"/>
<path id="Vector 63" d="M1.5625 13.75L4.99023 10.3223" stroke="currentColor" stroke-width="2" stroke-linecap="round"/>
</g>
</svg>
