<svg viewBox="0 0 59 59" xmlns="http://www.w3.org/2000/svg" xml:space="preserve" style="fill-rule:evenodd;clip-rule:evenodd;stroke-linejoin:round;stroke-miterlimit:2"><path d="M29.266.392c-16.005 0-29 12.995-29 29 0 16.006 12.995 29 29 29 16.006 0 29-12.994 29-29 0-16.005-12.994-29-29-29Zm0 2c14.902 0 27 12.098 27 27s-12.098 27-27 27c-14.901 0-27-12.098-27-27s12.099-27 27-27Zm4.382 19.669c1.82-1.985 4.385-2.331 5.791-.949 1.324 1.381.993 4.057-.91 6.043 0 0-1.932 2.257-7.363 2.799v7.645c.894-2.603 2.068-3.624 2.068-3.624 1.82-1.986 4.385-2.331 5.792-.95 1.406 1.468.992 4.144-.828 6.043 0 0-1.781 2.324-7.032 3.01v5.624c0 .345-.828.69-1.241.69-.497 0-1.241-.345-1.241-.69V29.457c-7.323-2.364-9.515-6.273-9.515-6.273-2.482-3.454-2.482-7.943 0-9.842 2.482-1.986 6.536-.691 9.101 2.849 0 0 2.349 2.674 2.888 8.918.005.02.008.04.008.06v.037c.038.458.066.935.083 1.431.91-3.281 2.399-4.576 2.399-4.576Z"/></svg>