<svg class="tds-svg-icon--fill" viewBox="0 0 24 24" xmlns="http://www.w3.org/2000/svg"><path d="m13.828 1.686 8.486 8.486-1.415 1.414-.707-.707-4.242 4.242-.588 2.942a2 2 0 0 1-.548 1.022l-.279.28a1 1 0 0 1-1.414-.001l-3.535-3.536-4.243 4.243a1 1 0 1 1-1.414-1.414l4.243-4.243-3.536-3.535a1 1 0 0 1 0-1.414l.279-.28a2 2 0 0 1 1.022-.547L8.88 8.05l4.242-4.242-.707-.707 1.414-1.415h-.001Zm1.061 3.89a.5.5 0 0 0-.707 0L10.08 9.678a1 1 0 0 1-.51.273l-2.16.433a.2.2 0 0 0-.102.337l5.972 5.972a.2.2 0 0 0 .337-.103l.432-2.158a1 1 0 0 1 .273-.511l4.103-4.102a.5.5 0 0 0 0-.708L14.89 5.576Z"/></svg>