<svg class="tds-svg-icon--fill" viewBox="0 0 40 40" xmlns="http://www.w3.org/2000/svg"><path d="M22.055 25.508v3.671a.625.625 0 0 1-.169.429.523.523 0 0 1-.394.183h-3.376a.519.519 0 0 1-.394-.183.615.615 0 0 1-.168-.429v-3.671c0-.163.055-.306.168-.43a.52.52 0 0 1 .394-.182h3.376c.15 0 .28.061.394.182a.627.627 0 0 1 .169.43ZM26.5 16.33c0 .549-.074 1.064-.219 1.544-.144.479-.31.869-.492 1.17a4.311 4.311 0 0 1-.773.91 7.345 7.345 0 0 1-.81.667c-.206.137-.492.318-.858.542a2.874 2.874 0 0 0-.964.994c-.258.429-.387.77-.387 1.027a.846.846 0 0 1-.169.497c-.112.157-.242.236-.393.236h-3.376c-.14 0-.26-.094-.358-.283-.1-.188-.147-.38-.147-.574v-.688c0-.847.304-1.644.913-2.394.61-.75 1.279-1.303 2.012-1.661.553-.275.946-.561 1.182-.855.234-.297.351-.685.351-1.164 0-.428-.218-.805-.655-1.131a2.45 2.45 0 0 0-1.512-.491c-.61 0-1.115.149-1.519.445-.328.254-.83.841-1.505 1.758-.122.163-.267.246-.436.246a.63.63 0 0 1-.351-.123l-2.308-1.913a.604.604 0 0 1-.218-.381.647.647 0 0 1 .079-.429c1.499-2.713 3.674-4.069 6.526-4.069.75 0 1.504.158 2.265.473a7.537 7.537 0 0 1 2.053 1.271 6.241 6.241 0 0 1 1.491 1.951c.385.769.578 1.579.578 2.425Z"/></svg>