<svg width="30" height="30" fill="none" xmlns="http://www.w3.org/2000/svg"><path d="M16.553 18.719v2.812a.47.47 0 0 1-.13.328.398.398 0 0 1-.301.141h-2.586a.398.398 0 0 1-.302-.14.47.47 0 0 1-.13-.329V18.72a.47.47 0 0 1 .13-.328.398.398 0 0 1 .302-.141h2.586c.115 0 .215.047.301.14a.47.47 0 0 1 .13.329Zm3.405-7.032c0 .422-.056.817-.167 1.184a3.952 3.952 0 0 1-.377.897c-.14.23-.338.462-.593.697a5.556 5.556 0 0 1-.62.51c-.158.105-.377.244-.657.416a2.2 2.2 0 0 0-.738.761c-.198.328-.296.59-.296.785 0 .133-.044.26-.13.381-.086.121-.186.182-.301.182h-2.587c-.107 0-.199-.072-.274-.217a.94.94 0 0 1-.114-.44v-.527c0-.648.234-1.26.7-1.834.468-.574.982-.998 1.542-1.271.424-.211.725-.43.905-.656.18-.227.27-.524.27-.89 0-.33-.168-.618-.502-.868a1.88 1.88 0 0 0-1.158-.375c-.467 0-.855.113-1.164.34-.251.195-.636.644-1.153 1.347-.093.125-.205.188-.334.188a.487.487 0 0 1-.27-.094l-1.767-1.465a.496.496 0 0 1-.108-.621C11.216 8.04 12.883 7 15.066 7c.575 0 1.154.121 1.736.363a5.74 5.74 0 0 1 1.573.973 4.79 4.79 0 0 1 1.142 1.494c.295.59.442 1.21.442 1.857Z" fill="#1C4402"/></svg>