<svg viewBox="0 0 32 31" fill="none" xmlns="http://www.w3.org/2000/svg"><mask id="a" mask-type="alpha" maskUnits="userSpaceOnUse" x="0" y="4"><path fill-rule="evenodd" clip-rule="evenodd" d="M0 4.023h31.787v22.355H0V4.023Z" fill="#fff"/></mask><g mask="url(#a)"><path fill-rule="evenodd" clip-rule="evenodd" d="M3.925 16.981c-1.939-1.28-2.913-3.074-2.921-5.382-.008-2.31.676-4.138 2.048-5.487 1.374-1.35 3.102-2.027 5.182-2.034 2.083-.008 3.815.63 5.197 1.91 1.383 1.28 2.077 2.944 2.084 4.991.007 2.045-.63 4.064-1.914 6.056l-6.388 9.316L0 26.376l3.925-9.395Zm16.272-.054c-1.94-1.28-2.913-3.074-2.921-5.382-.009-2.31.675-4.138 2.048-5.487 1.373-1.35 3.1-2.027 5.182-2.034 2.082-.008 3.814.629 5.196 1.91 1.383 1.28 2.077 2.944 2.085 4.99.007 2.046-.63 4.065-1.915 6.057l-6.388 9.316-7.213.025 3.926-9.395Z" fill="#85B973"/></g></svg>