<svg class="tds-svg-icon--fill" viewBox="0 0 24 24" xmlns="http://www.w3.org/2000/svg"><path d="M4.593 13.562c-1.281-.845-1.924-2.031-1.93-3.556-.005-1.525.447-2.734 1.353-3.625.908-.891 2.049-1.339 3.424-1.344 1.376-.004 2.52.416 3.433 1.263.913.846 1.372 1.944 1.377 3.297.005 1.351-.417 2.685-1.265 4.001l-4.22 6.154L2 19.769l2.593-6.207Zm10.751-.037c-1.282-.845-1.925-2.031-1.93-3.556-.006-1.525.446-2.734 1.353-3.624.907-.892 2.049-1.34 3.424-1.345 1.375-.004 2.52.416 3.433 1.263.913.846 1.372 1.944 1.377 3.297.005 1.351-.417 2.685-1.265 4.001l-4.221 6.154-4.765.017 2.594-6.207Z"/></svg>