<svg class="tds-svg-icon--fill" viewBox="0 0 24 24" xmlns="http://www.w3.org/2000/svg"><path d="m5.112 12.79.919.395.333-.778-.712-.457-.54.84ZM3.54 9.97l-1 .004 1-.004Zm1.102-2.875-.692-.722.692.722ZM7.429 6.03l.004 1-.004-1Zm2.796 1.002-.67.742.67-.742Zm1.12 2.615-1 .003 1-.003Zm-1.029 3.173.818.576.008-.012.008-.012-.834-.552ZM6.88 17.701l.003 1 .517-.002.298-.423-.818-.575ZM3 17.714l-.919-.394-.6 1.399 1.522-.005-.003-1Zm12.765-4.953.92.394.333-.778-.712-.457-.54.841Zm-1.571-2.82 1-.003-1 .003Zm1.101-2.875.692.723-.692-.723ZM18.083 6l.004 1-.004-1Zm2.796 1.001-.671.742.67-.742ZM22 9.616l1-.003-1 .003Zm-1.03 3.174.818.576.008-.012.008-.012-.834-.552Zm-3.437 4.881.004 1 .517-.002.297-.422-.818-.576Zm-3.88.014-.919-.395-.6 1.4 1.523-.006-.004-1Zm-8-5.735c-.768-.493-1.11-1.123-1.113-1.983l-2 .007c.006 1.559.711 2.81 2.03 3.658l1.082-1.682ZM4.54 9.967c-.003-.99.289-1.667.793-2.15L3.95 6.374c-.972.93-1.415 2.171-1.41 3.6l2-.006Zm.793-2.149c.535-.512 1.21-.786 2.1-.789l-.007-2c-1.349.005-2.533.442-3.476 1.344l1.383 1.445Zm2.1-.789c.903-.003 1.585.26 2.121.744l1.34-1.484c-.95-.859-2.13-1.264-3.468-1.26l.007 2Zm2.122.744c.518.468.788 1.063.79 1.876l2-.007c-.004-1.332-.481-2.48-1.45-3.354l-1.34 1.485Zm.79 1.877c.004.842-.263 1.71-.863 2.618l1.668 1.103c.78-1.18 1.2-2.428 1.196-3.729l-2 .008ZM9.5 12.243l-3.437 4.882 1.636 1.151 3.436-4.881-1.635-1.152Zm-2.622 4.458-3.88.013.006 2 3.88-.013-.006-2Zm-2.958 1.407 2.112-4.923-1.838-.788L2.08 17.32l1.838.788Zm12.387-6.188c-.767-.493-1.11-1.122-1.112-1.982l-2 .007c.005 1.559.71 2.81 2.03 3.658l1.082-1.683Zm-1.112-1.983c-.004-.99.288-1.666.793-2.148l-1.383-1.445c-.972.93-1.416 2.17-1.41 3.6l2-.007Zm.793-2.149c.535-.512 1.21-.785 2.1-.788l-.007-2c-1.35.004-2.533.441-3.476 1.344l1.383 1.444Zm2.1-.788c.903-.003 1.585.259 2.121.743l1.341-1.484c-.95-.859-2.133-1.264-3.47-1.259l.008 2Zm2.122.744c.518.467.788 1.063.791 1.876l2-.007c-.005-1.332-.482-2.48-1.452-3.354l-1.34 1.485ZM21 9.62c.003.843-.264 1.71-.864 2.618l1.668 1.104c.781-1.181 1.2-2.429 1.196-3.73l-2 .008Zm-.847 2.594-3.437 4.882 1.635 1.15 3.437-4.88-1.635-1.152Zm-2.623 4.457-3.88.014.007 2 3.88-.014-.007-2Zm-2.958 1.408 2.112-4.924-1.838-.788-2.112 4.923 1.838.789Z"/></svg>