<svg xmlns="http://www.w3.org/2000/svg" viewBox="0 0 24 24" fill="currentColor">
    <g clip-path="url(#clip0_166_3423)">
        <path d="M17.9996 17.3613V22.3613H15.9996V17.3613C15.9996 12.9103 18.6436 9.07633 22.4466 7.34533L23.2746 9.16533C21.7013 9.88091 20.3673 11.0343 19.4319 12.4876C18.4965 13.941 17.9993 15.633 17.9996 17.3613ZM7.99961 17.3613V22.3613H5.99961V17.3613C5.99976 15.6331 5.50244 13.9414 4.56705 12.4882C3.63166 11.035 2.29774 9.88184 0.724609 9.16633L1.55261 7.34533C3.4753 8.21982 5.10561 9.62929 6.24883 11.4054C7.39205 13.1815 7.99984 15.2491 7.99961 17.3613ZM11.9996 12.3613C10.6735 12.3613 9.40176 11.8345 8.46408 10.8969C7.52639 9.95918 6.99961 8.68741 6.99961 7.36133C6.99961 6.03525 7.52639 4.76348 8.46408 3.82579C9.40176 2.88811 10.6735 2.36133 11.9996 2.36133C13.3257 2.36133 14.5975 2.88811 15.5351 3.82579C16.4728 4.76348 16.9996 6.03525 16.9996 7.36133C16.9996 8.68741 16.4728 9.95918 15.5351 10.8969C14.5975 11.8345 13.3257 12.3613 11.9996 12.3613ZM11.9996 10.3613C12.3936 10.3613 12.7837 10.2837 13.1477 10.133C13.5116 9.9822 13.8424 9.76122 14.1209 9.48265C14.3995 9.20407 14.6205 8.87336 14.7712 8.50938C14.922 8.1454 14.9996 7.75529 14.9996 7.36133C14.9996 6.96736 14.922 6.57725 14.7712 6.21328C14.6205 5.8493 14.3995 5.51858 14.1209 5.24001C13.8424 4.96143 13.5116 4.74045 13.1477 4.58969C12.7837 4.43893 12.3936 4.36133 11.9996 4.36133C11.204 4.36133 10.4409 4.6774 9.87829 5.24001C9.31568 5.80262 8.99961 6.56568 8.99961 7.36133C8.99961 8.15698 9.31568 8.92004 9.87829 9.48265C10.4409 10.0453 11.204 10.3613 11.9996 10.3613Z" />
    </g>
    <defs>
        <clipPath id="clip0_166_3423">
            <rect width="24" height="24" fill="white" transform="translate(0 0.361328)"/>
        </clipPath>
    </defs>
</svg>