<svg xmlns="http://www.w3.org/2000/svg" viewBox="0 0 24 24" fill="currentColor">
    <g clip-path="url(#clip0_166_3431)">
        <path d="M17 15.7645V22.6365C17 22.725 16.9766 22.8119 16.932 22.8883C16.8875 22.9647 16.8235 23.028 16.7465 23.0716C16.6696 23.1152 16.5824 23.1376 16.4939 23.1366C16.4055 23.1355 16.3189 23.111 16.243 23.0655L12 20.5195L7.757 23.0655C7.68104 23.111 7.59436 23.1355 7.50581 23.1366C7.41727 23.1376 7.33004 23.1151 7.25304 23.0714C7.17605 23.0276 7.11205 22.9642 7.06759 22.8877C7.02313 22.8111 6.9998 22.7241 7 22.6355V15.7655C5.70615 14.7296 4.76599 13.3174 4.30946 11.724C3.85293 10.1307 3.90256 8.43489 4.45149 6.87098C5.00043 5.30706 6.02156 3.95225 7.37378 2.99378C8.726 2.03531 10.3425 1.52051 12 1.52051C13.6575 1.52051 15.274 2.03531 16.6262 2.99378C17.9784 3.95225 18.9996 5.30706 19.5485 6.87098C20.0974 8.43489 20.1471 10.1307 19.6905 11.724C19.234 13.3174 18.2939 14.7296 17 15.7655V15.7645ZM9 16.9375V19.9875L12 18.1875L15 19.9875V16.9375C14.0468 17.323 13.0282 17.5206 12 17.5195C10.9718 17.5206 9.95316 17.323 9 16.9375ZM12 15.5195C13.5913 15.5195 15.1174 14.8874 16.2426 13.7621C17.3679 12.6369 18 11.1108 18 9.51951C18 7.92821 17.3679 6.40208 16.2426 5.27687C15.1174 4.15165 13.5913 3.51951 12 3.51951C10.4087 3.51951 8.88258 4.15165 7.75736 5.27687C6.63214 6.40208 6 7.92821 6 9.51951C6 11.1108 6.63214 12.6369 7.75736 13.7621C8.88258 14.8874 10.4087 15.5195 12 15.5195Z" />
    </g>
    <defs>
        <clipPath id="clip0_166_3431">
            <rect width="24" height="24" fill="white" transform="translate(0 0.519531)"/>
        </clipPath>
    </defs>
</svg>