<svg width="40" height="40" fill="none" xmlns="http://www.w3.org/2000/svg">
    <path fill-rule="evenodd" clip-rule="evenodd"
        d="M20.642 15.146a.5.5 0 0 1 0 .708l-1.673 1.673a.5.5 0 0 1-.707 0l-1.116-1.116a.5.5 0 0 1 .708-.707l.761.762 1.32-1.32a.5.5 0 0 1 .707 0Z"
        fill="currentColor" />
    <path fill-rule="evenodd" clip-rule="evenodd"
        d="m17.079 18.374 2.223 1.52 2.216-1.52c.272-.185.55-.506.761-.91.21-.402.317-.818.317-1.153v-3.166l-3.302-1.624L16 13.14v3.17c0 .336.107.751.317 1.154.211.404.49.724.762.91Zm1.984-6.967.003.002a.05.05 0 0 0-.003-.002Zm4.273.988a.477.477 0 0 1 .26.438v3.478c0 1.053-.643 2.295-1.514 2.89l-2.507 1.718a.48.48 0 0 1-.545 0l-2.515-1.72c-.87-.593-1.515-1.835-1.515-2.888v-3.484a.476.476 0 0 1 .26-.438l3.821-1.877a.48.48 0 0 1 .426 0l3.829 1.883Z"
        fill="currentColor" />
    <path fill-rule="evenodd" clip-rule="evenodd"
        d="M13.904 7a3 3 0 0 0-3 3v15.635h11.27a1 1 0 0 1 1 1v2.788c0 .736.352 1.294.912 1.701a3.542 3.542 0 0 0 1.99.645c1.014 0 1.55-.4 1.866-.839.354-.49.481-1.11.481-1.507V9.346c0-.941.198-1.72.53-2.346h-15.05Zm0-2a5 5 0 0 0-5 5v15.635H6a1 1 0 0 0-1 1v2.788c0 .929.151 1.904.75 2.724.613.837 1.572 1.349 2.842 1.603.658.131 1.862.198 3.265.233 1.436.036 3.174.04 4.957.023 3.553-.032 7.315-.143 9.288-.237 1.65-.007 2.78-.72 3.463-1.67.651-.904.858-1.958.858-2.676V14.25H35a1 1 0 0 0 1-1V8.788c0-1.357-.463-2.34-1.168-2.974A3.16 3.16 0 0 0 32.77 5H13.904Zm16.52 7.25H34V8.788c0-.873-.28-1.284-.505-1.487A1.168 1.168 0 0 0 32.769 7h-.557a1.77 1.77 0 0 0-1.09.426c-.336.29-.699.838-.699 1.92v2.904Zm-8.388 19.66a3.921 3.921 0 0 1-.863-2.487v-1.788H7v1.788c0 .744.128 1.219.365 1.543.224.306.659.63 1.62.823.458.091 1.485.159 2.922.195 1.404.035 3.117.038 4.89.022 1.779-.016 3.61-.052 5.239-.096Z"
        fill="currentColor" />
    <path fill-rule="evenodd" clip-rule="evenodd"
        d="M13.308 23.288a.5.5 0 0 1 .5-.5h11.154a.5.5 0 1 1 0 1H13.808a.5.5 0 0 1-.5-.5Z" fill="currentColor" />
</svg>