<svg width="31" height="31" fill="currentColor" xmlns="http://www.w3.org/2000/svg">
    <path
        d="M22.703 13.783h-1.62c-.203 0-.506-.1-.608-.4-.101-.2 0-.5.101-.6l1.114-1.1c.203-.2.203-.4.203-.6 0-.2-.102-.4-.203-.6l-1.417-1.4c-.304-.3-.912-.3-1.215 0l-1.114 1.1c-.101.1-.304.2-.405.2-.203 0-.304-.1-.405-.2-.101-.1-.203-.2-.203-.4v-1.6c0-.5-.405-.9-.91-.9h-2.026c-.506 0-.911.4-.911.9v1.6c0 .4-.304.6-.607.6-.102 0-.304 0-.405-.2l-.912-1.1c-.304-.3-.911-.3-1.215 0l-1.417 1.4c-.203.2-.203.4-.203.6 0 .2.101.4.203.6l1.113 1.1c.203.2.203.4.102.6-.102.2-.304.4-.608.4h-1.62c-.506 0-.911.4-.911.9v2c0 .5.405.9.911.9h1.62c.203 0 .506.1.608.4.1.2 0 .5-.102.6l-1.113 1.1c-.203.2-.203.4-.203.6 0 .2.101.4.203.6l1.417 1.4c.304.3.911.3 1.215 0l1.114-1.1c.101-.1.304-.2.405-.2.304 0 .607.2.607.6v1.6c0 .5.405.9.912.9h2.025c.506 0 .911-.4.911-.9v-1.6c0-.4.304-.6.607-.6.102 0 .304 0 .405.2l1.114 1.1c.304.3.912.3 1.215 0l1.418-1.4c.202-.2.202-.4.202-.6 0-.2-.101-.4-.202-.6l-1.114-1.1c-.203-.2-.203-.4-.101-.6.101-.2.303-.4.607-.4h1.62c.506 0 .912-.4.912-.9v-2c-.203-.5-.608-.9-1.114-.9Zm-4.556 1.9c0 1.6-1.317 3-3.038 3-1.62 0-3.037-1.3-3.037-3 0-1.6 1.316-3 3.037-3 1.721 0 3.037 1.3 3.037 3Z"
        fill="currentColor" />
</svg>