<svg class="tds-svg-icon--fill" viewBox="0 0 40 40" xmlns="http://www.w3.org/2000/svg"><path d="M17.98 27.7c0 .038.004.132.014.283.009.151.011.276.007.375-.005.099-.019.21-.042.333a.473.473 0 0 1-.141.276.423.423 0 0 1-.287.092h-4.49c-1.113 0-2.065-.399-2.855-1.196C9.395 27.066 9 26.105 9 24.982v-9.964c0-1.123.395-2.083 1.186-2.881.79-.797 1.742-1.196 2.855-1.196h4.49c.121 0 .226.045.315.135a.436.436 0 0 1 .134.318c0 .038.004.132.014.283.009.151.011.276.007.375-.005.099-.019.21-.042.333a.473.473 0 0 1-.141.276.423.423 0 0 1-.287.092h-4.49c-.618 0-1.146.222-1.586.665a2.194 2.194 0 0 0-.659 1.6v9.964c0 .623.22 1.156.659 1.6.44.443.968.665 1.586.665h4.377l.162.014.161.043.112.078.099.127.028.191ZM31 20a.874.874 0 0 1-.267.637l-7.632 7.7a.861.861 0 0 1-.632.269.86.86 0 0 1-.631-.269.874.874 0 0 1-.267-.637v-4.076h-6.285a.861.861 0 0 1-.632-.269.878.878 0 0 1-.266-.637v-5.436c0-.245.089-.457.266-.636a.857.857 0 0 1 .632-.269h6.285V12.3c0-.245.089-.458.267-.637a.86.86 0 0 1 .631-.269c.244 0 .454.09.632.269l7.632 7.7A.874.874 0 0 1 31 20Z"/></svg>