<svg viewBox="1 0 24 24" fill="currentColor" xmlns="http://www.w3.org/2000/svg"><path d="M19.599 19.103h-2.776v-4.35c0-1.038-.02-2.374-1.448-2.374-1.447 0-1.668 1.13-1.668 2.297v4.427H10.93v-8.947h2.667v1.219h.036c.373-.702 1.28-1.445 2.634-1.445 2.812 0 3.333 1.852 3.333 4.262v4.911h-.001ZM7.795 8.933a1.61 1.61 0 0 1-1.34-2.51 1.612 1.612 0 1 1 1.339 2.51Zm1.391 10.17H6.402v-8.947h2.785v8.947ZM20.99 3.125H5.01c-.767 0-1.385.604-1.385 1.351v16.048c0 .747.619 1.351 1.383 1.351h15.977c.765 0 1.39-.604 1.39-1.351V4.476c0-.747-.625-1.351-1.39-1.351h.005Z" /></svg>