<svg class="tds-svg-icon--fill" viewBox="0 0 40 40" style="fill-rule:evenodd;clip-rule:evenodd;stroke-linejoin:round;stroke-miterlimit:2" xmlns="http://www.w3.org/2000/svg"><path d="M23.614 13.818c1.349-1.472 3.25-1.728 4.293-.703.982 1.023.736 3.008-.675 4.479 0 0-1.432 1.674-5.459 2.076v5.667c.664-1.929 1.534-2.686 1.534-2.686 1.349-1.473 3.251-1.729 4.294-.704 1.042 1.088.735 3.071-.614 4.479 0 0-1.32 1.723-5.214 2.232v4.17c0 .255-.613.51-.92.51-.367 0-.919-.255-.919-.51V19.301c-5.429-1.753-7.054-4.65-7.054-4.65-1.84-2.561-1.84-5.889 0-7.297 1.84-1.472 4.845-.513 6.747 2.113 0 0 1.741 1.982 2.141 6.611a.23.23 0 0 1 .005.045v.027c.029.339.05.693.063 1.061.674-2.433 1.778-3.393 1.778-3.393Z"/></svg>