<svg class="tds-svg-icon--fill" viewBox="0 0 24 24" fill="currentColor" xmlns="http://www.w3.org/2000/svg">
    <g clip-path="url(#a)">
        <path fill-rule="evenodd" clip-rule="evenodd"
            d="M15.61 9.066a.75.75 0 0 1-.59-.429l-2.402-5.172a.75.75 0 0 0-1.361 0L8.855 8.637a.75.75 0 0 1-.59.429l-5.662.686a.75.75 0 0 0-.42 1.294l4.177 3.883a.75.75 0 0 1 .225.693L5.488 21.22a.75.75 0 0 0 1.101.8l4.984-2.773a.75.75 0 0 1 .729 0l4.983 2.773a.75.75 0 0 0 1.101-.8l-1.097-5.597a.75.75 0 0 1 .226-.693l4.177-3.883a.75.75 0 0 0-.42-1.294l-5.662-.686Zm2.748 2.348-4.508-.547-1.913-4.119-1.913 4.12-4.508.546 3.326 3.092-.873 4.456 3.968-2.208 3.969 2.208-.874-4.456 3.326-3.092Z"
            fill="currentColor" />
    </g>
    <defs>
        <clipPath id="a">
            <path fill="#fff" d="M0 0h24v24H0z" />
        </clipPath>
    </defs>
</svg>