<svg viewBox="0 0 34 34" fill="none" xmlns="http://www.w3.org/2000/svg">
    <path
        d="M12.75 1.417V4.25h8.5V1.417h2.833V4.25h5.667a1.416 1.416 0 0 1 1.417 1.417v22.666a1.417 1.417 0 0 1-1.417 1.417H4.25a1.417 1.417 0 0 1-1.417-1.417V5.667A1.417 1.417 0 0 1 4.25 4.25h5.667V1.417h2.833Zm15.583 12.75H5.667v12.75h22.666v-12.75Zm-7.032 1.609 2.003 2.003-7.012 7.013-5.01-5.01 2.006-2.003 3.005 3.006 5.01-5.009H21.3ZM9.917 7.083h-4.25v4.25h22.666v-4.25h-4.25V8.5H21.25V7.083h-8.5V8.5H9.917V7.083Z"
        fill="currentColor" />
</svg>