<svg width="40" height="40" fill="currentColor" xmlns="http://www.w3.org/2000/svg">
    <path
        d="M37.38 12.124a1.025 1.025 0 0 0-1.348.535l-.322.749a16.25 16.25 0 0 0-4.973-6.593 15.985 15.985 0 0 0-9.975-3.447 16.177 16.177 0 0 0-10.23 3.652 16.166 16.166 0 0 0-5.561 9.128 1.026 1.026 0 0 0 .791 1.215c.685.022 1.113-.31 1.215-.792a14.11 14.11 0 0 1 4.854-7.965 14.122 14.122 0 0 1 8.93-3.188c3.194 0 6.206 1.04 8.708 3.009a14.18 14.18 0 0 1 4.49 6.13L32.66 14a1.026 1.026 0 0 0-.81 1.884l3.298 1.418c.593.183 1.094.081 1.347-.536l1.42-3.294a1.025 1.025 0 0 0-.535-1.347ZM35.89 20.274a1.025 1.025 0 0 0-1.14.897c-.843 7.06-6.857 12.385-13.988 12.385-3.28 0-6.474-1.15-8.993-3.238a14.122 14.122 0 0 1-4.585-7.072l1.225.673a1.025 1.025 0 1 0 .987-1.797L6.25 20.393a1.025 1.025 0 0 0-1.392.404l-1.73 3.143a1.025 1.025 0 0 0 .403 1.393c.64.293 1.137.023 1.393-.404l.402-.73a16.184 16.184 0 0 0 5.134 7.697 16.171 16.171 0 0 0 10.302 3.71c8.17 0 15.058-6.1 16.023-14.193a1.025 1.025 0 0 0-.896-1.139Z"
        fill="currentColor" />
    <path fill-rule="evenodd" clip-rule="evenodd"
        d="M20.797 9.8c-2.448 0-4.571 1.537-5.23 3.705-1.883.315-3.367 1.855-3.367 3.777v.014a3.877 3.877 0 0 0 2.553 3.551c.213 1.736 1.728 3.048 3.512 2.998.062 0 .123-.001.185-.004a27 27 0 0 1-.235 4.035l-.092.683 4.81-.028-.152-.72a28.129 28.129 0 0 1-.552-3.994c.153.02.307.029.463.028a3.484 3.484 0 0 0 3.354-2.301 3.93 3.93 0 0 0 3.17-3.752v-.033a3.93 3.93 0 0 0-3.053-3.7C25.729 11.62 23.464 9.8 20.797 9.8Zm-1.31 17.551c.138-1.267.19-2.539.157-3.81a37.914 37.914 0 0 0-.01-.409l-.02-.754-.73.19a2.441 2.441 0 0 1-.623.077h-.022a2.23 2.23 0 0 1-2.31-2.134v-.59l-.46-.11a2.682 2.682 0 0 1-2.069-2.535c.004-1.355 1.15-2.528 2.684-2.623l.457-.029.093-.449c.37-1.787 2.078-3.175 4.163-3.175 2.276 0 4.075 1.641 4.23 3.622l.038.497.496.053a2.733 2.733 0 0 1 2.455 2.607 2.734 2.734 0 0 1-2.494 2.63l-.434.04-.096.426a2.28 2.28 0 0 1-2.282 1.77h-.018a2.437 2.437 0 0 1-.888-.161l-.848-.325.034.907c.052 1.429.21 2.855.474 4.274l-1.977.011Z"
        fill="currentColor" />
</svg>