<svg width="24" height="25" viewBox="0 0 24 25" fill="none" xmlns="http://www.w3.org/2000/svg">
<g clip-path="url(#clip0_1395_281351)">
<g clip-path="url(#clip1_1395_281351)">
<path d="M11 7.47437H13V17.4744H11V7.47437ZM15 11.4744H17V17.4744H15V11.4744ZM7 13.4744H9V17.4744H7V13.4744ZM15 4.47437H5V20.4744H19V8.47437H15V4.47437ZM3 3.46637C3 2.91837 3.447 2.47437 3.999 2.47437H16L21 7.47437V21.4674C21.0009 21.5987 20.976 21.7289 20.9266 21.8506C20.8772 21.9723 20.8043 22.083 20.7121 22.1765C20.6199 22.27 20.5101 22.3445 20.3892 22.3956C20.2682 22.4467 20.1383 22.4734 20.007 22.4744H3.993C3.73038 22.4725 3.47902 22.3675 3.29322 22.1819C3.10742 21.9962 3.00209 21.745 3 21.4824V3.46637Z" fill="#02437D"/>
</g>
</g>
<defs>
<clipPath id="clip0_1395_281351">
<rect width="24" height="24" fill="currentColor" transform="translate(0 0.474365)"/>
</clipPath>
<clipPath id="clip1_1395_281351">
<rect width="24" height="24" fill="currentColor" transform="translate(0 0.474365)"/>
</clipPath>
</defs>
</svg>
