<svg width="40" height="40" fill="none" xmlns="http://www.w3.org/2000/svg">
    <path fill-rule="evenodd" clip-rule="evenodd"
        d="M18.252 5a.9.9 0 0 0-.805.498c-.337.674-.404 1.309-.296 1.874a2.258 2.258 0 0 0-1.88 3.512 2.258 2.258 0 0 0-2.555 3.056 2.072 2.072 0 0 0-1.39 3.518l.707.723a2.072 2.072 0 0 0-2.662 3.152l1.176 1.203-5.283 5.283a.9.9 0 0 0 1.272 1.273l5.354-5.354a2.072 2.072 0 0 0 2.59-3.074 2.072 2.072 0 0 0 3.327-2.044 2.257 2.257 0 0 0 2.4-2.787 2.259 2.259 0 0 0 2.668-3.576l-.02-.02 3.82-3.821a.999.999 0 1 1 1.413 1.412l-.804.804-.01.01-1.066 1.066-.005.006-1.069 1.068a.9.9 0 0 0 1.273 1.273l2.146-2.146a.809.809 0 0 1 1.138 1.15l-.517.517-.012.012-.269.268-.006.007-1.605 1.604a.9.9 0 0 0 1.273 1.273l1.887-1.886a.999.999 0 0 1 1.405 1.419l-1.88 1.88a.9.9 0 1 0 1.273 1.272l1.074-1.074a.62.62 0 0 1 .876.876l-6.982 6.981a.911.911 0 0 0-.084.096c-.335.448-1.833 1.645-4.523 1.26a.9.9 0 0 0-.763.255l-1.603 1.603a1.07 1.07 0 0 0-.018.018l-4.824 4.824a.9.9 0 1 0 1.273 1.272l4.24-4.239c.383.25.848.456 1.362.602.851.242 1.9.341 3.11.196l3.441 3.441a.9.9 0 1 0 1.273-1.272l-3.76-3.76a.9.9 0 0 0-.784-.251c-1.17.195-2.108.108-2.788-.085a3.736 3.736 0 0 1-.532-.194l.574-.574c3.007.282 4.98-1.024 5.72-1.96l6.94-6.94a2.42 2.42 0 0 0-.713-3.916 2.8 2.8 0 0 0-2.043-3.759 2.605 2.605 0 0 0-1.68-2.785 2.799 2.799 0 0 0-3.519-3.577 7.363 7.363 0 0 0-1.477-1.04C24.5 5.148 24.003 5 23.622 5h-5.37Zm3.344 5.95.928-.928H20.69l.906.927ZM25 7.546l-1.551 1.55a.9.9 0 0 0-.9-.875h-2.497c-.319-.153-.692-.412-.924-.731-.146-.2-.241-.42-.22-.691h4.715l.005.001c.037.007.233.043.574.22.223.116.493.285.798.526Zm-12.004 14.14-1.948-1.993a.272.272 0 0 0-.389.38l1.948 1.993a.272.272 0 0 0 .389-.38ZM13 15.82l2.974 3.04a.272.272 0 1 1-.39.38l-2.972-3.04a.272.272 0 0 1 .388-.38Zm5.341.232-3.205-3.278a.458.458 0 0 0-.655.64l3.206 3.278a.458.458 0 0 0 .654-.64Zm-.866-6.742 4.112 4.205a.458.458 0 0 1-.655.64L16.821 9.95a.458.458 0 1 1 .655-.64Z"
        fill="currentColor" />
</svg>