<svg viewBox="0 0 34 34" fill="none" xmlns="http://www.w3.org/2000/svg">
    <path
        d="M17.167 15.75a7.083 7.083 0 0 1 7.083 7.083v8.5h-2.833v-8.5a4.25 4.25 0 0 0-4.001-4.243l-.25-.007a4.25 4.25 0 0 0-4.242 4.001l-.007.25v8.5h-2.834v-8.5a7.083 7.083 0 0 1 7.084-7.084ZM7.958 20c.396 0 .78.047 1.148.133a8.425 8.425 0 0 0-.427 2.231l-.012.47v.121a2.112 2.112 0 0 0-.505-.113l-.204-.009a2.125 2.125 0 0 0-2.115 1.921l-.01.204v6.375H3v-6.375A4.958 4.958 0 0 1 7.958 20Zm18.417 0a4.958 4.958 0 0 1 4.958 4.958v6.375H28.5v-6.375a2.125 2.125 0 0 0-1.921-2.115l-.204-.01c-.248 0-.486.043-.708.12v-.12c0-.943-.153-1.85-.438-2.697.367-.09.75-.136 1.146-.136ZM7.958 11.5a3.542 3.542 0 1 1 0 7.083 3.542 3.542 0 0 1 0-7.083Zm18.417 0a3.542 3.542 0 1 1 0 7.083 3.542 3.542 0 0 1 0-7.083ZM7.958 14.333a.708.708 0 1 0 0 1.417.708.708 0 0 0 0-1.417Zm18.417 0a.709.709 0 1 0 0 1.418.709.709 0 0 0 0-1.418ZM17.167 3a5.667 5.667 0 1 1 0 11.333 5.667 5.667 0 0 1 0-11.333Zm0 2.833a2.833 2.833 0 1 0 0 5.667 2.833 2.833 0 0 0 0-5.667Z"
        fill="currentColor" />
</svg>