<svg width="40" height="40" fill="none" xmlns="http://www.w3.org/2000/svg">
    <path
        d="M22.432 25.494a.645.645 0 0 0 1.292 0 1.29 1.29 0 0 1 1.418-1.282c.855.08 1.323 1.06 1.064 1.887-.11.349-.441 1.41-3.61 4.96a.644.644 0 0 0 .482 1.074h3.874a.645.645 0 1 0 0-1.29h-2.454c2.182-2.554 2.724-3.67 2.94-4.36.499-1.588-.472-3.394-2.174-3.555a2.582 2.582 0 0 0-2.832 2.566ZM27.597 9.639a2.583 2.583 0 0 0-5.165 0 .645.645 0 0 0 1.292 0 1.292 1.292 0 0 1 2.582 0c0 .71-.58 1.289-1.291 1.289a.645.645 0 1 0 0 1.289c.712 0 1.291.578 1.291 1.289a1.292 1.292 0 0 1-2.582 0 .645.645 0 0 0-1.292 0 2.583 2.583 0 0 0 5.165 0c0-.77-.339-1.46-.876-1.934a2.571 2.571 0 0 0 .876-1.933ZM14.212 15a.647.647 0 0 1 1.118.44v8.12a.645.645 0 0 1-1.29 0V17.08l-1.465 1.571a.646.646 0 0 1-.945-.878l2.582-2.771Z"
        fill="currentColor" />
    <path fill-rule="evenodd" clip-rule="evenodd"
        d="M34.669 19.698a.644.644 0 0 0-.237-.72l-2.917-2.103a8.32 8.32 0 0 0 1.894-5.303C33.409 7.077 29.772 3 25.015 3c-4.515 0-8.17 3.725-8.383 8.155a8.406 8.406 0 0 0-1.947-.227c-4.676 0-8.394 3.98-8.394 8.572 0 1.99.693 3.98 1.88 5.472l-2.883 1.92a.644.644 0 0 0 .358 1.18h9.039c.66 0 1.311-.08 1.946-.237.21 4.448 3.879 8.165 8.384 8.165h9.04a.646.646 0 0 0 .357-1.18l-2.884-1.92c1.188-1.491 1.88-3.483 1.88-5.472 0-3.063-1.624-5.764-4-7.284h4.646c.28 0 .529-.18.615-.446Zm-2.552 7.73c0 1.93-.756 3.855-2.023 5.149a.645.645 0 0 0 .104.987l1.724 1.147h-6.907c-3.85 0-7.102-3.335-7.102-7.283v-.029c2.784-1.207 4.777-3.893 5.113-6.971a7.105 7.105 0 0 1 1.99-.284c3.849 0 7.101 3.336 7.101 7.284Zm-7.102-8.573c-1.924 0-3.527-.991-4.532-1.823a.647.647 0 0 0-.909.084.644.644 0 0 0 .085.908c.558.461 1.277.965 2.127 1.366v.11c0 .132-.003.27-.011.409-.209 3.699-3.278 6.874-7.09 6.874H7.778l1.724-1.147a.644.644 0 0 0 .104-.987C8.339 23.355 7.583 21.43 7.583 19.5c0-3.948 3.252-7.283 7.102-7.283.68 0 1.346.096 1.99.283a8.4 8.4 0 0 0 .116.752.646.646 0 0 0 1.265-.257 7.266 7.266 0 0 1-.143-1.423c0-3.948 3.253-7.283 7.102-7.283 3.85 0 7.102 3.335 7.102 7.283a7.045 7.045 0 0 1-2.023 4.956.645.645 0 0 0 .084.973l1.88 1.354h-7.043Z"
        fill="currentColor" />
</svg>