<svg viewBox="0 0 40 40" fill="none" xmlns="http://www.w3.org/2000/svg">
    <path
        d="M25.867 13.27H13.969v1.529h11.898v-1.53ZM13.969 16.499h11.898v1.53H13.969v-1.53ZM25.867 19.728H13.969v1.53h11.898v-1.53Z"
        fill="#000" />
    <path fill-rule="evenodd" clip-rule="evenodd"
        d="M10.552 8h18.732a3.558 3.558 0 0 1 3.552 3.556v11.476a3.558 3.558 0 0 1-3.552 3.556H18.015l-5.832 4.064a1.046 1.046 0 0 1-1.644-.858v-3.206A3.558 3.558 0 0 1 7 23.032V11.556A3.558 3.558 0 0 1 10.552 8Zm2.079 18.588a2.091 2.091 0 0 0-2.084-2.09 1.467 1.467 0 0 1-1.456-1.466V11.556c0-.808.66-1.465 1.461-1.465h18.732c.802 0 1.46.657 1.46 1.465v11.476c0 .808-.659 1.465-1.46 1.465H18.015c-.427 0-.844.131-1.195.376l-4.19 2.918v-1.203Z"
        fill="currentColor" />
</svg>