<svg width="17" height="20" fill="none" xmlns="http://www.w3.org/2000/svg">
    <path
        d="M14.336 7.8a1.166 1.166 0 0 0-.909-.161L4.42 9.502 3.842 6.99c-.166-.81 0-1.62.495-2.35.496-.729 1.157-1.134 1.984-1.377.826-.162 1.652 0 2.396.486.744.487 1.157 1.135 1.405 1.945.082.243.165.405.33.486.166.081.414.162.579.081l.743-.162c.248-.08.414-.162.496-.324.083-.162.165-.405.083-.567-.33-1.459-1.157-2.593-2.397-3.484C8.634.914 7.23.67 5.742.914c-1.487.324-2.644 1.134-3.553 2.35-.826 1.296-1.074 2.673-.826 4.132l.578 2.511-.413.082c-.33.08-.579.243-.744.486a1.107 1.107 0 0 0-.165.891l1.487 6.887c.083.324.248.567.496.73.248.162.578.243.909.162l11.734-2.431c.33-.081.579-.243.744-.486.165-.243.248-.568.165-.892L14.667 8.45c.082-.243-.083-.486-.33-.648Zm-2.81 6.726c-.082 0-.082 0 0 0h-.082l-1.818.324c-.083 0-.165.081-.083.162l.33.81c0 .082 0 .163-.082.244l-1.157.243c-.082 0-.165-.081-.165-.162l-.083-.892c0-.08-.082-.162-.165-.162l-1.9.405a1.404 1.404 0 0 1-1.653-1.053c-.165-.648.248-1.296.826-1.54-.165-1.053.579-2.025 1.653-2.268.826-.162 1.735.162 2.148.81.166-.162.331-.243.496-.324.496-.081.992.162 1.075.648.66-.162 1.322.081 1.57.648.495.973-.083 1.945-.91 2.107Z"
        fill="currentColor" />
</svg>