<svg class="tds-svg-icon--fill" viewBox="0 0 40 40" xmlns="http://www.w3.org/2000/svg"><path d="M28.771 16.756c-.364-.237-.854-.355-1.34-.237l-13.278 2.744-.852-3.702c-.246-1.196 0-2.388.726-3.461.733-1.076 1.711-1.674 2.928-2.036 1.219-.236 2.437 0 3.531.721 1.099.718 1.706 1.671 2.071 2.865.124.36.246.598.488.715.244.124.609.242.856.124l1.093-.241c.366-.12.61-.238.732-.479.121-.238.245-.596.121-.835-.487-2.149-1.705-3.822-3.531-5.135-1.95-1.194-4.022-1.556-6.213-1.194-2.194.48-3.9 1.674-5.24 3.459-1.218 1.917-1.583 3.946-1.218 6.095l.853 3.705-.612.122c-.487.117-.852.355-1.092.714a1.623 1.623 0 0 0-.247 1.313l2.192 10.155c.124.477.365.838.731 1.076.367.238.853.358 1.339.238l17.304-3.583c.486-.12.852-.359 1.096-.717a1.64 1.64 0 0 0 .244-1.315l-2.192-10.153c.121-.361-.124-.716-.49-.958Zm-4.144 9.916c-.118 0-.118 0 0 0h-.118l-2.681.478c-.124 0-.243.12-.124.242l.488 1.194c0 .118 0 .237-.121.357l-1.705.358c-.121 0-.246-.119-.246-.238l-.121-1.316c0-.12-.12-.238-.244-.238l-2.8.597c-1.096.24-2.195-.479-2.435-1.554-.246-.953.367-1.91 1.218-2.266-.245-1.555.852-2.988 2.436-3.347 1.218-.239 2.557.24 3.164 1.194.247-.237.49-.359.733-.479.732-.119 1.464.242 1.583.957.973-.24 1.95.12 2.317.954.729 1.436-.124 2.868-1.344 3.107Z"/></svg>