<svg fill="currentColor" xmlns="http://www.w3.org/2000/svg" viewBox="1 1 22 22"><g clip-path="url(#a)"><path d="m10.6 16.894-.278 2.154c0 .196.092.391.37.391h2.595c.186 0 .371-.195.371-.391l-.278-2.154c0-.196.093-.392.278-.392h4.263c1.946 0 3.522-1.958 2.966-4.112-.37-1.468-1.668-2.447-3.059-2.35-.092-1.174-1.019-2.055-2.131-2.055-.463 0-.927.196-1.297.49-.65-1.763-2.318-3.036-4.264-3.036-2.502 0-4.448 2.056-4.634 4.602C4.112 10.334 3 11.607 3 13.27c0 1.763 1.39 3.231 3.058 3.231h4.264c.185 0 .37.196.278.392Z"/></g><defs><clipPath id="a"><path fill="#000" transform="translate(0 .44)" d="M0 0h24v24H0z"/></clipPath></defs></svg>