<svg class="tds-svg-icon--fill" viewBox="0 0 32 32" xmlns="http://www.w3.org/2000/svg"><path fill-rule="evenodd" clip-rule="evenodd" d="M14.76 5.131a6.052 6.052 0 0 0-2.43-.506c-3.003 0-5.507 2.188-6.06 5.082-2.31.158-4.14 2.115-4.14 4.51 0 2.071 1.363 3.811 3.226 4.349l-.002.086a2.111 2.111 0 0 0-.003.086c0 2.1 1.672 3.806 3.74 3.806.786 0 1.515-.248 2.118-.67v5.448h2.017v-4.59a5.03 5.03 0 0 1-1.914-3.323 5.724 5.724 0 0 1-3.266-5.191c0-2.706 1.859-4.992 4.374-5.58a7.529 7.529 0 0 1 2.34-3.507Zm1.131.645a6.311 6.311 0 0 0-2.501 3.931c-2.309.158-4.14 2.115-4.14 4.51 0 2.071 1.363 3.811 3.226 4.348 0 .03 0 .058-.002.087l-.002.086c0 1.846 1.292 3.388 3.01 3.733 1.499-.302 2.676-1.52 2.947-3.058 2.181-.276 3.876-2.178 3.876-4.48 0-2.283-1.659-4.166-3.817-4.477a6.316 6.316 0 0 0-2.597-4.68Z"/><path fill-rule="evenodd" clip-rule="evenodd" d="M20.346 22.212c.466.213.983.332 1.527.332 1.836 0 3.362-1.351 3.676-3.13 2.181-.277 3.876-2.18 3.876-4.482 0-2.282-1.659-4.165-3.817-4.476-.232-3.258-2.899-5.831-6.157-5.831-3.004 0-5.507 2.188-6.062 5.082-2.308.158-4.14 2.115-4.14 4.51 0 2.071 1.364 3.811 3.227 4.349l-.002.086c-.002.028-.003.056-.003.086 0 2.1 1.672 3.806 3.74 3.806.786 0 1.516-.248 2.118-.67v5.448h2.017v-5.11Z"/></svg>