<svg class="tds-svg-icon--fill" viewBox="0 0 24 24" xmlns="http://www.w3.org/2000/svg"><path fill-rule="evenodd" clip-rule="evenodd" d="m18.089 8.754.104 1.376 1.363.185c1.049.142 1.744.975 1.744 1.86 0 .892-.714 1.734-1.767 1.86l-1.24.147-.23 1.231c-.106.568-.66 1.092-1.426 1.092-.466 0-.864-.197-1.125-.486l-1.26-1.398-1.262 1.398c-.26.29-.659.486-1.124.486-.872 0-1.444-.653-1.451-1.3v-.012c.001-.021.004-.076.004-.137V13.75l-1.256-.341c-.895-.243-1.463-.997-1.463-1.802 0-.927.772-1.803 1.897-1.876l1.297-.083.26-1.277c.298-1.467 1.683-2.667 3.442-2.667 1.913 0 3.369 1.41 3.493 3.049Zm-2.739 9.194a3.25 3.25 0 0 0 1.287.262c1.546 0 2.833-1.07 3.097-2.482C21.572 15.51 23 14 23 12.175c0-1.81-1.398-3.304-3.216-3.55C19.589 6.04 17.34 4 14.596 4c-2.531 0-4.64 1.736-5.108 4.03C7.543 8.157 6 9.709 6 11.609c0 1.642 1.149 3.022 2.718 3.448l-.001.068-.002.069c0 1.665 1.409 3.018 3.15 3.018.663 0 1.278-.197 1.785-.532V22h1.7v-4.052Z"/><path fill-rule="evenodd" clip-rule="evenodd" d="m8.72 15.21-.73.809c-.26.29-.659.486-1.124.486-.872 0-1.444-.653-1.451-1.3v-.012c.001-.021.003-.076.003-.137V13.75l-1.255-.341c-.895-.243-1.463-.997-1.463-1.802 0-.927.771-1.803 1.897-1.876l1.297-.083.26-1.277c.298-1.467 1.683-2.667 3.442-2.667.333 0 .652.043.953.122.423-.494.945-.91 1.538-1.218A5.351 5.351 0 0 0 9.596 4c-2.531 0-4.64 1.736-5.108 4.03C2.543 8.157 1 9.709 1 11.609c0 1.642 1.149 3.022 2.718 3.448l-.001.068-.002.069c0 1.665 1.409 3.018 3.15 3.018.663 0 1.278-.197 1.785-.532V22h1.7v-4.052a3.25 3.25 0 0 0 1.287.262c.868 0 1.655-.337 2.224-.884a3.252 3.252 0 0 1-1.995.674c-1.677 0-3.046-1.235-3.146-2.79Z"/></svg>