<svg viewBox="0 0 35 35" fill="currentColor" xmlns="http://www.w3.org/2000/svg">
    <g clip-path="url(#clip0_795_8674)">
        <path d="M15.4814 24.0326L15.0868 27.089C15.0868 27.3668 15.2184 27.6447 15.6129 27.6447H19.2952C19.5582 27.6447 19.8213 27.3668 19.8213 27.089L19.4268 24.0326C19.4268 23.7547 19.5583 23.4769 19.8213 23.4769H25.4764H25.6079C25.7394 23.4769 25.7393 23.4769 25.8709 23.4769C28.6326 23.4769 30.8684 20.6984 30.0794 17.642C29.5533 15.5581 27.7121 14.1689 25.7394 14.3078C25.6079 12.6407 24.2928 11.3903 22.7147 11.3903C22.0571 11.3903 21.3995 11.6682 20.8734 12.085C19.9529 9.5843 17.5857 7.77826 14.8239 7.77826C11.273 7.77826 8.51124 10.6957 8.24822 14.3078C6.27552 14.7246 4.69727 16.5306 4.69727 18.8923C4.69727 21.393 6.67003 23.4769 9.03726 23.4769H15.0868C15.3499 23.4769 15.613 23.7547 15.4814 24.0326Z"/>
    </g>
    <defs>
        <clipPath id="clip0_795_8674">
            <rect width="34.0567" height="34.0567" fill="white" transform="translate(0.439453 0.683105)"/>
        </clipPath>
    </defs>
</svg>
