<svg class="tds-svg-icon--fill" viewBox="0 0 24 24" xmlns="http://www.w3.org/2000/svg"><path d="m16.222 7.575.122 1.615 1.605.216C19.182 9.573 20 10.55 20 11.587c0 1.048-.84 2.035-2.078 2.182l-1.459.173-.271 1.444c-.125.666-.776 1.28-1.678 1.28a1.774 1.774 0 0 1-1.324-.57l-1.483-1.64-1.483 1.64c-.307.34-.776.57-1.323.57-1.026 0-1.7-.766-1.707-1.525V15.127c.001-.024.004-.089.004-.16v-1.531l-1.477-.4C4.668 12.751 4 11.866 4 10.922c0-1.087.908-2.114 2.232-2.199l1.525-.098.306-1.498C8.414 5.407 10.043 4 12.113 4c2.25 0 3.963 1.653 4.109 3.575ZM13 18.358c.462.198.974.309 1.514.309 1.82 0 3.333-1.257 3.644-2.912C20.32 15.498 22 13.73 22 11.587c0-2.123-1.644-3.874-3.784-4.163C17.986 4.394 15.342 2 12.113 2c-2.978 0-5.46 2.036-6.01 4.727C3.816 6.874 2 8.694 2 10.922c0 1.926 1.351 3.545 3.198 4.044 0 .028 0 .054-.002.08a1.844 1.844 0 0 0-.002.081c0 1.953 1.657 3.54 3.707 3.54.78 0 1.502-.23 2.099-.623v4.067a1 1 0 1 0 2 0v-3.753Z"/></svg>