<svg width="34" height="34" fill="none" xmlns="http://www.w3.org/2000/svg">
    <path fill-rule="evenodd" clip-rule="evenodd"
        d="m22.981 10.732.173 2.287 2.273.306c1.748.236 2.906 1.621 2.906 3.09 0 1.484-1.19 2.883-2.944 3.091l-2.066.246-.384 2.045c-.177.943-1.1 1.814-2.378 1.814-.776 0-1.44-.327-1.875-.808l-2.1-2.323-2.102 2.323a2.513 2.513 0 0 1-1.874.808c-1.453 0-2.407-1.086-2.419-2.162v-.012l.001-.006c.002-.036.005-.127.005-.228v-2.169l-2.093-.566c-1.49-.404-2.437-1.657-2.437-2.994 0-1.54 1.285-2.996 3.161-3.116l2.162-.139.433-2.122c.497-2.436 2.805-4.43 5.737-4.43 3.188 0 5.615 2.342 5.821 5.065Zm-4.564 15.276c.654.28 1.38.436 2.144.436 2.578 0 4.722-1.78 5.162-4.124 3.063-.364 5.444-2.871 5.444-5.905 0-3.007-2.33-5.488-5.36-5.897-.326-4.294-4.072-7.685-8.647-7.685-4.219 0-7.735 2.884-8.513 6.697-3.242.208-5.814 2.787-5.814 5.944 0 2.728 1.915 5.02 4.531 5.729 0 .039-.001.076-.003.113-.002.038-.003.075-.003.114 0 2.767 2.348 5.014 5.252 5.014a5.394 5.394 0 0 0 2.973-.882v5.762a1.417 1.417 0 0 0 2.834 0v-5.316Z"
        fill="currentColor" />
</svg>