<svg width="26" height="25" fill="none" xmlns="http://www.w3.org/2000/svg">
    <path
        d="M13 22.917c-5.752 0-10.416-4.664-10.416-10.417S7.248 2.084 13.001 2.084 23.417 6.747 23.417 12.5s-4.663 10.417-10.416 10.417Zm6.62-6.3v-.11c0-.96 0-1.399-.679-1.787a7.662 7.662 0 0 0-.672-.339c-.382-.174-.635-.287-.977-.787l-.12-.18c-.36-.546-.62-.94-1.607-.784-1.942.309-2.086.65-2.172 1.227l-.013.095c-.126.844-.15 1.127.203 1.497 1.318 1.382 2.107 2.38 2.347 2.963.117.284.416 1.146.21 1.998a8.525 8.525 0 0 0 3.282-2.33c.115-.39.198-.876.198-1.463ZM13 3.993a8.485 8.485 0 0 0-6.141 2.62c.184.129.345.309.455.557.213.476.213.967.213 1.401 0 .342 0 .667.11.901.15.32.797.458 1.369.577.205.044.415.088.607.14.527.147.936.62 1.262 1 .135.158.336.39.437.449.052-.038.22-.22.302-.52.065-.228.046-.43-.047-.54-.583-.688-.55-2.011-.37-2.5.283-.77 1.168-.712 1.816-.67.242.015.469.03.64.009.648-.081.848-1.068.988-1.26.304-.417 1.236-1.045 1.813-1.433A8.477 8.477 0 0 0 13 3.993Z"
        fill="currentColor" />
</svg>