<svg class="tds-svg-icon--fill tds-svg--wheelbarrow" viewBox="0 0 40 40" style="fill-rule:evenodd;clip-rule:evenodd;stroke-linejoin:round;stroke-miterlimit:2" xmlns="http://www.w3.org/2000/svg"><path class="wheelbarrow" d="m30.657 20.75 1.804-1.804c1.675-1.546 1.418-2.964 1.16-3.48-.129-.515-.902-1.804-3.093-2.061l-16.496-1.418c-1.546-.129-2.448.387-2.835.902l-2.062-.258c-.258-.257-.515-.515-.902-.644L5.14 10.956c-.902-.258-1.804.129-2.062 1.031-.258.902.129 1.804 1.031 2.062l3.093 1.031c.129 0 .387.129.516.129.386 0 .773-.129 1.031-.387l1.804.258c.129.644.386 1.417.902 2.062.258.386 2.448 3.479 4.382 5.155l.128 4.897c0 .773.516 1.418 1.289 1.546l1.418.387h.773a1.902 1.902 0 0 0 1.289-1.16l.902-2.964h.644c.773 0 1.418-.129 1.804-.258.258 0 .516-.129.774-.129v.129c0 2.32 1.933 4.253 4.252 4.253 2.32 0 4.253-1.933 4.253-4.253 0-1.933-1.16-3.479-2.706-3.995Zm-11.856 5.928-.645-.128-.129-2.707c.387.258.902.387 1.418.645l-.644 2.19Zm4.768-4.123c-.902.257-1.804.257-2.578 0-1.804-.387-2.448-.903-3.479-1.805-1.933-1.417-4.382-5.026-4.382-5.026v-.129c-.386-.515-.515-1.031-.386-1.159.128-.129.257-.258.773-.258h.258l16.495 1.417c.774 0 1.16.258 1.16.516.129.258 0 .644-.644 1.289 0 0-1.804 1.933-3.48 3.221-.644.516-1.933 1.289-2.577 1.547-.258.129-.645.258-1.16.387Zm5.541 4.252a2.036 2.036 0 0 1-2.062-2.062c0-1.16.903-2.062 2.062-2.062 1.16 0 2.062.902 2.062 2.062 0 1.031-.902 2.062-2.062 2.062Z"/></svg>