<svg class="tds-svg-icon--stroke" viewBox="0 0 40 40" xmlns="http://www.w3.org/2000/svg"><g><path d="M9.018 19.658a1.501 1.501 0 0 0-1.612-.456l-6.372 2.084a1.5 1.5 0 0 0 .933 2.852l6.372-2.085c.453-.148.788-.492.941-.908l1.258-.377 2.161-.432c.3.423.786.817 1.448 1.107 1.014.445 2.488.674 4.559.444 3.93-.437 16.643-.914 22.536-1.098l.045-.003a5.721 5.721 0 0 0 1.827-.47c.598-.273 1.196-.703 1.559-1.361.77-1.398.226-3.235-1.794-5.48a40.415 40.415 0 0 0-2.451-2.504 5.517 5.517 0 0 0 3.94-5.284A5.514 5.514 0 0 0 38.855.176a5.514 5.514 0 0 0-5.484 6.056c-1.72-.672-3.387-.934-4.935-.713a7.737 7.737 0 0 0-.954.205L25.38.472a.75.75 0 0 0-.878-.45l-4.409 1.103a.75.75 0 0 0-.568.727v7.716a.75.75 0 0 0 .1.376l-.08.06c-3.07 2.336-6.005 5.457-7.034 8.84l-2.303.46a.737.737 0 0 0-.069.017ZM21.026 8.355V2.438l3.206-.802L25.937 5.9Zm17.83 1.343a4.013 4.013 0 0 0 4.011-4.01 4.013 4.013 0 0 0-4.01-4.012 4.013 4.013 0 0 0-4.012 4.011 4.013 4.013 0 0 0 4.011 4.011Zm-.44 1.483a36.828 36.828 0 0 1 3.348 3.298c1.948 2.164 1.862 3.267 1.595 3.752-.156.284-.451.53-.87.722a4.218 4.218 0 0 1-1.317.338c-5.874.183-18.632.66-22.632 1.105-1.897.211-3.088-.019-3.79-.327-.514-.225-.749-.48-.848-.634.84-2.974 3.505-5.917 6.553-8.237a29.824 29.824 0 0 1 4.617-2.897c1.47-.734 2.73-1.176 3.577-1.297 1.52-.217 3.296.137 5.255 1.103a5.517 5.517 0 0 0 4.512 3.074Z" style="fill:#85b973;fill-rule:evenodd;fill-opacity:1" transform="matrix(.80063 0 0 -.80063 1.53 31.153)"/></g></svg>