<svg class="tds-svg-icon--fill" viewBox="0 0 40 40" xmlns="http://www.w3.org/2000/svg"><path d="M6.749 15.404c-.064 0-.369-.056-.369-.056l-5.107-1.686a1.264 1.264 0 0 1-1.136-1.259 1.265 1.265 0 0 1 1.486-1.248v-.001l.012.006c.11.019.214.052.311.101l5.002 1.627c.457.07.834.387.989.809l1.061.319 1.811.361c.251-.354.657-.683 1.212-.926.849-.372 2.083-.564 3.817-.372 3.291.365 13.937.764 18.872.919a4.85 4.85 0 0 1 1.566.394c.502.231 1.002.591 1.307 1.142.644 1.171.189 2.708-1.503 4.589a34.2 34.2 0 0 1-2.062 2.106c.752.228 1.444.64 1.956 1.152.801.8 1.352 2.034 1.352 3.262 0 1.23-.551 2.464-1.352 3.264a4.762 4.762 0 0 1-3.263 1.352c-1.229 0-2.463-.55-3.264-1.352a4.77 4.77 0 0 1-1.349-3.264c0-.152.007-.304.024-.455-1.441.563-2.837.783-4.136.596a5.928 5.928 0 0 1-.799-.172l-1.759 4.399a.628.628 0 0 1-.734.378l-3.693-.925a.628.628 0 0 1-.477-.608v-6.462c0-.112.032-.22.084-.314l-.065-.051c-2.571-1.958-5.031-4.569-5.891-7.401l-1.929-.386a.34.34 0 0 1-.057-.014l-.941-.282a1.268 1.268 0 0 1-.976.458Zm22.698 7.977a4.8 4.8 0 0 1 2.895-1.336 30.942 30.942 0 0 0 2.805-2.763c1.631-1.812 1.558-2.736 1.334-3.142-.13-.237-.376-.443-.726-.604a3.45 3.45 0 0 0-1.104-.282c-4.918-.155-15.602-.556-18.952-.927-1.588-.177-2.585.016-3.173.274-.43.188-.628.402-.71.53.703 2.491 2.934 4.956 5.486 6.898a25.007 25.007 0 0 0 3.868 2.426c1.23.615 2.284.985 2.995 1.086 1.277.183 2.77-.118 4.416-.932.229-.466.525-.886.866-1.228Zm5.64.888c-.644-.642-1.403-.985-2.376-.985-.972 0-1.731.343-2.374.985-.642.642-.984 1.403-.984 2.374 0 .973.342 1.734.984 2.375.643.643 1.402.984 2.374.984.973 0 1.732-.341 2.376-.984.642-.641.983-1.402.983-2.375 0-.971-.341-1.732-.983-2.374Zm-17.305.142v4.954l2.684.672 1.427-3.569Z"/></svg>