<svg viewBox="0 0 40 40" fill="none" xmlns="http://www.w3.org/2000/svg"><g clip-path="url(#a)"><mask id="b" maskUnits="userSpaceOnUse" x="6" y="5" width="28" height="27" fill="#000"><path fill="#fff" d="M6 5h28v27H6z"/><path d="M32.243 9.333s-.005 0 0 0h-6.911V8.5c0-1.378-1.026-2.5-2.285-2.5h-6.094c-1.26 0-2.285 1.122-2.285 2.5v.833H7.762c-.427 0-.762.378-.762.834V28.5C7 29.878 8.026 31 9.285 31h21.43C31.975 31 33 29.878 33 28.5V10.178c-.03-.545-.335-.84-.757-.845ZM16.191 8.5c0-.461.34-.833.762-.833h6.094c.421 0 .762.372.762.833v.833H16.19V8.5ZM31.182 11l-2.366 7.761c-.102.339-.396.572-.721.572h-4.286V18.5c0-.461-.34-.833-.762-.833h-6.094c-.421 0-.762.372-.762.833v.833h-4.285c-.33 0-.62-.227-.722-.572L8.818 11h22.364Zm-8.897 8.333V21h-4.57v-1.667h4.57Zm9.192 9.167c0 .461-.34.833-.762.833H9.285c-.421 0-.762-.372-.762-.833V15.3l1.214 3.989C10.047 20.31 10.92 21 11.905 21h4.286v.833c0 .461.34.834.762.834h6.094c.421 0 .762-.373.762-.834V21h4.285c.986 0 1.86-.689 2.169-1.711l1.214-3.989v13.2Z"/></mask><path d="M32.243 9.333s-.005 0 0 0h-6.911V8.5c0-1.378-1.026-2.5-2.285-2.5h-6.094c-1.26 0-2.285 1.122-2.285 2.5v.833H7.762c-.427 0-.762.378-.762.834V28.5C7 29.878 8.026 31 9.285 31h21.43C31.975 31 33 29.878 33 28.5V10.178c-.03-.545-.335-.84-.757-.845ZM16.191 8.5c0-.461.34-.833.762-.833h6.094c.421 0 .762.372.762.833v.833H16.19V8.5ZM31.182 11l-2.366 7.761c-.102.339-.396.572-.721.572h-4.286V18.5c0-.461-.34-.833-.762-.833h-6.094c-.421 0-.762.372-.762.833v.833h-4.285c-.33 0-.62-.227-.722-.572L8.818 11h22.364Zm-8.897 8.333V21h-4.57v-1.667h4.57Zm9.192 9.167c0 .461-.34.833-.762.833H9.285c-.421 0-.762-.372-.762-.833V15.3l1.214 3.989C10.047 20.31 10.92 21 11.905 21h4.286v.833c0 .461.34.834.762.834h6.094c.421 0 .762-.373.762-.834V21h4.285c.986 0 1.86-.689 2.169-1.711l1.214-3.989v13.2Z" fill="#383838"/><path d="m32.243 9.333.002-.15h-.002v.15Zm-6.911 0h-.15v.15h.15v-.15Zm-10.664 0v.15h.15v-.15h-.15ZM33 10.178h.15v-.009l-.15.009Zm-9.191-.845v.15h.15v-.15h-.15Zm-7.618 0h-.15v.15h.15v-.15ZM31.182 11l.144.044.059-.194h-.203V11Zm-2.366 7.761-.144-.044v.001l.144.043Zm-5.007.572h-.15v.15h.15v-.15Zm-7.618 0v.15h.15v-.15h-.15Zm-5.007-.572.144-.042v-.002l-.144.044ZM8.818 11v-.15h-.203l.06.194.143-.044Zm13.467 8.333h.15v-.15h-.15v.15Zm0 1.667v.15h.15V21h-.15Zm-4.57 0h-.15v.15h.15V21Zm0-1.667v-.15h-.15v.15h.15ZM8.523 15.3l.144-.044-.294.044h.15Zm1.214 3.989.144-.044-.144.044ZM16.191 21h.15v-.15h-.15V21Zm7.618 0v-.15h-.15V21h.15Zm6.454-1.711-.144-.044.144.044Zm1.214-3.989h.15l-.294-.044.144.044Zm.766-5.967v-.15h-.001v.3h.001v-.3h-.001v.3h.001v-.15Zm0-.15h-6.911v.3h6.911v-.3Zm-6.761.15V8.5h-.3v.833h.3Zm0-.833c0-1.448-1.08-2.65-2.435-2.65v.3c1.164 0 2.135 1.042 2.135 2.35h.3Zm-2.435-2.65h-6.094v.3h6.094v-.3Zm-6.094 0c-1.354 0-2.435 1.202-2.435 2.65h.3c0-1.308.971-2.35 2.135-2.35v-.3ZM14.518 8.5v.833h.3V8.5h-.3Zm.15.683H7.762v.3h6.906v-.3Zm-6.906 0c-.523 0-.912.46-.912.984h.3c0-.387.282-.684.612-.684v-.3Zm-.912.984V28.5h.3V10.167h-.3Zm0 18.333c0 1.448 1.08 2.65 2.435 2.65v-.3c-1.164 0-2.135-1.042-2.135-2.35h-.3Zm2.435 2.65h21.43v-.3H9.285v.3Zm21.43 0c1.354 0 2.435-1.202 2.435-2.65h-.3c0 1.308-.971 2.35-2.135 2.35v.3Zm2.435-2.65V10.183h-.3V28.5h.3ZM33 10.183h.15v-.005h-.3v.005H33Zm.15-.014c-.017-.298-.11-.544-.272-.718a.859.859 0 0 0-.633-.268l-.004.3a.56.56 0 0 1 .418.173c.103.11.177.284.191.53l.3-.017ZM16.34 8.5c0-.391.286-.683.612-.683v-.3c-.517 0-.912.452-.912.983h.3Zm.612-.683h6.094v-.3h-6.094v.3Zm6.094 0c.326 0 .612.292.612.683h.3c0-.531-.395-.983-.912-.983v.3Zm.612.683v.833h.3V8.5h-.3Zm.15.683H16.19v.3h7.618v-.3Zm-7.468.15V8.5h-.3v.833h.3Zm14.698 1.623-2.367 7.761.287.088 2.367-7.761-.287-.088Zm-2.367 7.762c-.085.283-.326.465-.578.465v.3c.4 0 .747-.284.865-.679l-.287-.086Zm-.578.465H23.81v.3h4.285v-.3Zm-4.135.15V18.5h-.3v.833h.3Zm0-.833c0-.531-.395-.983-.912-.983v.3c.326 0 .612.292.612.683h.3Zm-.912-.983h-6.094v.3h6.094v-.3Zm-6.094 0c-.517 0-.912.452-.912.983h.3c0-.391.286-.683.612-.683v-.3Zm-.912.983v.833h.3V18.5h-.3Zm.15.683h-4.285v.3h4.285v-.3Zm-4.285 0c-.257 0-.493-.177-.578-.464l-.287.084c.118.402.461.68.864.68v-.3Zm-.578-.466-2.367-7.76-.287.087 2.367 7.76.287-.087Zm-2.51-7.567h22.364v-.3H8.818v.3Zm13.317 8.183V21h.3v-1.667h-.3Zm.15 1.517h-4.57v.3h4.57v-.3Zm-4.42.15v-1.667h-.3V21h.3Zm-.15-1.517h4.57v-.3h-4.57v.3ZM31.327 28.5c0 .391-.286.683-.612.683v.3c.517 0 .912-.452.912-.983h-.3Zm-.612.683H9.285v.3h21.43v-.3Zm-21.43 0c-.326 0-.612-.292-.612-.683h-.3c0 .531.395.983.912.983v-.3Zm-.612-.683V15.3h-.3v13.2h.3ZM8.38 15.344l1.214 3.989.287-.088-1.214-3.989-.287.088Zm1.214 3.988c.326 1.079 1.253 1.818 2.312 1.818v-.3c-.912 0-1.732-.638-2.025-1.605l-.287.087Zm2.312 1.818h4.285v-.3h-4.285v.3ZM16.04 21v.833h.3V21h-.3Zm0 .833c0 .531.395.984.912.984v-.3c-.326 0-.612-.292-.612-.684h-.3Zm.912.984h6.094v-.3h-6.094v.3Zm6.094 0c.517 0 .912-.453.912-.984h-.3c0 .392-.286.684-.612.684v.3Zm.912-.984V21h-.3v.833h.3Zm-.15-.683h4.285v-.3H23.81v.3Zm4.285 0c1.059 0 1.986-.74 2.312-1.818l-.287-.087c-.293.967-1.113 1.605-2.024 1.605v.3Zm2.312-1.817 1.214-3.99-.287-.087-1.214 3.99.287.087Zm.92-4.033v13.2h.3V15.3h-.3Z" fill="#383838" mask="url(#b)"/></g><defs><clipPath id="a"><path fill="#fff" transform="translate(7 6)" d="M0 0h26v25H0z"/></clipPath></defs></svg>