<svg class="tds-svg-icon--fill" viewBox="0 0 40 40" xmlns="http://www.w3.org/2000/svg"><path d="M18.408 34.226A14.32 14.32 0 0 1 6.175 16.385a14.32 14.32 0 0 1 3.545-6.324c.235.215.421.479.544.773a5.6 5.6 0 0 1 .372 2.407 4.03 4.03 0 0 0 .182 1.546c.267.553 1.375.783 2.358.954.353.077.716.153 1.04.24a4.871 4.871 0 0 1 2.168 1.718c.227.281.479.54.754.773.247-.238.425-.538.516-.869a1.055 1.055 0 0 0-.086-.955 5.257 5.257 0 0 1-.64-4.296c.487-1.317 2.014-1.222 3.122-1.155.365.033.733.033 1.098 0 1.117-.143 1.461-1.833 1.7-2.168a14.174 14.174 0 0 1 2.864-2.262 14.314 14.314 0 0 1 8.173 9.681 12.414 12.414 0 0 1 3.981 2.617A17.897 17.897 0 0 0 26.182 3.21a17.891 17.891 0 1 0-6.142 34.682c.507 0 1.003 0 1.5-.076a12.699 12.699 0 0 1-3.132-3.59Z"/><path d="M19.563 29.003a9.28 9.28 0 0 1 0-3.084 2.235 2.235 0 0 0 1.643-3.981 9.665 9.665 0 0 1 2.176-2.186 2.223 2.223 0 0 0 3.692-.24c.245-.424.344-.917.28-1.402a9.281 9.281 0 0 1 3.093 0 2.222 2.222 0 0 0 1.356 2.344 2.221 2.221 0 0 0 2.616-.702 9.689 9.689 0 0 1 2.186 2.186 2.221 2.221 0 0 0 .24 3.692c.424.245.917.344 1.402.28a9.281 9.281 0 0 1 0 3.093 2.222 2.222 0 0 0-2.344 1.355 2.222 2.222 0 0 0 .702 2.617 9.297 9.297 0 0 1-2.186 2.186 2.224 2.224 0 0 0-3.972 1.652 9.843 9.843 0 0 1-3.093 0 2.22 2.22 0 0 0-1.35-2.355 2.228 2.228 0 0 0-2.622.703 9.316 9.316 0 0 1-2.186-2.186 2.222 2.222 0 0 0-1.633-3.972Zm9.347 1.299a2.797 2.797 0 0 0 2.006-.832 2.866 2.866 0 0 0 0-4.019 2.807 2.807 0 0 0-2.006-.83c-.759 0-1.488.301-2.024.839a2.864 2.864 0 0 0-.009 4.04 2.86 2.86 0 0 0 2.014.83l.019-.028Z"/></svg>