<svg class="tds-svg-icon--fill" viewBox="0 0 30 30" xmlns="http://www.w3.org/2000/svg"><path fill-rule="evenodd" clip-rule="evenodd" d="M29.38 15c0 8.009-6.438 14.5-14.38 14.5C7.058 29.5.62 23.009.62 15 .62 6.992 7.058.5 15 .5 22.942.5 29.38 6.992 29.38 15Zm-6.18-3.276a2.152 2.152 0 0 0-1.507-1.52c-1.339-.37-6.693-.37-6.693-.37s-5.354 0-6.693.356A2.194 2.194 0 0 0 6.8 11.724c-.353 1.35-.353 4.148-.353 4.148s0 2.813.353 4.149a2.152 2.152 0 0 0 1.507 1.52c1.353.37 6.693.37 6.693.37s5.354 0 6.693-.356a2.152 2.152 0 0 0 1.507-1.52c.353-1.35.353-4.148.353-4.148s.014-2.813-.353-4.163Zm-9.905 6.734 4.452-2.586-4.452-2.585v5.171Z"/></svg>